<?xml version="1.0" encoding="utf-8"?>
<!-- Generator: Adobe Illustrator 22.0.1, SVG Export Plug-In . SVG Version: 6.00 Build 0)  -->
<svg version="1.1" id="Layer_1" xmlns="http://www.w3.org/2000/svg" xmlns:xlink="http://www.w3.org/1999/xlink" x="0px" y="0px"
	 viewBox="0 0 12 25.6" style="enable-background:new 0 0 12 25.6;" xml:space="preserve">
<style type="text/css">
	.st0{fill-rule:evenodd;clip-rule:evenodd;fill:#FFFFFF;}
</style>
<g id="facebook">
	<g>
		<path class="st0" d="M8,8.8C8,7.5,7.8,5.6,8.2,5C8.9,3.8,12,4.1,12,4.1s0-2.6,0-4.1C7.2,0,5.6-0.2,4,1.5C2.5,3,2.5,5.9,2.3,8.8H0
			v4h2.4c0,4.2,0,8.8,0,12.8c1.8,0,5.6,0,5.6,0V12.8c0,0,2.1,0,3.2,0c0.3-1.4,0.5-2.4,0.8-4H8z"/>
	</g>
</g>
</svg>
