<?xml version="1.0" encoding="utf-8"?>
<!-- Generator: Adobe Illustrator 22.0.1, SVG Export Plug-In . SVG Version: 6.00 Build 0)  -->
<svg version="1.1" id="Layer_1" xmlns="http://www.w3.org/2000/svg" xmlns:xlink="http://www.w3.org/1999/xlink" x="0px" y="0px"
	 viewBox="0 0 25.6 25.6" style="enable-background:new 0 0 25.6 25.6;" xml:space="preserve">
<style type="text/css">
	.st0{fill-rule:evenodd;clip-rule:evenodd;fill:#F38181;}
</style>
<g id="instagram">
	<g>
		<path class="st0" d="M22.4,0H3.2C1.4,0,0,1.4,0,3.2v19.2c0,1.8,1.4,3.2,3.2,3.2h19.2c1.8,0,3.2-1.4,3.2-3.2V3.2
			C25.6,1.4,24.2,0,22.4,0z M7.9,12.3c0-0.1,0-0.1,0-0.1c0-0.1,0-0.2,0.1-0.4c0-0.1,0-0.1,0-0.2c0-0.1,0.1-0.2,0.1-0.3
			c0-0.1,0-0.1,0.1-0.2c0-0.1,0.1-0.2,0.1-0.3c0,0,0,0,0-0.1h0c0.8-1.7,2.5-2.9,4.5-2.9c2,0,3.7,1.2,4.5,2.9h0c0,0,0,0,0,0.1
			c0,0.1,0.1,0.2,0.1,0.3c0,0.1,0,0.1,0.1,0.2c0,0.1,0.1,0.2,0.1,0.3c0,0.1,0,0.1,0,0.2c0,0.1,0,0.2,0.1,0.4c0,0.1,0,0.1,0,0.1
			c0,0.2,0,0.4,0,0.5c0,2.7-2.2,5-5,5c-2.7,0-5-2.2-5-5C7.8,12.6,7.9,12.4,7.9,12.3z M22.7,21.4c0,0.7-0.6,1.3-1.3,1.3H4.2
			c-0.7,0-1.3-0.6-1.3-1.3V10.7h2.4C5.1,11.4,5,12.1,5,12.8c0,4.3,3.5,7.8,7.8,7.8c4.3,0,7.8-3.5,7.8-7.8c0-0.7-0.1-1.4-0.3-2.1h2.4
			V21.4z M22.7,6.7c0,0.7-0.6,1.3-1.3,1.3h-2.6c-0.7,0-1.3-0.6-1.3-1.3V4.2c0-0.7,0.6-1.3,1.3-1.3h2.6c0.7,0,1.3,0.6,1.3,1.3V6.7z"
			/>
	</g>
</g>
</svg>
