<?xml version="1.0" encoding="utf-8"?>
<!-- Generator: Adobe Illustrator 22.0.1, SVG Export Plug-In . SVG Version: 6.00 Build 0)  -->
<svg version="1.1" id="Layer_1" xmlns="http://www.w3.org/2000/svg" xmlns:xlink="http://www.w3.org/1999/xlink" x="0px" y="0px"
	 viewBox="0 0 19.2 25.6" style="enable-background:new 0 0 19.2 25.6;" xml:space="preserve">
<style type="text/css">
	.st0{fill-rule:evenodd;clip-rule:evenodd;fill:#F38181;}
</style>
<g id="PIN_2">
	<g>
		<path class="st0" d="M9.6,6.4c-1.8,0-3.2,1.4-3.2,3.2s1.4,3.2,3.2,3.2s3.2-1.4,3.2-3.2S11.4,6.4,9.6,6.4z M9.6,0
			C4.3,0,0,4.3,0,9.6c0,5.3,9.6,16,9.6,16s9.6-10.7,9.6-16C19.2,4.3,14.9,0,9.6,0z M9.6,16c-3.5,0-6.4-2.9-6.4-6.4s2.9-6.4,6.4-6.4
			c3.5,0,6.4,2.9,6.4,6.4S13.1,16,9.6,16z"/>
	</g>
</g>
</svg>
