<?xml version="1.0" encoding="utf-8"?>
<!-- Generator: Adobe Illustrator 22.0.1, SVG Export Plug-In . SVG Version: 6.00 Build 0)  -->
<svg version="1.1" id="Layer_1" xmlns="http://www.w3.org/2000/svg" xmlns:xlink="http://www.w3.org/1999/xlink" x="0px" y="0px"
	 viewBox="0 0 16 14.3" style="enable-background:new 0 0 16 14.3;" xml:space="preserve">
<style type="text/css">
	.st0{fill-rule:evenodd;clip-rule:evenodd;fill:#95E1D3;}
</style>
<g id="SPEECH_BUBBLE_2">
	<g>
		<path class="st0" d="M8.4,0C3.7,0,0,2.7,0,6.1c0,1.9,1.2,3.6,3.1,4.8c0.4,0.3,0.5,2.2-2,3.3c0,0,3.5,0.5,5.6-2.2
			c0.5,0.1,1.1,0.2,1.7,0.2c4.7,0,7.6-2.7,7.6-6.1C16,2.7,13.1,0,8.4,0z M4.3,7.8c-0.8,0-1.5-0.7-1.5-1.5c0-0.8,0.7-1.5,1.5-1.5
			s1.5,0.7,1.5,1.5C5.8,7.1,5.1,7.8,4.3,7.8z M8,7.8c-0.8,0-1.5-0.7-1.5-1.5c0-0.8,0.7-1.5,1.5-1.5s1.5,0.7,1.5,1.5
			C9.5,7.1,8.8,7.8,8,7.8z M11.8,7.8c-0.8,0-1.5-0.7-1.5-1.5c0-0.8,0.7-1.5,1.5-1.5c0.8,0,1.5,0.7,1.5,1.5
			C13.3,7.1,12.6,7.8,11.8,7.8z"/>
	</g>
</g>
</svg>
