<?xml version="1.0" encoding="utf-8"?>
<!-- Generator: Adobe Illustrator 22.0.1, SVG Export Plug-In . SVG Version: 6.00 Build 0)  -->
<svg version="1.1" id="Layer_1" xmlns="http://www.w3.org/2000/svg" xmlns:xlink="http://www.w3.org/1999/xlink" x="0px" y="0px"
	 viewBox="0 0 19.6 25.7" style="enable-background:new 0 0 19.6 25.7;" xml:space="preserve">
<style type="text/css">
	.st0{fill-rule:evenodd;clip-rule:evenodd;fill:#F38181;}
</style>
<g id="pinterest">
	<g>
		<path class="st0" d="M19.2,6.3c-0.4-1.3-1-2.4-1.8-3.3c-0.8-0.9-1.8-1.6-3-2.1c-1.1-0.5-2.7-0.9-4.3-0.8C9.5,0,9,0.1,8.5,0.1
			C6.9,0.4,5.7,0.8,4.5,1.5C3.1,2.3,1.9,3.5,1.1,5.1C0.7,5.8,0.3,6.7,0.1,7.6c-0.2,1-0.2,2.2,0,3.2c0.3,1.7,1.1,3,2.4,3.7
			c0.2,0.1,0.4,0.2,0.6,0.2c0.5,0,0.5-0.6,0.6-1c0.1-0.4,0.3-0.8,0.1-1.2c-0.1-0.2-0.3-0.4-0.5-0.6c-0.4-0.6-0.7-1.4-0.7-2.5
			c0-1.4,0.3-2.5,0.8-3.4c1-1.8,2.6-3.1,4.9-3.5c1.3-0.2,2.7-0.1,3.7,0.2c1,0.3,1.9,0.9,2.5,1.7c0.6,0.8,1,1.8,1.1,3.1
			c0,0.7,0,1.4-0.1,2c-0.2,1.9-0.8,3.5-1.7,4.7c-0.6,0.7-1.4,1.5-2.7,1.6c-0.7,0-1.2-0.1-1.6-0.5c-0.4-0.3-0.7-0.7-0.8-1.3
			c-0.1-0.6,0-1.2,0.2-1.8c0.3-1.2,0.7-2.1,0.9-3.3c0.1-0.5,0.2-1.3,0.1-1.9c-0.1-0.6-0.4-1-0.9-1.2C9,5.7,8.3,5.6,7.7,5.8
			c-1,0.3-1.6,1.3-1.9,2.3c-0.2,0.6-0.2,1.2-0.1,1.9c0.1,0.6,0.2,1.1,0.4,1.7c0,0.1-0.1,0.3-0.1,0.4c-0.5,2.1-1,4.1-1.4,6.2
			C4.3,19.5,4,20.6,4,21.9c-0.1,1.1-0.1,2.3,0,3.3c0,0.2,0,0.3,0.2,0.3c0.2,0,0.1,0.3,0.6-0.4c0.9-1,1.5-2.2,2-3.5
			c0.3-0.8,0.5-1.6,0.7-2.5c0.2-0.9,0.4-1.7,0.6-2.6c0.3,0.6,0.8,0.9,1.3,1.2c0.5,0.3,1.2,0.5,2,0.6c0.8,0.1,1.6-0.1,2.2-0.3
			c0.7-0.2,1.3-0.5,1.8-0.8c2-1.3,3.4-3.6,3.8-6.5c0.1-0.8,0.3-1.5,0.3-2.4C19.6,7.7,19.4,7,19.2,6.3z"/>
	</g>
</g>
</svg>
