<?xml version="1.0" encoding="utf-8"?>
<!-- Generator: Adobe Illustrator 22.0.1, SVG Export Plug-In . SVG Version: 6.00 Build 0)  -->
<svg version="1.1" id="Layer_1" xmlns="http://www.w3.org/2000/svg" xmlns:xlink="http://www.w3.org/1999/xlink" x="0px" y="0px"
	 viewBox="0 0 25.6 20.8" style="enable-background:new 0 0 25.6 20.8;" xml:space="preserve">
<style type="text/css">
	.st0{fill-rule:evenodd;clip-rule:evenodd;fill:#F38181;}
</style>
<g id="twitter">
	<g>
		<path class="st0" d="M22.6,3.3L22.6,3.3C22.9,3.2,23,3,23.2,2.8c0.8-0.6,1.3-1.4,1.7-2.5c-0.2,0.1-0.4,0.2-0.7,0.4
			c-0.7,0.3-1.8,0.8-2.7,0.9c-1-0.9-2.1-1.7-4.2-1.6c-0.2,0-0.4,0.1-0.6,0.1c-0.4,0.1-0.8,0.2-1.2,0.4c-1.5,0.6-2.5,1.9-3,3.5
			c-0.2,0.7-0.3,1.8,0,2.5c-0.8,0-1.7-0.1-2.4-0.3C7.5,5.4,5.7,4.5,3.8,3C3.3,2.6,2.7,2.1,2.3,1.5C2.1,1.3,1.9,1.2,1.8,1
			c0,0,0,0,0,0C1.5,1.4,1.3,1.8,1.2,2.3C0.7,4.3,1.5,6,2.4,7.1c0.3,0.3,0.7,0.5,1,0.8h0C3.2,8,2.8,7.9,2.7,7.9
			C2.2,7.8,1.9,7.7,1.6,7.6C1.4,7.5,1.2,7.4,1,7.3c0,2.2,1.1,3.6,2.5,4.5c0.4,0.3,1.1,0.7,1.7,0.7c-0.3,0.3-1.8,0.2-2.3,0.1
			c0.6,1.7,1.6,2.8,3.3,3.4c0.4,0.2,1,0.3,1.6,0.3c-0.3,0.4-1,0.7-1.4,0.9c-0.9,0.5-2,0.9-3.2,1.1c-0.5,0.1-1,0.1-1.5,0.2
			c-0.6,0.1-1.2,0-1.7-0.1c0.2,0.1,0.3,0.2,0.5,0.3c0.5,0.3,1,0.5,1.5,0.8c1,0.4,2,0.7,3.1,1c2.3,0.6,5.5,0.3,7.4-0.3
			c5.5-1.7,9-5.7,10.3-11.6C23,7.5,23,6.4,23,5.2c0.3-0.2,0.5-0.4,0.8-0.7c0.7-0.5,1.3-1.3,1.8-2v0C24.7,2.7,23.8,3.3,22.6,3.3z"/>
	</g>
</g>
</svg>
