<?xml version="1.0" standalone="no"?>
<!DOCTYPE svg PUBLIC "-//W3C//DTD SVG 1.1//EN" "http://www.w3.org/Graphics/SVG/1.1/DTD/svg11.dtd" >
<svg xmlns="http://www.w3.org/2000/svg" xmlns:xlink="http://www.w3.org/1999/xlink" version="1.1">
<metadata>
Created by FontForge 20170731 at Thu Dec 15 00:31:01 2011
 By Aleksey,,,
Copyright (c) 2011 by Brian J. Bonislawsky DBA Astigmatic (AOETI) (astigma@astigmatic.com), with ReservedFont Name "Yesteryear"
</metadata>
<defs>
<font id="Yesteryear-Regular" horiz-adv-x="717" >
  <font-face 
    font-family="Yesteryear"
    font-weight="400"
    font-stretch="normal"
    units-per-em="2048"
    panose-1="3 2 8 2 4 6 7 7 8 2"
    ascent="1638"
    descent="-410"
    x-height="604"
    cap-height="1565"
    bbox="-604 -1004 2329 2001"
    underline-thickness="41"
    underline-position="-312"
    unicode-range="U+0020-FB02"
  />
<missing-glyph horiz-adv-x="461" 
 />
    <glyph glyph-name="fi" unicode="fi" horiz-adv-x="1044" 
d="M635 -55q-15 0 -38 10.5t-44 26t-36 34.5t-15 37q5 23 12 51.5t16 59.5q-122 -108 -247.5 -175.5t-264.5 -105.5q-40 -117 -82.5 -250.5t-89.5 -285.5l-262 -86q50 154 97 296.5t94 278.5q-31 -5 -64 -8t-67 -6l-15 102l185 21q117 329 231 595.5t231 461.5t239 313.5
t255 152.5q18 -4 38 -14.5t39 -24.5t36 -29.5t28 -29.5q5 -5 7 -10.5t2 -18.5q0 -62 -26.5 -136.5t-74 -156t-113.5 -167t-144.5 -170t-167.5 -165t-183 -151.5q-34 -83 -72 -183.5t-82 -219.5q71 18 133.5 44t124 63t125 86.5t135.5 115.5q19 54 38.5 105t35.5 90.5
t27.5 63.5t15.5 24q6 0 30.5 -13t51 -31.5t47.5 -39t21 -35.5q0 -16 -9.5 -47t-24 -69.5t-31 -80.5t-31 -79t-24 -65.5t-9.5 -39.5q0 -6 6 -6q11 0 33 13t50.5 34t59.5 46t59.5 49.5t51.5 44.5t35 30l45 -49q-22 -22 -55 -53.5t-71.5 -64.5t-80 -66t-81 -59t-73.5 -42
t-57 -16zM403 815q-11 -21 -27 -52q-14 -26 -33 -66t-44 -95q70 64 134.5 136t120.5 145t102.5 143.5t79.5 132.5t51 112.5t18 82.5q0 14 -10 14q-19 0 -50 -30t-78.5 -96t-112.5 -171t-151 -256zM1030 889q-1 -4 -7.5 -19.5t-15.5 -36t-20.5 -43t-22.5 -41.5t-20.5 -31.5
t-15.5 -12.5q-18 1 -43.5 11t-49 22.5t-40.5 24.5t-17 17q0 21 12 54.5t28 65t33 54.5t26 23q18 0 44 -11.5t50 -26.5t41.5 -29.5t17.5 -20.5z" />
    <glyph glyph-name="fl" unicode="fl" horiz-adv-x="1163" 
d="M784 70q16 0 43.5 14t61 35.5t69 47.5t67.5 51t56.5 46t36.5 31l45 -49q-22 -22 -55 -53.5t-71.5 -64.5t-80 -66t-80.5 -59t-73 -42t-58 -16q-30 0 -64 21.5t-63.5 51t-49.5 59t-23 44.5q-2 6 -4 17t-2 28q-62 -55 -124.5 -98.5t-126.5 -77.5t-130 -60.5t-135 -46.5
q-41 -117 -83.5 -250.5t-89.5 -285.5l-262 -86q50 152 96 295.5t93 277.5l-129 -12l-15 102q51 5 96 10.5t87 10.5q114 329 225 595.5t225 461.5t234.5 313.5t253.5 152.5q18 -4 37.5 -14.5t39 -24.5t36 -29.5t28.5 -29.5q5 -5 6.5 -10.5t1.5 -18.5q0 -46 -24.5 -108
t-69 -135t-105.5 -153t-134 -162t-155.5 -162t-168.5 -152q-38 -93 -85 -212t-100 -265q67 18 127 42.5t118.5 58.5t118.5 79t128 104q10 56 26.5 120.5t37 129.5t44 126.5t46.5 111.5q61 133 124.5 236t123.5 179.5t114.5 128.5t98.5 84t74 46t42 14q19 -7 38.5 -20.5
t37 -28.5t30.5 -29.5t19 -21.5q8 -8 10 -15.5t2 -19.5q0 -24 -12 -66t-45 -106.5t-91.5 -154.5t-152.5 -210q-41 -54 -89 -109q-41 -48 -93 -105t-109 -111q-34 -115 -48.5 -201.5t-14.5 -134.5q0 -31 4.5 -40t13.5 -9zM408 815q-7 -11 -16 -27q-8 -14 -18.5 -34.5
t-23.5 -48.5q60 62 116 127t105 128.5t89 123t68.5 111t44 92.5t15.5 67q0 14 -10 14q-18 0 -46 -30t-71.5 -96t-105 -171t-147.5 -256zM956 803q-14 -32 -27 -62t-24 -61q27 32 48.5 60t37.5 48q18 24 33 43q70 98 120.5 180t83.5 144.5t48.5 104t15.5 59.5q0 5 -0.5 7.5
t-5.5 2.5q-9 0 -38.5 -29.5t-74 -93.5t-100.5 -163.5t-117 -239.5z" />
    <glyph glyph-name=".notdef" horiz-adv-x="461" 
 />
    <glyph glyph-name=".null" horiz-adv-x="0" 
 />
    <glyph glyph-name="nonmarkingreturn" horiz-adv-x="682" 
 />
    <glyph glyph-name="space" unicode=" " horiz-adv-x="461" 
 />
    <glyph glyph-name="exclam" unicode="!" horiz-adv-x="672" 
d="M774 1255q-51 -128 -106 -256.5t-110 -250t-108 -231.5t-98 -200q-43 13 -81 38t-60 53q31 77 63.5 172.5t70 221.5t82 289t101.5 375q39 -16 80.5 -46t76.5 -62t59.5 -60.5t29.5 -42.5zM315 129q0 -8 -14 -36.5t-32.5 -60t-37 -56.5t-26.5 -25q-5 0 -20 5.5t-34 14
t-40 19.5t-38 21t-28.5 18t-11.5 12q0 18 13.5 51.5t31.5 65.5t34.5 56t22.5 24q10 0 27.5 -7t37.5 -17.5t40.5 -24t37 -25.5t27 -21.5t10.5 -13.5z" />
    <glyph glyph-name="quotedbl" unicode="&#x22;" horiz-adv-x="760" 
d="M530 1325q-7 -17 -24.5 -51.5t-40.5 -76.5t-48.5 -86.5t-48 -82.5t-39 -64.5t-22.5 -31.5q-2 -2 -4 -2h-4q-15 0 -38.5 10t-45.5 23t-37.5 26.5t-15.5 20.5q2 6 12 39.5t24 80t31 99t33.5 96.5t31 73t23.5 29q18 0 52 -12t68 -28.5t61 -33.5t32 -28zM879 1325
q-7 -17 -25 -51.5t-41 -76.5t-48.5 -86.5t-48 -82.5t-39 -64.5t-22.5 -31.5q-2 -2 -4 -2h-4q-15 0 -38.5 10t-45.5 23t-37.5 26.5t-15.5 20.5q2 6 12 39.5t24 80t31 99t34 96.5t31.5 73t23.5 29q18 0 51.5 -12t68 -28.5t61.5 -33.5t32 -28z" />
    <glyph glyph-name="numbersign" unicode="#" horiz-adv-x="983" 
d="M895 1161q-29 -64 -66.5 -143.5t-79.5 -167.5q42 2 79.5 4.5t66 4t46.5 3t22 2.5q-9 -16 -25.5 -38t-34.5 -43.5t-34.5 -39.5t-26.5 -26q-7 -1 -50 -0.5t-106 2.5l-58 -119q42 0 78.5 -0.5t64.5 -0.5t45.5 -0.5t21.5 -0.5q-10 -15 -27 -37.5t-35 -45t-34 -41t-25 -23.5
q-9 0 -51.5 3.5t-103.5 9.5q-54 -110 -98 -202.5t-71 -150.5q-29 9 -48 18t-36 18l15 35t31 71.5t43 100t51 121.5l-152 16q-57 -119 -105 -218.5t-77 -161.5q-29 9 -48 18t-36 18q3 7 16 37.5t33.5 78t46 109t54.5 130.5l-144 16q3 26 9.5 45.5t14.5 34.5q7 1 52 1.5
t110 1.5l53 127q-70 2 -116 3t-51 2q2 19 10 37t20 43q4 2 53.5 5.5t125.5 8.5l180 430q11 -6 26.5 -16.5t32 -23t32 -27t27.5 -29.5q-31 -67 -70 -150.5t-83 -174.5q35 2 69.5 3.5t70.5 3.5l173 414q12 -6 27 -16.5t31.5 -23t32.5 -27t28 -29.5zM410 725l-60 -124h151
l51 120z" />
    <glyph glyph-name="dollar" unicode="$" horiz-adv-x="952" 
d="M922 1489q-12 -29 -29.5 -71t-40.5 -93q27 -13 52.5 -33.5t47.5 -42t39 -42.5t27 -36q11 -17 13.5 -29.5t2.5 -25.5q0 -24 -6 -55.5t-17 -66.5t-27 -71.5t-36 -70.5l-172 106q22 25 42.5 50.5t36.5 52t26 54t10 56.5q0 10 -6.5 21t-17 20.5t-24 16.5t-27.5 10l-227 -524
q24 -39 47.5 -78t41.5 -79t29.5 -80.5t11.5 -80.5q0 -55 -17.5 -110.5t-49.5 -107.5t-76 -98t-97.5 -81.5t-114 -59t-125.5 -29.5l-89 -208q-28 6 -48 23t-39 26l22.5 52.5t49.5 119.5q-30 14 -59 36.5t-54.5 47.5t-45 48t-29.5 38q-10 14 -14.5 33t-4.5 39q0 32 9.5 68
t23 70.5t29 64t26.5 49.5l172 -107q-35 -56 -59.5 -108.5t-24.5 -110.5q0 -19 17 -36t59 -24q48 114 105.5 254.5t119.5 292.5q-24 40 -49 82.5t-45 84.5t-32.5 84t-12.5 83q0 96 35.5 170.5t96.5 127.5t143 85t174 41l90 222q11 -6 25.5 -12.5t30.5 -14.5t32 -18t29 -25z
M502 352q0 23 -7 48t-20 52l-180 -415q49 13 88 42.5t65 71t40 93t14 108.5zM475 981q0 -32 10.5 -66.5t28.5 -69.5l150 367q-43 -19 -78 -46.5t-59.5 -59t-38 -64.5t-13.5 -61z" />
    <glyph glyph-name="percent" unicode="%" horiz-adv-x="1735" 
d="M1436 1346q-42 -60 -108 -152t-146 -204t-170 -237t-180.5 -250.5t-177 -244.5t-159 -218.5t-127 -174t-81.5 -109.5q-29 16 -52 35.5t-38 36.5q14 19 47.5 66t80.5 115t106.5 153t125 180t135 196.5t138 202t134 196t121.5 179.5q-63 -31 -133 -45.5t-129 -19.5
q-35 -78 -91 -144.5t-121 -115.5t-133.5 -77t-127.5 -28q-35 0 -71.5 21t-66.5 51.5t-49.5 64.5t-19.5 60q0 87 24 174t74 162t127.5 132.5t184.5 86.5q3 2 11.5 3t13.5 1q16 0 34.5 -12t34 -27t25.5 -29t10 -18q-3 -6 -25 -15t-55.5 -30t-74.5 -59t-83 -101
q-31 -47 -55 -94t-40.5 -88.5t-25 -75t-8.5 -53.5q0 -19 2 -36.5t15 -17.5q27 0 66.5 25.5t83.5 67.5t87.5 97.5t77.5 115.5q-5 18 -6.5 37t-1.5 30q0 25 7 54.5t19 55t28 42t34 16.5q13 0 31 -14.5t35.5 -37.5t31.5 -52.5t19 -59.5q52 0 107 9.5t112 38.5t115.5 82
t117.5 139q3 5 5 8.5t4 5.5q10 -7 25.5 -18.5t33.5 -25t37 -28.5t35 -28zM1571 334q0 -57 -23 -115.5t-62 -112t-89.5 -100.5t-106 -81.5t-111.5 -54.5t-106 -20q-35 0 -71.5 21t-66.5 51.5t-49.5 65t-19.5 61.5q0 111 38.5 212.5t106.5 178.5t160.5 122.5t200.5 45.5
q10 0 26.5 -10t36 -26t39 -34.5t36 -35.5t27.5 -30t13 -17q8 -15 12 -32.5t6 -34t2.5 -30.5t0.5 -24zM1038 8q0 -8 1.5 -18t5 -18t8 -13.5t10.5 -5.5q34 0 71 22t73 58.5t69.5 83.5t61 97t47 98.5t28 88t4.5 66.5t-24 33q-15 0 -39.5 -10t-55 -31.5t-64 -56.5t-65.5 -85
q-32 -47 -56 -93t-41 -87.5t-25.5 -74.5t-8.5 -54z" />
    <glyph glyph-name="ampersand" unicode="&#x26;" horiz-adv-x="1210" 
d="M1141 1364q3 -6 5.5 -12t2.5 -13q0 -51 -22.5 -102.5t-62 -103.5t-92.5 -104.5t-114.5 -106.5t-128 -109t-131.5 -111q-1 -18 -1.5 -35.5t-0.5 -33.5q0 -61 14.5 -125t37.5 -127q72 75 128 145t95 124.5t60 87t23 32.5q4 0 9 -16.5t9.5 -43t9 -59t8 -64.5t5.5 -60t2 -44
v-14q-2 -20 -23.5 -49.5t-56.5 -66t-82 -77.5t-101 -82q27 -51 54.5 -95t51 -78.5t42 -58t27.5 -32.5q-22 -3 -63.5 -4.5t-87 -1.5t-88 1t-66.5 3q-5 8 -26 40.5t-47 84.5q-52 -32 -102.5 -59t-96 -47t-85.5 -31.5t-71 -11.5q-20 0 -44 13.5t-48 34.5t-46.5 47t-40 52
t-28 49t-10.5 37q0 95 40.5 182.5t107.5 169t153.5 158t178.5 149.5q18 100 47.5 193t67.5 173.5t84 146.5t97.5 113t107 72.5t113.5 25.5q26 0 53 -16.5t52 -40.5t45.5 -51t34.5 -48zM464 214q-22 66 -36 140.5t-14 157.5v18q-50 -52 -92 -105t-73 -108.5t-48 -112.5
t-17 -116q0 -5 3.5 -10.5t11.5 -5.5q13 0 39 9t61 27t77 44.5t88 61.5zM977 1409q-62 0 -114 -39t-94.5 -102.5t-75 -146t-54.5 -169.5q72 57 135.5 112.5t111.5 111t75.5 110.5t27.5 111q0 12 -12 12z" />
    <glyph glyph-name="quotesingle" unicode="'" horiz-adv-x="412" 
d="M530 1325q-7 -17 -24.5 -51.5t-40.5 -76.5t-48.5 -86.5t-48 -82.5t-39 -64.5t-22.5 -31.5q-2 -2 -4 -2h-4q-15 0 -38.5 10t-45.5 23t-37.5 26.5t-15.5 20.5q2 6 12 39.5t24 80t31 99t33.5 96.5t31 73t23.5 29q18 0 52 -12t68 -28.5t61 -33.5t32 -28z" />
    <glyph glyph-name="parenleft" unicode="(" horiz-adv-x="778" 
d="M983 1391q-100 -62 -199.5 -147t-190.5 -194.5t-169.5 -245t-136 -299t-90.5 -356t-33 -415.5q-15 -2 -29 -2.5t-27.5 -0.5t-28 1t-32.5 2q-2 21 -3 47.5t-1.5 54.5t-1 54.5t-0.5 48.5q0 246 44 481.5t135.5 449.5t232 399.5t333.5 329.5q54 -48 104 -100.5t93 -107.5z
" />
    <glyph glyph-name="parenright" unicode=")" horiz-adv-x="778" 
d="M432 1530q87 31 153.5 45.5t125.5 23.5q9 -54 14.5 -135t5.5 -180q0 -226 -51.5 -439t-148 -408.5t-235 -370.5t-312.5 -324q-34 14 -58 28t-49 31q135 122 231 242t162 237.5t105 231t60 224t27.5 217t6.5 208.5q0 49 -3 100.5t-8 100t-11.5 92t-14.5 76.5z" />
    <glyph glyph-name="asterisk" unicode="*" horiz-adv-x="922" 
d="M1036 1059q-21 -4 -59 -9q-33 -5 -87.5 -11.5t-139.5 -14.5q13 -31 31 -68t36 -73.5t35 -69.5t29 -57q-48 -23 -96.5 -45t-92.5 -39q-9 35 -20 80q-9 38 -20 92t-23 121q-57 -91 -92 -143.5t-55 -80.5q-23 -33 -33 -43q-15 12 -37.5 31t-45 39t-42 40.5t-29.5 35.5l45 39
q26 23 71 63l117 104q-60 19 -103.5 34.5t-71.5 26.5q-33 12 -54 22q15 32 29 58t28.5 48.5t29.5 43.5t30 44q5 -4 52.5 -37t144.5 -106q14 53 25 99t19 80q10 40 17 73q18 -2 47.5 -7.5t59 -11.5t54.5 -12t35 -10q-7 -17 -21 -47t-30.5 -64t-34 -68.5t-31.5 -59.5
q69 32 111.5 50.5t66.5 29.5q27 12 40 17q9 -21 19.5 -48.5t20 -55.5t16.5 -52t9 -38z" />
    <glyph glyph-name="plus" unicode="+" 
d="M487 793q-15 -41 -31.5 -82t-34.5 -83q39 3 73.5 5t61.5 4t44.5 3t22.5 1q-8 -23 -16.5 -47t-17 -45.5t-16 -39.5l-12.5 -30h-29h-48t-62.5 -0.5t-71.5 -0.5q-33 -68 -67 -128t-66 -108q-22 6 -52 13.5l-50 12.5q14 29 33.5 83.5t42.5 124.5l-191 -1q5 11 13.5 29
t17.5 37.5t16.5 37t11.5 27.5q11 0 60 2.5t116 7.5q20 66 38.5 134t33.5 133q15 -5 41 -17t53.5 -26t51 -27t34.5 -20z" />
    <glyph glyph-name="comma" unicode="," horiz-adv-x="512" 
d="M281 98q0 -35 -21.5 -81t-53.5 -92t-68 -85.5t-64 -62.5q-5 1 -14 6.5t-18.5 12.5t-17 14t-8.5 10q11 9 28 30t32.5 44.5t27 45t11.5 31.5q0 15 -14.5 30.5t-33 29t-35.5 24t-22 15.5q4 20 18 47t30.5 52t32.5 44.5t24 24.5q15 0 43 -13.5t55.5 -34t47.5 -45.5t20 -47z
" />
    <glyph glyph-name="hyphen" unicode="-" horiz-adv-x="922" 
d="M672 522q-4 -18 -11.5 -48t-16.5 -61.5t-18.5 -58t-15.5 -35.5q-12 0 -53.5 -0.5t-97.5 -1t-119 -1.5t-117 -1t-91.5 1t-43.5 3q3 12 8.5 35t12.5 48t14 47t12 30q8 3 48.5 7.5t98 9.5t123 9.5t122.5 8t97.5 6t47.5 2.5z" />
    <glyph glyph-name="period" unicode="." horiz-adv-x="512" 
d="M295 129q0 -8 -14 -36.5t-33 -60t-37 -56.5t-27 -25q-8 0 -35.5 12t-58 27t-54.5 30t-24 21q0 18 13.5 51.5t31.5 65.5t35 56t23 24q10 0 27.5 -7t37.5 -17.5t40.5 -24t37 -25.5t27 -21.5t10.5 -13.5z" />
    <glyph glyph-name="slash" unicode="/" horiz-adv-x="1067" 
d="M1272 1391q-33 -41 -96.5 -119.5t-147.5 -181.5t-183 -224.5t-203 -247.5t-207 -250.5t-195 -234t-167.5 -197.5t-123.5 -141q-16 20 -28 34.5t-22 27.5t-20 25.5l-22 27.5q127 150 235 280.5t207 254t193.5 245t195 254.5t212.5 283t245 329q22 -27 38 -47t29.5 -38
t27.5 -36.5t32 -43.5z" />
    <glyph glyph-name="zero" unicode="0" horiz-adv-x="1188" 
d="M1161 1219q14 -48 21.5 -100.5t7.5 -112.5q0 -86 -21.5 -182t-61 -194t-95 -194t-122.5 -183t-143.5 -161.5t-159 -129t-169 -85.5t-172.5 -31q-34 0 -75 26t-78.5 63t-65.5 77t-35 68q-2 5 -4.5 20.5t-4.5 35t-4 40.5t-2 37q0 63 10 134.5t37 150.5t74 165.5t121 178.5
q11 4 29.5 9t41 10t46.5 10t47 10q18 102 68 200t122 175t159.5 124t180.5 47q36 0 74.5 -22.5t72.5 -55t61 -68t40 -62.5zM406 592q-8 20 -15.5 45.5t-12.5 66.5q-39 -69 -79.5 -146.5t-73 -157t-53 -158t-20.5 -150.5q0 -17 5.5 -33t14.5 -29t20 -20.5t21 -7.5
q51 0 113 32.5t129 90t135.5 136t132 171.5t119.5 195.5t97 207.5t65 209t24 199q0 29 -16 51.5t-47 22.5q-52 0 -114.5 -28.5t-117 -88.5t-91 -153.5t-36.5 -223.5q0 -47 6 -90t12.5 -76.5t12.5 -55.5t6 -28q-19 -4 -53.5 -3t-71 5t-68 8.5t-44.5 8.5z" />
    <glyph glyph-name="one" unicode="1" horiz-adv-x="672" 
d="M770 1245q-13 -32 -46 -103.5t-79.5 -167.5t-103 -210t-115 -231.5t-115.5 -231t-106 -209.5t-85.5 -167t-53.5 -103q-9 6 -30.5 20.5t-45.5 31t-45.5 31t-30.5 21.5q93 172 172 343t147 333.5t126.5 314t110.5 284.5q-34 -22 -68 -42.5t-63 -37t-50 -27.5t-29 -15
q-7 4 -21 16t-28.5 25t-25.5 24t-11 13q8 5 31 18t56 32.5t73 44.5t81.5 54.5t82 62t75.5 67.5q22 -20 53 -50t60.5 -59.5l52.5 -52.5t31 -29z" />
    <glyph glyph-name="two" unicode="2" horiz-adv-x="1147" 
d="M1139 1186q5 -8 6.5 -28t1.5 -36q0 -95 -21 -184t-70 -175.5t-129 -172.5t-197 -174.5t-274.5 -182t-362.5 -195.5q74 10 153 26t154.5 33.5t144 36t122 33t88.5 23.5t44 9q4 0 4 -4q0 -5 -9.5 -22t-25.5 -41.5t-36 -53.5t-41 -58.5t-41.5 -57t-35.5 -48.5
q-36 -2 -88.5 -3t-114.5 -2.5t-129.5 -2.5t-133 -2.5t-126 -3t-108.5 -2.5q-9 10 -20.5 27.5t-22.5 38t-21 42t-14 39.5q221 101 389.5 208.5t293 216t208.5 216t135 209.5t72.5 196.5t21.5 176.5q0 8 -1.5 18.5t-5.5 19.5t-10.5 15t-16.5 6q-32 0 -75 -19.5t-91 -53
t-99 -78t-99.5 -93.5t-91 -99.5t-74 -96.5t-49.5 -85t-17 -65q0 -8 0.5 -12t5.5 -4q10 0 39 23.5t66.5 60.5t77.5 83.5t71 92.5q13 -12 33 -31t39.5 -39.5t36.5 -38t24 -24.5q-31 -42 -83 -82.5t-110.5 -71.5t-116.5 -50t-100 -19q-10 0 -25.5 10.5t-33 27t-34.5 36
t-31 37.5t-22.5 32t-8.5 20q0 77 33 154.5t89 149t130.5 134t158 108t170.5 72t168 26.5q20 -2 43 -17.5t47.5 -39t48 -51.5t43.5 -55t34 -49t20 -34z" />
    <glyph glyph-name="three" unicode="3" horiz-adv-x="1014" 
d="M1067 1178q8 -17 8 -45q0 -76 -23.5 -138.5t-64.5 -114t-95 -93t-116 -75t-127.5 -59.5t-128.5 -47q78 -28 126 -44.5t75 -25.5q32 -11 47 -16q14 -6 14 -20q0 -32 -30 -89t-83.5 -125.5t-127.5 -142t-161.5 -138.5t-185.5 -115t-200 -72q-6 4 -20 20.5t-32.5 38.5
t-39 48t-39 49.5t-33 42.5t-20.5 28q48 0 113.5 12.5t138.5 36.5t149.5 58.5t147.5 79.5t131.5 99.5t101.5 117.5q-77 24 -119 38.5t-62 22.5q-24 10 -28 14q-9 4 -22.5 26.5t-26 49.5t-22 52t-9.5 34q99 0 180 29t144.5 76.5t110 108.5t77 125.5t45 127t14.5 113.5
q0 18 -8.5 31.5t-29.5 13.5q-29 0 -76.5 -18.5t-102 -48.5t-110.5 -69t-101 -80.5t-73.5 -82t-28.5 -74.5q0 -14 14 -14q21 0 50.5 18.5t61.5 46t63.5 59.5t56.5 58q10 -8 25.5 -22.5t32 -31t32.5 -33t27 -28.5q-38 -37 -84 -67t-95 -51.5t-98 -33.5t-92 -12h-15.5t-11.5 2
q-15 3 -38.5 22t-46 43t-38.5 47t-16 32q0 56 32.5 112t86 106.5t123 94t143 76t145.5 50.5t132 18q13 -1 33 -15t43 -36t46.5 -49t45 -54.5t39 -53t26.5 -44.5z" />
    <glyph glyph-name="four" unicode="4" horiz-adv-x="1188" 
d="M680 1094q-38 -55 -73 -103.5t-71 -93t-75 -87t-84.5 -85t-100 -87.5t-120.5 -95q105 4 211 13.5t216 23.5q40 97 77 196t72.5 203.5t70 217t67.5 235.5q22 -23 49.5 -52t56 -61t57 -64.5t52.5 -60.5q-56 -135 -121.5 -281.5t-137.5 -297.5q69 11 138.5 22.5t141.5 24.5
l-143 -238q-55 -2 -113.5 -4t-119.5 -4q-78 -161 -154.5 -309.5t-145.5 -276.5q-14 9 -36.5 21.5t-46 25t-42.5 23.5t-26 16q65 133 122 254.5t110 240.5q-110 -2 -206 -4t-164 -4q-19 19 -42 50.5t-43.5 64.5t-36 61t-19.5 39q84 77 162 164.5t148 181t130.5 192
t108.5 196.5q4 8 8 8q8 0 20.5 -16t26 -41t27.5 -55.5t24.5 -60t17.5 -54.5t7 -39z" />
    <glyph glyph-name="five" unicode="5" horiz-adv-x="967" 
d="M1116 1444q4 0 4 -4q0 -5 -10 -21t-26 -39t-37 -50t-43 -53t-43.5 -49t-38.5 -38q-69 0 -124 1t-99.5 3t-81 4.5t-67.5 5.5l-215 -319q117 30 187.5 45t108 21t49 6.5t12.5 0.5q12 0 30 -11.5t37 -29.5t38.5 -39.5t34.5 -41t24.5 -35t9.5 -21.5q0 -93 -36 -191.5
t-98.5 -193.5t-147 -184t-182 -163.5t-202.5 -132t-208 -89.5q-22 24 -49.5 57.5t-53 66t-45 59t-26.5 36.5q78 13 171.5 49t188.5 89.5t186.5 122t165.5 147t124 164t64 173.5q-42 5 -89.5 0.5t-95.5 -15t-93 -24.5t-83 -27t-65.5 -23t-39.5 -13q-9 7 -24 23.5t-30 35.5
t-28 37t-18 27q3 9 18.5 38t40.5 72t58 98t72 117.5t81.5 129t87.5 133.5q77 0 157.5 3t159.5 9t152.5 14.5t136.5 18.5z" />
    <glyph glyph-name="six" unicode="6" horiz-adv-x="942" 
d="M956 1438q-5 -39 -12 -79.5t-15.5 -76.5t-16 -64.5t-11.5 -41.5q-109 -57 -200 -122.5t-166 -135.5t-134.5 -143t-105.5 -146q79 72 153 121t131 79t90.5 43t32.5 13q13 0 31.5 -11.5t38.5 -29t40 -39t36 -42.5t26.5 -38.5t12.5 -26.5q-6 -45 -26.5 -106t-52.5 -129.5
t-75 -141t-94.5 -141t-109.5 -130t-120 -107t-127 -72.5t-130 -27q-12 0 -29 11t-36 28t-37.5 38.5t-35 41.5t-28.5 37.5t-17 26.5q-8 12 -14 32.5t-6 51.5q0 147 37.5 287.5t104.5 269.5t160.5 245t205.5 214.5t238.5 177t260.5 133.5zM692 736q-142 -58 -276.5 -144.5
t-239.5 -198.5q-39 -103 -55.5 -191t-16.5 -153q0 -37 8.5 -54.5t20.5 -17.5q41 0 90.5 34.5t102 92.5t106 134t102 160.5t89.5 171.5t69 166z" />
    <glyph glyph-name="seven" unicode="7" horiz-adv-x="915" 
d="M997 1268q-56 -88 -109 -177t-106.5 -187t-110 -209t-120.5 -242.5t-138 -286.5t-161 -342q-6 2 -27 11.5t-49 24t-59.5 31.5t-60 33t-49.5 30t-27 23q115 166 221 327.5t209.5 319t207.5 313t214 310.5q-71 -9 -136.5 -17.5t-136.5 -17t-154 -18t-190 -20.5
q-2 31 -8.5 70t-13.5 77t-13.5 70t-7.5 49q91 -9 190 -13.5t193.5 -6t178 -2.5t145.5 -3q7 -5 23 -25t34 -43.5t35 -46t26 -32.5z" />
    <glyph glyph-name="eight" unicode="8" horiz-adv-x="979" 
d="M840 1434q18 0 41.5 -12t48.5 -31t49.5 -43t44.5 -49t34 -48t19 -39q0 -5 2 -13t2 -19q0 -96 -38 -168t-101 -130t-144.5 -105.5t-167.5 -94.5q19 -66 39 -129t37 -116t28 -92t11 -56q0 -72 -32 -134t-83.5 -113t-116.5 -90.5t-131.5 -66.5t-127.5 -41t-104 -14
q-26 0 -54 15.5t-54.5 40.5t-50 56.5t-41 64.5t-28 63t-10.5 53q0 99 38.5 176t102.5 140t146.5 116.5t171.5 104.5q-24 77 -41 145t-17 113q0 64 20.5 127.5t57 121t86 106.5t108 84.5t123.5 56t132 20.5zM475 272q0 21 -6 51t-15.5 66t-22.5 77.5t-27 84.5
q-61 -41 -114 -89t-92.5 -106.5t-62 -130t-22.5 -159.5q0 -9 0.5 -24.5t4.5 -31.5t13 -27.5t25 -11.5q29 0 64.5 11t71 31t68.5 48t58.5 61.5t41 71.5t15.5 78zM887 1329q-74 -9 -132 -44.5t-98.5 -85.5t-62 -107.5t-21.5 -110.5q0 -38 7 -85t19 -98q65 44 122 93.5t99 108
t66.5 128t24.5 154.5q0 16 -2.5 31.5t-21.5 15.5z" />
    <glyph glyph-name="nine" unicode="9" horiz-adv-x="942" 
d="M-23 -156q5 39 12.5 79.5t15.5 76.5t15.5 64t12.5 42q109 57 199.5 122t165.5 134.5t134.5 142.5t105.5 146q-80 -72 -153.5 -120.5t-130.5 -78t-90.5 -42.5t-32.5 -13q-13 0 -31 11.5t-38 29t-40 39t-36 42.5t-27 38.5t-12 26.5q6 45 26.5 106t52.5 129.5t75 141
t94.5 141t109.5 130t120 107t127 72.5t130 27q12 0 29 -11t35.5 -28t37.5 -38.5t35 -41.5t28.5 -37.5t17.5 -26.5q8 -12 14 -32.5t6 -51.5q0 -147 -37.5 -287.5t-104.5 -269.5t-160.5 -245t-205.5 -214.5t-239 -177t-261 -133.5zM242 546q70 29 139.5 65t135.5 79
t126.5 92.5t112.5 105.5q40 103 56.5 191t16.5 154q0 37 -8 54.5t-20 17.5q-41 0 -90.5 -34.5t-102 -92.5t-106 -134t-102 -160.5t-89.5 -171.5t-69 -166z" />
    <glyph glyph-name="colon" unicode=":" horiz-adv-x="614" 
d="M346 129q0 -8 -14 -36.5t-32.5 -60t-37 -56.5t-26.5 -25q-5 0 -20 5.5t-34 14t-40 19.5t-38.5 21t-29 18t-11.5 12q0 12 6.5 31.5t16.5 41.5t22.5 44t24 40t20.5 29t13 11q10 0 27.5 -7t37.5 -17.5t40.5 -24t37 -25.5t27 -21.5t10.5 -13.5zM467 539q0 -5 -6.5 -20.5
t-17 -35.5t-23.5 -41.5t-25 -39.5t-22.5 -30t-16.5 -12q-5 0 -19.5 5.5t-34 14.5t-40 19.5t-38 20.5t-29 18.5t-11.5 12.5q0 12 6.5 31.5t16.5 41t22 43.5t23.5 40t21 29t13.5 11q10 0 27.5 -7t37.5 -17.5t40.5 -23.5t37 -25t27 -21.5t10.5 -13.5z" />
    <glyph glyph-name="semicolon" unicode=";" horiz-adv-x="614" 
d="M332 98q0 -35 -21.5 -81t-53.5 -92t-68 -85.5t-64 -62.5q-5 1 -13.5 6.5t-18 12.5t-17 14t-8.5 10q10 9 27 30t32.5 44.5t27 45t11.5 31.5q0 15 -14.5 30.5t-33 29t-35.5 24t-22 15.5q4 20 18 47t30.5 52t32.5 44.5t24 24.5q15 0 43 -13.5t55.5 -34t47.5 -45.5t20 -47z
M467 539q0 -5 -6.5 -20.5t-17 -35.5t-23.5 -41.5t-25 -39.5t-22.5 -30t-16.5 -12q-5 0 -19.5 5.5t-34 14.5t-40 19.5t-38 20.5t-29 18.5t-11.5 12.5q0 12 6.5 31.5t16.5 41t22 43.5t23.5 40t21 29t13.5 11q10 0 27.5 -7t37.5 -17.5t40.5 -23.5t37 -25t27 -21.5t10.5 -13.5z
" />
    <glyph glyph-name="less" unicode="&#x3c;" 
d="M573 682q-37 -13 -92 -31q-48 -16 -121.5 -41t-177.5 -61q75 -35 138.5 -62.5t110.5 -47.5q55 -23 99 -40q-12 -24 -27.5 -49.5t-32 -50t-32 -46t-28.5 -36.5q-14 8 -47 26.5t-74.5 43t-87 50.5t-84.5 48.5t-67 38.5t-34 20q5 22 13 49t19 55.5t23.5 56t26.5 50.5
q1 3 24 13.5t59 25.5t82.5 34t95 38.5t96 38.5t86.5 34.5t65 26.5t33 15q-5 -29 -13 -57.5t-17 -54t-18 -47.5t-18 -40z" />
    <glyph glyph-name="equal" unicode="=" 
d="M604 559q-8 -23 -16.5 -47t-16.5 -45.5t-15.5 -39.5l-12.5 -30q-14 0 -59.5 -0.5t-105.5 -0.5t-126.5 -1t-124.5 -1t-98 -0.5t-47 -0.5q5 11 13.5 29t17.5 37.5t16.5 37t11.5 27.5q7 0 34 1.5t66.5 4t87.5 5.5t97.5 6.5t97 6.5t86 5.5t64 4t30.5 1.5zM688 823
q-8 -23 -16.5 -46.5t-16.5 -45.5t-15.5 -40t-12.5 -29q-15 0 -60 -0.5t-105 -1t-126.5 -1t-124.5 -1t-98 -1t-47 -0.5q5 11 13.5 29t17.5 37.5t16.5 37t11.5 27.5q7 0 34 1.5t66.5 4t87.5 5.5t97.5 6.5t97 6.5t86 5.5t64 4t30.5 1.5z" />
    <glyph glyph-name="greater" unicode="&#x3e;" 
d="M106 465q8 1 31 6t64.5 14.5t102 25t142.5 38.5q-75 35 -133 62.5t-98 47.5q-48 22 -82 39q12 24 27.5 50t32 50.5t32.5 46t29 36.5q14 -8 44 -26.5t68 -43t79 -50.5t76 -49t60 -39t31 -20q-5 -21 -13 -48t-18.5 -55.5t-23.5 -56.5t-27 -51q-2 -3 -25 -13t-60 -25.5
t-84.5 -34t-97 -38t-98 -38.5t-88.5 -34.5t-66.5 -26.5t-33.5 -15q12 29 28 62.5t33 66.5t34.5 64t33.5 55z" />
    <glyph glyph-name="question" unicode="?" horiz-adv-x="1110" 
d="M1196 1171q9 -14 12.5 -29.5t3.5 -29.5q0 -56 -26 -116t-72.5 -120t-110.5 -117.5t-140.5 -107.5t-162 -90.5t-174.5 -66.5q-23 -42 -42 -79t-34 -64q-18 -32 -32 -58q-15 4 -37 13t-44 20t-41.5 22.5t-29.5 20.5q8 20 17 44.5t19 51t19.5 53.5t18.5 51q82 11 163 45
t154.5 83.5t136 110.5t108 125.5t71.5 129t26 121.5q0 30 -4.5 49t-13.5 30t-21.5 15t-27.5 4q-29 0 -79 -13t-111 -48t-127 -96t-126 -158q-7 0 -25.5 10t-42.5 25.5t-51 34t-50.5 36t-40.5 31.5t-21 20q9 11 38.5 38t75.5 61.5t106.5 71.5t132 67t152 49.5t167.5 18.5
q21 0 45.5 -15t50.5 -38.5t51.5 -53t48.5 -58t41 -54t29 -40.5zM397 129q0 -8 -14 -36.5t-32.5 -60t-37 -56.5t-26.5 -25q-5 0 -20 5.5t-34 14t-40 19.5t-38 21t-28.5 18t-11.5 12q0 18 13.5 51.5t31.5 65.5t34.5 56t22.5 24q10 0 27.5 -7t37.5 -17.5t40.5 -24t37 -25.5
t27 -21.5t10.5 -13.5z" />
    <glyph glyph-name="at" unicode="@" horiz-adv-x="1741" 
d="M1108 444q0 -24 12 -36.5t31 -12.5q23 0 54 12.5t63.5 40t64.5 71t57 104.5t40.5 140.5t15.5 180.5q0 78 -27.5 144t-75 115t-111 76.5t-134.5 27.5q-81 0 -171 -31.5t-176.5 -89.5t-165 -140.5t-138.5 -185t-95 -222.5t-35 -253q0 -66 18.5 -132.5t60 -120t107 -87
t159.5 -33.5q51 0 103 14.5t102.5 40t98.5 60t93 74.5l84 -158q-38 -25 -87.5 -54t-111 -54t-135 -41.5t-158.5 -16.5q-100 0 -179.5 23.5t-140.5 63t-104.5 91t-71 108.5t-40.5 115.5t-13 110.5q0 134 39.5 265t109.5 249t166 218.5t209 174t238 115t254 41.5
q121 0 216 -43.5t161 -117t100.5 -169.5t34.5 -200q0 -97 -21.5 -181.5t-58.5 -155t-86 -126t-103 -94t-110 -58.5t-108 -20q-70 0 -115 23.5t-63 67t-7.5 105.5t50.5 140q-33 -35 -85.5 -77t-110.5 -81.5t-115 -71t-99 -45.5q-5 -2 -8 -2h-6q-10 0 -27 10.5t-33 27
t-27.5 37.5t-11.5 42q0 5 6 39t28.5 86.5t67 118.5t120.5 135q39 35 84 66q38 26 87 53t103 43q2 0 3.5 1t4.5 -1q12 -4 28.5 -12.5t32.5 -18.5t29 -19.5t17 -15.5q1 -2 0 -3t-2 -1q-45 -24 -85.5 -53.5t-71.5 -55.5q-36 -31 -67 -61q-72 -72 -100.5 -125t-28.5 -76
q0 -16 15 -16q14 0 35.5 11.5t48.5 31t59 45.5t68 55q31 25 60 54q25 24 51.5 55t45.5 63q3 3 4 2q12 -8 26 -26.5t26 -40t20 -41.5t8 -31q-22 -48 -40.5 -93.5t-31.5 -83.5t-20.5 -65.5t-7.5 -38.5z" />
    <glyph glyph-name="A" unicode="A" horiz-adv-x="1231" 
d="M1292 1278q0 -47 -19.5 -104.5t-51 -118t-73 -121.5t-84.5 -115q26 -26 47 -47.5t30 -28.5q-14 -24 -38.5 -70.5t-52 -105.5t-56 -125t-51.5 -129.5t-37.5 -120t-14.5 -94.5q0 -50 13.5 -93t40 -75.5t66 -54t91.5 -27.5l-49 -65q-12 0 -37 5.5t-56 19t-65 36.5t-64 58.5
t-53 85t-32 116.5q-48 -50 -103.5 -99t-114.5 -88t-119.5 -63t-117.5 -24q-33 0 -67.5 18t-68 47.5t-64 68.5t-54 80.5t-39 82.5t-18.5 76q0 13 0.5 31.5t1.5 38.5t2.5 39t3.5 34q15 89 48 188t80.5 201t107.5 203t130 193t148 170.5t160.5 136t168 90.5t170.5 33
q29 0 62 -15t65.5 -39t62 -54.5t52 -62t36 -61t13.5 -51.5zM250 4q19 0 55.5 22t85 63t105.5 101t115 135.5t114.5 166t105.5 193.5l-118 118q17 18 53 48t80 71t90.5 91.5t85 109t63.5 123t25 134.5q0 39 -15.5 59.5t-27.5 20.5q-59 0 -128.5 -42.5t-142.5 -115
t-146.5 -169.5t-141 -207t-126 -226t-101.5 -227t-68 -211t-25 -176q0 -82 62 -82z" />
    <glyph glyph-name="B" unicode="B" horiz-adv-x="1290" 
d="M1495 1288q0 -48 -38 -106.5t-97.5 -118t-132.5 -116t-144 -101.5q-59 -37 -113.5 -67.5t-102 -57.5t-86.5 -51.5t-68 -49.5q72 -13 128 -25.5t89 -29.5q24 -17 49 -50.5t45 -68.5t32.5 -63.5t12.5 -34.5q0 -44 -22.5 -93t-62 -97.5t-94 -93.5t-119 -81.5t-136.5 -62
t-146 -33.5q-33 27 -64 57.5t-56 57t-42 46t-21 24.5q-36 -56 -73 -102t-73.5 -77.5t-73 -48t-72.5 -14.5q-15 1 -31 11.5t-31 26.5t-28.5 35t-24 36.5t-16.5 32t-6 20.5q0 105 44.5 234t121.5 267t182 276.5t226 262.5q40 144 65 280t27 249q66 -35 106 -68.5t63 -59.5
q26 -31 38 -59q6 -18 6 -51q0 -6 -0.5 -12.5t-1.5 -13.5q140 100 278.5 159.5t265.5 59.5q16 0 37 -12t42.5 -32t43 -44.5t38 -50t26.5 -49t10 -40.5zM548 568q-53 -136 -113.5 -263.5t-126.5 -230.5q114 10 212 33.5t177 62.5t138.5 96t97.5 134q-20 11 -43.5 20t-49.5 16
t-52.5 12.5t-51.5 10.5q-58 10 -120 16q-14 2 -32.5 30t-35.5 63zM704 1043q-17 -62 -37.5 -129.5t-44.5 -139.5q90 73 193.5 138t205.5 132.5t193 144t156 173.5q4 5 3.5 12t-4.5 13.5t-10.5 11t-15.5 4.5q-56 0 -128.5 -26.5t-155.5 -74t-173.5 -114t-181.5 -145.5zM18 20
q9 0 26.5 22.5t41 63t52 98t59.5 127t63.5 149.5t64.5 166q-59 -75 -111 -151.5t-93.5 -152.5t-71 -150.5t-43.5 -144.5q-3 -14 1.5 -20.5t10.5 -6.5z" />
    <glyph glyph-name="C" unicode="C" horiz-adv-x="1120" 
d="M786 893q30 19 63.5 48.5t67 67t64.5 81t54.5 88t37.5 89t14 85.5q0 31 -5 50t-13.5 29.5t-19.5 14.5t-23 4q-48 0 -109 -40.5t-128.5 -110t-138 -162.5t-136.5 -199.5t-124.5 -219.5t-102 -223t-69 -210.5t-25.5 -180.5q0 -30 4.5 -49.5t13 -31t21.5 -15.5t30 -4
q29 0 68.5 24.5t84 63.5t90 87t85.5 94.5t72 86t49 62.5q0 -1 24.5 -21t57.5 -48t66 -56.5t50 -46.5q-24 -27 -61 -69t-83.5 -88.5t-99.5 -93.5t-109 -84.5t-113 -61t-111 -23.5q-39 0 -83 23.5t-87 61t-80 83t-62 90.5q-30 56 -35 103t-5 75q0 77 22 174t63 202.5t99 214.5
t128.5 211t153 192t173 157t187 105.5t195.5 38.5q28 0 59 -14.5t61 -38t58 -54.5t49 -63.5t33.5 -65t12.5 -59.5q0 -60 -24 -132.5t-65 -146t-97.5 -143.5t-120.5 -125z" />
    <glyph glyph-name="D" unicode="D" horiz-adv-x="1415" 
d="M1389 1284q13 -17 22 -35t14 -41t7.5 -52.5t1.5 -68.5q-4 -129 -33.5 -265t-84.5 -266t-134 -249.5t-181 -217t-226.5 -167t-270.5 -100.5q-47 30 -82 58t-60 51.5t-40.5 41t-22.5 26.5q-53 -78 -105 -123.5t-102 -45.5q-24 0 -48 13.5t-45.5 34.5t-40.5 47t-32.5 50
t-21.5 44t-8 30q0 62 19.5 139t54.5 163t84 178t109 184.5t128.5 183t142.5 173.5q28 138 45.5 273t22.5 259q57 -36 103.5 -71t79.5 -64q39 -33 69 -64l-3 -45q95 68 187 106.5t176 38.5q41 0 79.5 -22.5t74 -55.5t66 -71.5t55.5 -69.5zM707 1090q-19 -89 -44.5 -186.5
t-56.5 -196t-66 -196.5t-73 -188t-79 -170t-82 -143q125 19 232.5 67.5t197.5 119t163.5 158t130.5 183.5t99.5 196.5t69.5 196t40.5 182.5t13.5 157q0 21 -5.5 43t-16.5 40t-27.5 29t-38.5 11q-42 0 -94 -22.5t-111 -63t-123 -96t-130 -121.5zM49 18q19 -9 50 36t69 129
t79.5 201.5t81.5 254.5q-64 -89 -118 -174t-93 -160.5t-61 -138t-22 -105.5q0 -34 14 -43z" />
    <glyph glyph-name="E" unicode="E" horiz-adv-x="1126" 
d="M842 973q38 31 74 77t64 97t45 104t17 99q0 37 -17.5 62.5t-63.5 25.5q-39 0 -86 -18t-95 -49.5t-93.5 -75t-80.5 -94.5t-56.5 -107t-21.5 -113q0 -49 12 -84.5t35 -63t55.5 -50.5t74.5 -48q-126 -53 -231.5 -130.5t-181.5 -167.5t-118.5 -185.5t-42.5 -183.5
q0 -31 15 -54.5t47 -23.5q42 0 94 23t108 60t112.5 83t106 92.5t88.5 88.5t62 71q60 -48 104 -85.5t82 -68.5q-17 -23 -56.5 -64t-94 -88t-119 -95.5t-131 -87.5t-131.5 -64t-119 -25q-47 0 -93.5 16t-88.5 42.5t-77.5 61t-62 71.5t-42.5 74t-17 69v24q0 105 37 198
t101.5 171.5t151 142t185.5 110.5q-18 18 -35.5 39t-31 47.5t-21.5 59.5t-8 74q0 70 25 137t67 126t98.5 108t119.5 84.5t129 55.5t128 20q103 0 144 -21q34 -18 73.5 -52t73.5 -74.5t57 -82t23 -74.5q0 -57 -19 -119t-50 -120.5t-71 -110t-81 -86.5z" />
    <glyph glyph-name="F" unicode="F" horiz-adv-x="1511" 
d="M1458 637q2 0 2 -6q0 -10 -11 -36.5t-32 -61.5t-51.5 -74t-69.5 -74q-20 -5 -51 -10.5t-70.5 -10.5t-85.5 -10.5t-96 -10.5q-59 -93 -114.5 -185t-104.5 -178.5t-90.5 -166.5t-71.5 -149q-22 -9 -65 -18.5t-89.5 -18.5t-86.5 -17t-56 -13q94 201 189.5 378.5t195.5 341.5
q-52 -4 -98 -7.5t-81 -5.5t-57 -3.5t-26 -1.5q-6 0 -6 8q0 11 10 32t23.5 42.5t28 38t22.5 18.5q78 7 147.5 15t132.5 17q163 253 334 475t347 433q4 4 4 17q0 6 -3.5 12t-15.5 2q-213 -58 -385 -129t-306 -143.5t-231.5 -141.5t-160.5 -124.5t-93 -91.5t-30 -42
q0 -3 2.5 -8.5t17.5 -5.5q32 0 68.5 9t73 23t70.5 30.5t63 31.5q1 -23 2.5 -53.5t3 -61.5t3 -59.5t1.5 -46.5q-12 -6 -39 -12.5t-65.5 -12t-87 -9t-103.5 -3.5q-6 0 -9.5 1t-6.5 1q-9 1 -26.5 16t-38.5 38t-43 50.5t-40 53t-29.5 47t-11.5 31.5q0 61 45.5 126.5t123 130.5
t179.5 128t215 119t230 103.5t224 81.5t197.5 53.5t149.5 19.5q17 0 39.5 -13t45 -34t44.5 -47t39.5 -52t28.5 -49.5t12 -38.5q0 -6 -20.5 -39.5t-56.5 -88t-85 -128t-107 -160t-122.5 -183t-130.5 -198.5q90 21 154 40.5t106 34.5t63 24.5t23 9.5z" />
    <glyph glyph-name="G" unicode="G" horiz-adv-x="1206" 
d="M1047 537q-6 -7 -27 -52t-50.5 -116t-63.5 -164t-67 -196.5t-61 -212.5t-45 -212q-27 -8 -61.5 -16t-68.5 -15t-62 -11.5t-41 -4.5q18 77 35.5 147t38.5 136.5t46.5 131.5t59.5 134q-38 -49 -80.5 -95t-87 -82t-90 -57.5t-90.5 -21.5q-31 0 -69.5 17t-77.5 46.5t-76 70
t-65.5 87.5t-46 99t-17.5 104q0 86 24 188t67 210t104 217.5t134 210.5t156.5 188.5t173.5 152.5t183 102.5t186 37.5q35 0 68.5 -15.5t63 -39t54 -51.5t41.5 -52q20 -29 36.5 -67t16.5 -76q0 -64 -19.5 -135t-53.5 -141t-80 -135.5t-99 -117.5l-176 164q30 31 72 80
t80 110.5t65 131t27 141.5q0 12 -1 27t-6.5 28t-17 22t-32.5 9q-56 0 -122.5 -42t-137 -113.5t-142 -167t-137.5 -202.5t-123.5 -219.5t-100 -218.5t-67 -199t-24.5 -161q0 -63 15.5 -90t43.5 -27q34 0 77 22.5t89.5 59t93 82t87 92t73 89.5t51.5 73q18 29 31 60t30 63
q38 0 70.5 -1t64 -2.5t62.5 -2.5t66 -2z" />
    <glyph glyph-name="H" unicode="H" horiz-adv-x="1360" 
d="M668 1372q-45 -118 -89.5 -228t-88 -214t-87.5 -204t-89 -197q75 11 152.5 23t144 22t114.5 17t63 10q85 204 163.5 413.5t156.5 427.5l63 -63l65 -65t54 -54.5t31 -32.5q-70 -149 -137 -291t-133 -278q89 22 142 40.5t80.5 29t34.5 12.5t5 -7q-3 -8 -13 -28.5
t-24.5 -46.5t-32.5 -54.5t-35.5 -52.5t-33.5 -40t-27 -17q-21 -4 -49 -8q-24 -4 -59.5 -9.5t-81.5 -12.5q-104 -212 -195.5 -384.5t-165.5 -290.5q-37 30 -70 59.5t-65 40.5q-19 118 -71 256.5t-127 275.5q-71 -150 -145 -297.5t-157 -303.5q-43 35 -82.5 61.5t-66.5 46.5
q44 87 96 198.5t107.5 242t112.5 276t113 300.5t109 315.5t99 320.5q29 -28 59.5 -55.5t60 -54t55 -52t44.5 -47.5zM544 52q89 186 173 379q-147 -19 -341 -39q27 -42 51.5 -88t46 -91t39 -86.5t31.5 -74.5z" />
    <glyph glyph-name="I" unicode="I" horiz-adv-x="1018" 
d="M1128 1384q5 -11 9 -28.5t4 -42.5q0 -62 -18 -138.5t-50 -163t-78 -179.5t-101 -188t-119 -188.5t-133 -180.5q43 -52 91.5 -97t102.5 -80q-33 -25 -62 -39q-39 17 -89.5 53t-104.5 88q-117 -137 -234.5 -237t-232.5 -149q-14 -6 -35 -10.5t-56 -4.5q-28 0 -58 21
t-57.5 50t-49 58.5t-33.5 46.5q-13 19 -21 47t-8 70q0 51 11 104t40 121q12 5 42.5 14.5t67 19.5t72.5 19t60 13q-30 -45 -56 -86.5t-44.5 -83t-29.5 -85t-11 -91.5q0 -20 7.5 -38.5t27.5 -18.5q31 0 78 31t104.5 86t122.5 130t133 162q-38 54 -70 114.5t-55.5 126
t-37 134.5t-13.5 141q0 106 33.5 196t89 163.5t127 129.5t147.5 94t150.5 57.5t136.5 19.5q34 0 51 -13q17 -11 40 -33.5t45.5 -47.5t40 -48.5t23.5 -38.5zM420 797q0 -67 21 -144t59 -156q60 83 117.5 170.5t109 174.5t95 171t75 159.5t49 140t17.5 112.5q0 13 -5 16t-14 3
q-14 0 -58.5 -16.5t-102.5 -51t-122 -87t-117.5 -124.5t-88.5 -164t-35 -204z" />
    <glyph glyph-name="J" unicode="J" horiz-adv-x="1192" 
d="M1149 1319q22 -33 22 -102q0 -65 -19 -144.5t-53 -168.5t-81 -185.5t-104 -193.5q48 -72 70 -163t22 -190q0 -23 -1 -39.5t-1 -26.5q-29 -19 -68 -39q-33 -17 -79.5 -39t-104.5 -44q15 31 28 71.5t22.5 86.5t15 95t5.5 97q0 11 -0.5 21t-1.5 21q-64 -99 -134 -193
t-141.5 -177.5t-143 -153.5t-138.5 -120.5t-128 -78.5t-111 -28q-17 0 -37.5 13.5t-41.5 34t-41 46t-36.5 49t-28 42.5t-14.5 28q-3 8 -8.5 29t-5.5 47q0 86 28.5 178.5t79 180.5t119.5 167t150 138.5t170 94t180 34.5q108 0 191 -34q55 95 102.5 189t81.5 182t53.5 167.5
t19.5 144.5q0 47 -15 68.5t-61 21.5q-32 0 -80 -11t-101.5 -31t-107.5 -49.5t-97 -67t-70 -82t-27 -95.5q0 -27 10 -62t35 -75t68.5 -83.5t111.5 -86.5q-51 -10 -97.5 -17t-84.5 -12t-65 -8t-39 -4q-20 12 -48 37.5t-54.5 64t-45 89.5t-18.5 114q0 97 40 172t103 130
t141.5 92.5t155.5 60.5t144 33t108 10q29 0 58 -15t55.5 -38.5t50 -52.5t42 -56.5t31.5 -50t19 -33.5zM-27 -158q35 0 83.5 27.5t105.5 77t121 117.5t130 149.5t131 173t126 187.5q-5 1 -15 1q-80 0 -162 -35.5t-159 -93t-144.5 -131.5t-118 -151.5t-79.5 -152t-29 -132.5
q0 -15 2 -26t8 -11z" />
    <glyph glyph-name="K" unicode="K" horiz-adv-x="1196" 
d="M731 1372q-87 -226 -170.5 -425t-168.5 -386q79 64 162 136.5t165 150t160.5 159t148 163t127.5 161t100 154.5q25 -18 55 -42t61 -50.5t60 -52t52 -44.5q-97 -104 -196 -201.5t-214.5 -194.5t-254.5 -196.5t-315 -207.5q130 -227 237.5 -393.5t205.5 -284.5
q-10 -4 -42 -19.5t-72 -35t-80.5 -38.5t-65.5 -30q-63 131 -143.5 333t-174.5 481q-80 -173 -164.5 -342t-178.5 -347q-44 35 -85 61.5t-69 46.5q44 87 96 198.5t107.5 242t113 276t113.5 300.5t108.5 315.5t98.5 320.5q29 -28 60.5 -55.5t61.5 -54t56.5 -52t44.5 -47.5z
" />
    <glyph glyph-name="L" unicode="L" horiz-adv-x="1038" 
d="M-152 -63q52 89 110 202.5t118 244t120 275.5t116 297.5t106 310.5t90 314q29 -28 60.5 -55.5t61.5 -54t56.5 -52t44.5 -47.5q-37 -108 -86 -227.5t-104 -243t-113.5 -245.5t-115 -234t-107.5 -209.5t-91 -171.5q60 0 142 -0.5t178 -1.5t202 -3t214 -5q-16 -22 -37 -48
t-44.5 -53.5t-48 -54t-48.5 -49.5q-90 5 -173.5 13t-161.5 18.5t-152.5 21.5t-147.5 22q-11 -20 -17.5 -29t-5.5 -7z" />
    <glyph glyph-name="M" unicode="M" horiz-adv-x="1460" 
d="M1460 1411q-60 -166 -113 -337t-93 -365.5t-64 -420t-25 -499.5q-12 -8 -35.5 -21.5t-52 -29t-59.5 -31.5t-59.5 -31t-51.5 -27t-35 -18q1 75 10 165t24.5 189.5t36 206.5t44.5 216q-72 -97 -137.5 -161.5t-116.5 -103.5q-59 -46 -110 -73q-21 -12 -51 -2t-59.5 30
t-54 44t-34.5 40t-21.5 91t-16.5 215q-43 -56 -93 -118t-101.5 -123.5t-101.5 -119t-93.5 -105t-78 -82t-53.5 -49.5q-10 11 -24.5 25t-30 29.5t-30.5 31t-26 29.5q146 128 296 361.5t286 562.5q15 -13 28 -25t25 -24q8 158 24.5 350.5t47.5 427.5q5 -2 23.5 -19t43.5 -42.5
t53 -55t53.5 -56.5t44.5 -48t26 -29q-2 -8 -9 -43t-16.5 -90t-20.5 -126t-20 -150.5t-15.5 -164t-7.5 -165.5q-1 -34 -1.5 -78.5t-0.5 -91.5t1.5 -92.5t4.5 -82t8.5 -60t14.5 -25.5q11 -3 53 29t101 94t128.5 150.5t134.5 198.5q30 117 60.5 226t59 202t53.5 166.5t45 120.5
q20 -1 45.5 -2.5t51.5 -4t48.5 -5t36.5 -4.5z" />
    <glyph glyph-name="N" unicode="N" horiz-adv-x="1358" 
d="M1335 1223q0 -52 -9 -122.5t-30.5 -162t-58 -204.5t-90.5 -251q-59 -150 -120.5 -265.5t-115 -195.5t-93.5 -124t-56 -52q-26 -12 -57 -12q-26 0 -53 8t-46 25q-12 10 -39.5 51t-58.5 116.5t-60 188.5t-43 269q-43 -56 -94 -120t-104 -127.5t-105.5 -124t-98.5 -110.5
t-82 -86.5t-56 -52.5q-11 10 -25.5 24t-30 29.5t-30 31.5t-25.5 30q146 128 296 361t286 562q17 -14 32 -28t29 -28q4 140 9.5 249t12.5 192.5t13.5 143.5t12.5 102t10.5 68.5t7.5 42.5q10 -9 30 -28.5t45 -43.5t52.5 -50.5t52 -50.5t43 -43t25.5 -28q-13 -50 -29.5 -116.5
t-31 -156t-24.5 -204.5t-10 -262q1 -137 10 -265q4 -55 9.5 -113.5t14 -115t20.5 -108.5t27 -93q125 206 199.5 399t114.5 378t52 364.5t12 358.5v69q52 -40 99 -89t83 -93q42 -51 78 -103v-34z" />
    <glyph glyph-name="O" unicode="O" horiz-adv-x="1274" 
d="M1239 1341q7 -12 15 -23.5t15 -32.5t12 -56t5 -94q0 -124 -29 -246t-79 -237t-118 -220.5t-146.5 -197t-163.5 -166t-169.5 -127.5t-164.5 -82t-148 -29q-27 0 -55.5 13t-56 34t-52 46t-44 49.5t-32.5 44.5t-18 30l-12 24t-13 35.5t-10 53t-4 76.5q0 69 13.5 150.5
t48.5 175.5t95.5 200.5t154.5 224.5q8 -9 24 -26.5t35 -39.5t40 -46.5t39.5 -46.5t31.5 -39.5t18 -26.5q-48 -55 -91 -119t-79.5 -129.5t-66.5 -129.5t-51 -119t-32.5 -98t-11.5 -67q0 -16 6 -30.5t15 -25.5t19 -17.5t18 -6.5q52 0 119 30t140.5 84t150.5 130t149 168
t135.5 197.5t111.5 219.5t75.5 233.5t27.5 238.5q0 36 -8 60.5t-21 40t-29.5 22t-33.5 6.5q-77 0 -137.5 -29.5t-104.5 -74.5t-71 -99t-37 -104q-15 -84 -5 -150.5t28.5 -115.5t37 -79.5t20.5 -43.5q-24 3 -57 5.5t-69 5.5t-71 6.5t-63 8.5q-12 14 -26 40t-25.5 60t-19.5 74
t-8 82q0 80 25.5 150.5t68.5 129t98 104t114 77t117 48t107 16.5q32 0 64.5 -12.5t63.5 -33t59.5 -45t51.5 -49t39.5 -46t24.5 -34.5z" />
    <glyph glyph-name="P" unicode="P" horiz-adv-x="1268" 
d="M1452 1249q0 -72 -25.5 -146.5t-69.5 -147t-103 -139.5t-125 -124t-137 -101.5t-138 -70.5q-11 16 -27.5 38.5t-35.5 47t-38.5 49t-37.5 45.5q143 56 256.5 133t193 161.5t122 171t42.5 161.5q0 10 -3 21t-10 19t-18.5 11.5t-27.5 -0.5q-47 -10 -103.5 -37t-119 -67.5
t-130 -93.5t-136.5 -114q-37 -116 -85 -245.5t-104 -258t-117.5 -249.5t-125 -221.5t-127 -174t-122.5 -105.5q-15 -8 -36.5 -15t-53.5 -10q-12 -1 -28.5 10t-33.5 28t-34 38t-31.5 40t-24 34t-12.5 20q-8 15 -8.5 35.5t4.5 40.5q20 67 56 147t84.5 167.5t108 180t128 184
t144 180.5t155.5 170q51 159 84 301t39 247q40 -16 76 -41t65 -52t51 -54t35 -48q-2 -17 -5 -34.5t-8 -37.5q101 65 198.5 101.5t189.5 36.5q19 0 41.5 -12t45.5 -31.5t44.5 -43.5t38.5 -48.5t27.5 -46t11.5 -35.5v-15zM4 -8q23 0 62 51t87.5 139t102.5 205t107 248
q-79 -94 -146.5 -186t-117 -174.5t-77.5 -152t-28 -118.5q0 -12 10 -12z" />
    <glyph glyph-name="Q" unicode="Q" horiz-adv-x="1274" 
d="M936 1561q32 0 64.5 -12.5t63.5 -33t59.5 -45t51.5 -49t39.5 -46t24.5 -34.5q7 -12 15 -24t15 -33t12 -56t5 -93q0 -140 -36.5 -277.5t-99 -265t-145 -241.5t-175.5 -207q64 -92 137 -175.5t149 -169.5q-59 -3 -139.5 -7.5t-171.5 -4.5q-42 55 -79.5 105.5t-70.5 100.5
q-104 -77 -203.5 -120t-183.5 -43q-28 0 -56.5 13t-55.5 34t-51 46t-43.5 49.5t-33 44.5t-18.5 30t-12 23.5t-13 35t-10 53t-4 77.5q0 69 13.5 150.5t48.5 175.5t95.5 200.5t154.5 224.5q7 -8 19 -21t26.5 -30t31 -36t32.5 -38q6 91 34 178.5t70.5 165t97 143t113 112.5
t117.5 73.5t112 26.5zM602 862q0 -149 27 -271.5t75 -228.5q81 94 154 206t128 235t87.5 254.5t32.5 263.5q0 36 -8 60.5t-21 40t-29.5 22t-33.5 6.5q-61 0 -115 -25.5t-100 -69t-82.5 -101.5t-62 -123t-39 -134.5t-13.5 -134.5zM536 192q-61 118 -95.5 238.5t-44.5 259.5
q-39 -55 -73 -114t-62.5 -117.5t-51 -114t-38 -103t-24 -84t-8.5 -57.5q0 -16 6 -30.5t15 -25.5t19 -17.5t18 -6.5q68 0 156 45.5t183 126.5z" />
    <glyph glyph-name="R" unicode="R" horiz-adv-x="1415" 
d="M1477 1233q0 -102 -36.5 -211.5t-113 -213.5t-195.5 -198t-284 -164q41 -99 84.5 -189t86 -169.5t81 -147t69.5 -120.5q-27 -9 -64 -21t-76 -24.5t-76.5 -24t-65.5 -18.5q-8 22 -23 69t-34 112.5t-41 147t-43.5 172t-41 187t-34.5 192.5q127 44 227.5 99t176.5 116.5
t129 126.5t86.5 128t49 121.5t15.5 107.5q0 19 -3 33.5t-12 23.5t-25.5 11.5t-43.5 -1.5q-47 -10 -103.5 -37t-119 -67.5t-130 -93.5t-136.5 -114q-37 -116 -85 -245.5t-104 -258t-117.5 -249.5t-125 -221.5t-127 -174t-122.5 -105.5q-15 -8 -36.5 -15t-53.5 -10
q-12 -1 -28.5 10t-33.5 28t-34 38t-31.5 40t-24 34t-12.5 20q-8 15 -8.5 35.5t4.5 40.5q20 67 56 147t84.5 167.5t108 180t128 184t144 180.5t155.5 170q51 159 84 301t39 247q40 -16 76 -41t65 -52t51 -54t35 -48q-2 -17 -5 -34.5t-8 -37.5q101 65 198.5 101.5t189.5 36.5
q22 0 48 -12.5t51.5 -33t49.5 -47t42.5 -54t30 -54t12.5 -47.5zM4 -8q23 0 62 51t87.5 139t102.5 205t107 248q-79 -94 -146.5 -186t-117 -174.5t-77.5 -152t-28 -118.5q0 -12 10 -12z" />
    <glyph glyph-name="S" unicode="S" horiz-adv-x="1235" 
d="M1346 1337q1 -2 4 -9.5t6 -17t5.5 -19t2.5 -13.5q0 -34 -14 -81.5t-38.5 -100.5t-57.5 -108t-70 -104.5t-76.5 -90t-77.5 -64.5q-14 13 -33.5 31t-41.5 38.5t-44 41.5t-41 41q29 23 65.5 60.5t74 83.5t73.5 95t62.5 94.5t41.5 82.5t11 59q-3 11 -9.5 15.5t-23.5 4.5
q-61 0 -141 -24t-167 -69.5t-175.5 -111.5t-166 -149t-138 -182t-92.5 -211q70 1 133 5.5t120 9.5t109 9t101 4q26 0 56 -28t56 -67t43 -80t17 -66q0 -71 -36.5 -142.5t-98 -138t-142.5 -124t-170.5 -100t-182.5 -67t-177 -24.5q-11 9 -29 27.5t-38.5 41t-42 47.5t-40 48
t-32.5 42t-19 29q55 -8 132.5 -4t163.5 22t173.5 51.5t163.5 84.5t134 121.5t84 163.5q-58 -1 -105 -5.5t-91 -10t-90 -9.5t-102 -4q-18 0 -39 0.5t-42 3t-40 8.5t-31 17q-27 23 -52 48.5t-45 52t-32 53.5t-12 52q0 76 38 169.5t105.5 188.5t159.5 184.5t200.5 159.5
t228.5 112t243 42q43 0 78.5 -13t64.5 -34t52 -46.5t41 -49.5t31 -44.5t22 -31.5z" />
    <glyph glyph-name="T" unicode="T" horiz-adv-x="1165" 
d="M1524 1270q-49 2 -99 5t-107 6t-125.5 5t-154.5 2q-110 0 -213 -5.5t-204 -20.5t-202 -42t-207 -71q43 -120 69 -235t40.5 -219t19.5 -195t5 -164q0 -69 -3 -121.5t-7 -87.5q-4 -42 -10 -72q48 114 93.5 241.5t86.5 253t76 242.5t61.5 210t43.5 155.5t22 79.5
q22 -18 53.5 -46t63.5 -58t59.5 -57.5t42.5 -45.5q-25 -93 -66 -205t-90.5 -231t-103.5 -238.5t-105 -226.5t-94.5 -195t-71.5 -145q-15 15 -37 41t-45 52.5t-42.5 49.5t-28.5 33q2 12 7.5 41.5t11 74t9.5 103.5t4 131q0 82 -7 176.5t-27.5 196.5t-58.5 210t-99 218
q-1 0 -1 1q-1 1 -1 5q0 10 7 27.5t18.5 38t25 41t25.5 35.5q5 6 48 28.5t118.5 53.5t180 66t231.5 64.5t273.5 48.5t305.5 19q7 -8 22.5 -26.5t35.5 -43t42.5 -53t43.5 -56t38 -52.5t27 -43z" />
    <glyph glyph-name="U" unicode="U" horiz-adv-x="1346" 
d="M678 -74q52 150 102 265.5t93 211.5q-49 -74 -91.5 -130t-74.5 -94q-38 -45 -70 -77q-76 -73 -135.5 -126t-106 -87.5t-81.5 -51.5t-62 -17q-21 0 -44.5 14.5t-46 36t-42.5 45.5t-35 43q-25 32 -28 83t-3 126q0 115 19.5 241t55.5 253.5t87 254t114 243t136 218.5
t153 183q21 -22 48 -50.5t54.5 -58.5t53 -59.5t43.5 -51.5q-85 -77 -159.5 -173.5t-136.5 -206t-111 -228t-82.5 -240t-52 -242.5t-19.5 -234q111 56 204 136t170.5 174.5t141 198.5t115 210t92 209t73.5 194t58.5 166t46.5 125q10 -15 27 -37t36.5 -47.5t40 -51.5t38 -48.5
t30.5 -39t17 -22.5q-54 -139 -97 -261.5t-80 -235t-69.5 -220t-65.5 -218t-69.5 -227t-79.5 -247.5z" />
    <glyph glyph-name="V" unicode="V" horiz-adv-x="1262" 
d="M1329 1251q-33 -176 -104 -341.5t-164.5 -313t-203 -274.5t-219 -226.5t-211.5 -168.5t-181 -101q-11 -5 -19.5 -6.5t-11.5 -1.5q-20 0 -41.5 16t-41 37t-34 42t-20.5 32q-5 8 -10 23.5t-5 35.5q0 52 11 140.5t32 202.5t49.5 248t64.5 277t77 290.5t86 287.5
q15 -16 37 -42t46 -55.5t47.5 -59.5t42 -54t29.5 -39.5l11 -15.5q-54 -158 -100.5 -317t-87 -311.5t-75.5 -294.5t-65 -266q118 72 221.5 171t190.5 215.5t155.5 246t116 262t72.5 263t25 250.5q0 34 -2.5 58.5t-5.5 41.5t-5.5 26.5t-3.5 14.5z" />
    <glyph glyph-name="W" unicode="W" horiz-adv-x="1812" 
d="M903 57v-35.5t1 -26.5q95 67 183.5 164.5t165.5 214t141 247.5t109.5 265.5t70.5 266t25 250.5q0 34 -2 58.5t-5 41.5t-5.5 26.5t-3.5 14.5l297 -293q-31 -176 -96 -341.5t-151 -313t-185.5 -274.5t-200 -226.5t-195 -168.5t-169.5 -101q-10 -5 -18 -6.5t-11 -1.5
q-20 0 -40.5 13.5t-38 32t-31 37t-19.5 29.5q-2 4 -5.5 13t-6.5 20.5t-5.5 23t-2.5 21.5q0 28 1.5 70.5t3.5 94.5q-253 -259 -464 -347q-11 -5 -19.5 -6.5t-11.5 -1.5q-20 0 -41.5 16t-41 37t-34 42t-20.5 32q-5 8 -10 23.5t-5 35.5q0 52 11 140.5t32 202.5t49.5 248
t64.5 277t77 290.5t86 287.5q15 -16 37 -42t46 -55.5t47.5 -59.5t42 -54t29.5 -39.5l11 -15.5q-54 -158 -101.5 -321t-89 -320t-77.5 -303t-66 -270q131 80 250 190.5t215 243.5q9 93 22.5 183.5t31.5 162.5t41 116.5t52 44.5q13 0 37.5 -17t50 -40.5t48 -47t32.5 -36.5
q5 -6 10 -17.5t5 -31.5q0 -48 -9 -88t-26 -76.5t-40.5 -72.5t-51.5 -76q-8 -55 -14 -114q-5 -51 -9 -113t-4 -124z" />
    <glyph glyph-name="X" unicode="X" horiz-adv-x="1085" 
d="M809 -276q-21 -7 -44 -13t-44.5 -10.5t-40.5 -8t-31 -5.5q-59 152 -111.5 306.5t-98.5 312.5q-129 -123 -273.5 -241t-312.5 -235q-11 11 -25 27.5l-28 33t-26.5 31.5t-19.5 23q183 128 339.5 269t291.5 290q-56 209 -98.5 415t-71.5 410q20 -10 50.5 -25.5t64.5 -34
t68.5 -37t63 -34.5t47.5 -26.5t23 -12.5q13 -221 42 -429q181 236 303 464.5t188 425.5q21 -24 51 -62.5t60 -79.5t55 -78t37 -59q-140 -223 -299.5 -438t-354.5 -422q35 -187 82.5 -372.5t112.5 -384.5z" />
    <glyph glyph-name="Y" unicode="Y" horiz-adv-x="1294" 
d="M590 -1004q-32 32 -59.5 61t-54.5 57t-55.5 57t-60.5 61q42 124 90 249.5t107 263.5t132 293t166 339q-46 -68 -85.5 -119t-68.5 -86q-34 -40 -64 -70q-76 -73 -135.5 -126t-106 -87.5t-81.5 -51.5t-62 -17q-21 0 -44.5 14.5t-46 36t-42.5 45.5t-35 43q-25 32 -28 83
t-3 126q0 115 19.5 241t55.5 253.5t87 254t114 243t136 218.5t153 183q21 -22 48 -50.5t54.5 -58.5t53 -59.5t43.5 -51.5q-85 -77 -159.5 -173.5t-136.5 -206t-111 -228t-82.5 -240t-52 -242.5t-19.5 -234q111 56 204 136t170.5 174.5t141 198.5t115 210t92 209t73.5 194
t58.5 166t46.5 125q10 -15 27 -37t36.5 -47.5t40 -51.5t38 -48.5t30.5 -39t17 -22.5q-53 -126 -104.5 -251.5t-105.5 -265t-112 -301.5t-124.5 -363t-143 -449t-166.5 -558z" />
    <glyph glyph-name="Z" unicode="Z" horiz-adv-x="1075" 
d="M1260 1217q-55 -78 -128.5 -162.5t-159.5 -171.5t-180 -174t-189.5 -169t-188 -157.5t-175.5 -139t-153 -113.5t-119 -81q59 2 137 3.5t164 3.5t173.5 5.5t165 9.5t139.5 15t96 23q-25 -32 -55 -74t-61.5 -87t-62.5 -88t-57 -75q-47 3 -125 9.5t-170.5 15t-190 19
t-183.5 21.5q-26 26 -49 54.5t-43.5 56.5t-38 53l-31.5 45q124 109 262.5 232t285.5 264.5t299 305.5t303 356q-68 -15 -139.5 -25.5t-143 -17.5t-141 -11.5t-132.5 -7.5q-23 21 -61 58t-77.5 78t-76 80.5t-56.5 66.5q22 -4 59 -9t92 -9.5t130.5 -7.5t175.5 -3q111 0 191 2
t136 5.5t91 7t56 7t31 5.5t17 2q14 -10 32.5 -29.5t38 -43t38.5 -49t35 -46.5t26.5 -36t12.5 -17z" />
    <glyph glyph-name="bracketleft" unicode="[" horiz-adv-x="860" 
d="M1106 1573q-22 -62 -55.5 -108.5t-71.5 -84.5q-23 1 -77 2t-155 0l-663 -1485q120 6 194 13.5t115 13t55.5 8.5t14.5 0q0 -7 -8.5 -25t-22.5 -40.5t-31.5 -47t-34 -45t-30.5 -33.5t-21 -13q-37 -2 -87 -4.5t-103.5 -4.5t-105.5 -3.5t-92.5 -1.5t-65.5 1.5t-23 5.5
q4 9 26 65.5t57 146.5t80.5 206.5t96 246.5t103.5 266t103 265t94.5 244t78.5 202t55 140t23 58q136 2 270.5 4t280.5 8z" />
    <glyph glyph-name="backslash" unicode="\" horiz-adv-x="1067" 
d="M399 1561q31 -126 68 -270.5t76.5 -297t80.5 -307.5t81.5 -303t78 -283t70.5 -247q-25 -14 -44.5 -23.5t-35 -16t-28 -11.5t-23.5 -9q-49 159 -91.5 298.5t-82 270t-77.5 257.5t-79 261t-86 280.5t-98 316.5q56 26 100 46.5t90 37.5z" />
    <glyph glyph-name="bracketright" unicode="]" horiz-adv-x="860" 
d="M-188 -291q21 62 54.5 109t72.5 84q13 0 26.5 -0.5t36.5 -1t60.5 -0.5t99.5 1l514 1485q-122 -6 -194 -13.5t-110 -13.5t-49.5 -9t-11.5 0q-1 7 8 25t23 40.5t31.5 47t34 45t30.5 33.5t21 13q37 2 86.5 3.5t104 2.5t109.5 1h102.5h83.5h52q-4 -9 -25.5 -65.5
t-56.5 -146.5t-80.5 -206.5t-96 -246.5t-103.5 -266t-103 -265t-94.5 -244t-78.5 -202t-55 -140t-23 -58q-68 -1 -122.5 -1.5t-107.5 -2t-110 -3.5t-129 -5z" />
    <glyph glyph-name="asciicircum" unicode="^" horiz-adv-x="1024" 
d="M930 1047q-29 -9 -56.5 -17.5t-51.5 -15.5t-43.5 -11.5t-30.5 -5.5q-11 22 -25 55.5t-31.5 72t-38.5 80t-45 81.5q-17 -23 -42.5 -58t-53 -74.5t-54.5 -78.5t-48 -69q-19 5 -42 16.5t-45.5 24t-42 25t-30.5 20.5q8 16 27 43t44 59t53.5 67t55 66.5t49 58t35.5 41.5
q15 3 48.5 1.5t71 -4.5t71.5 -7t51 -8q6 -11 21.5 -40.5t34 -67.5t39 -79.5t37.5 -78t28.5 -63t13.5 -33.5z" />
    <glyph glyph-name="underscore" unicode="_" horiz-adv-x="768" 
d="M522 -297q-4 -18 -11.5 -42t-16 -47.5t-17 -43.5t-14.5 -29q-12 0 -67.5 -0.5t-133 -1t-165 -1.5t-163 -1t-127 1t-57.5 3q3 12 10 33.5t15 44.5t16.5 43t13.5 29q6 2 38.5 4t82.5 3t112 2t126.5 1.5t126.5 1t111.5 0.5h82h37.5z" />
    <glyph glyph-name="grave" unicode="`" 
d="M477 715q-23 -11 -43 -17t-49 -14q-15 26 -33.5 59t-38 71.5t-38.5 81.5t-35 89q51 19 92 29.5t61 13.5l84 -313v0z" />
    <glyph glyph-name="a" unicode="a" horiz-adv-x="846" 
d="M516 88q0 -6 6 -6q9 0 30 13t48 33t57.5 45t58.5 49t50.5 44t34.5 31q9 -9 22.5 -24t24.5 -27q-24 -22 -57.5 -53.5t-72 -65.5t-79.5 -67.5t-80 -59.5t-74 -42.5t-61 -16.5q-18 0 -39.5 7t-39.5 19.5t-30 29.5t-12 38q0 8 -0.5 19.5t1.5 30t8 45t18 65.5
q-33 -35 -77.5 -73t-93.5 -72t-98.5 -61.5t-91.5 -41.5q-5 -2 -8 -2h-6q-10 0 -26.5 10t-32.5 26.5t-27.5 37.5t-11.5 42q0 6 6 40t28.5 86.5t66.5 118t120 134.5q39 35 84 66q38 26 87 53t103 43q2 0 3.5 1t4.5 -1q12 -4 28.5 -12.5t33 -18t29 -19t16.5 -15.5q1 -2 0 -3
l-2 -2q-45 -24 -85 -53.5t-71 -55.5q-36 -31 -67 -61q-73 -72 -101 -124.5t-28 -75.5q0 -17 14 -17t35.5 11.5t48.5 31t59.5 46t67.5 55.5q31 25 60 54q25 24 52 55t46 63q0 1 1 2t3 0q11 -8 25 -26.5t26 -40.5t20.5 -42.5t8.5 -31.5q-23 -47 -35.5 -85.5t-19 -67.5
t-8 -49.5t-1.5 -31.5z" />
    <glyph glyph-name="b" unicode="b" horiz-adv-x="735" 
d="M416 109h-14.5t-13.5 2q-33 -35 -70.5 -65.5t-75.5 -53t-74.5 -35t-69.5 -12.5q-31 0 -64.5 22t-61.5 52.5t-46 62.5t-18 51q0 47 11 126.5t39 181t76.5 219.5t123.5 241q99 162 190.5 264t167 160.5t132.5 83t87 31.5q22 0 48.5 -11.5t51 -31t44.5 -44t28 -50.5
q-12 -70 -46.5 -141.5t-85 -144t-115.5 -146.5t-140 -148.5t-156.5 -148.5t-165.5 -148q-15 -50 -27 -96t-20.5 -85t-13 -68.5t-4.5 -47.5q0 -28 4 -37.5t17 -9.5t30.5 10.5t36.5 28.5t39 41.5t38 49.5q-1 7 -1 13v11q0 38 12 75t31 70t42.5 62t47.5 52q12 -9 24.5 -24
t25 -34.5t24 -40.5t22.5 -42q-5 -38 -23.5 -79t-47.5 -82h4q34 0 65 5.5t60.5 19t58.5 36t59 55.5q10 -9 24 -24.5t24 -26.5q-42 -44 -83 -72.5t-82 -45.5t-82.5 -24t-86.5 -7zM362 844q-26 -48 -51 -105t-48 -120q109 106 203 209.5t162 193.5t107 162.5t39 118.5
q0 14 -10 14q-15 0 -51 -21.5t-88.5 -75t-119 -145t-143.5 -231.5z" />
    <glyph glyph-name="c" unicode="c" horiz-adv-x="653" 
d="M39 -74q-18 0 -41 11.5t-47 31t-46.5 46t-37.5 55.5q-6 11 -8 25t-2 36q0 57 17.5 114.5t48.5 109.5t74.5 97.5t94.5 78.5t109 52t118 19q9 0 24.5 -9.5t33.5 -25.5t36.5 -36t33.5 -40.5t24.5 -40t9.5 -34.5q-5 -19 -31 -41.5t-61.5 -42t-74.5 -32.5t-68 -13
q-17 0 -17 10q0 11 15 32.5t33.5 47t33.5 51t15 43.5q0 9 -4.5 15t-12.5 6q-22 0 -46 -20t-48 -53t-46 -75.5t-38.5 -87.5t-26.5 -90t-10 -82q0 -22 13 -30.5t40 -8.5q67 0 129.5 22.5t120 58t109.5 79.5t98 88q11 -13 27 -25.5t24 -21.5q-62 -65 -131.5 -123.5t-146.5 -102
t-161.5 -69t-176.5 -25.5z" />
    <glyph glyph-name="d" unicode="d" horiz-adv-x="911" 
d="M551 111q0 -25 16 -25q19 0 45.5 12t55.5 31.5t59 43.5t56.5 47t47.5 43t33 32q10 -9 24 -23t25 -26q-26 -26 -59 -58t-70.5 -65.5t-78 -65t-80.5 -56t-78 -39.5t-72 -15q-18 0 -44 16.5t-50 40.5t-40.5 50.5t-16.5 47.5q0 46 6 96q-45 -40 -87 -76t-84.5 -67.5t-87 -58
t-94.5 -45.5q-15 -6 -26 -6q-10 0 -26 10t-31 25.5t-26 35t-11 37.5q0 41 15.5 91.5t45 104t72 107t96.5 101t119 86t139 61.5q14 -2 36 -12.5t41 -21.5q36 103 82.5 206.5t99 199t109.5 179t114 148t112.5 104.5t105.5 49q22 0 46.5 -14.5t46.5 -35t37.5 -42.5t19.5 -37
q0 -46 -23 -107t-63.5 -131.5t-96 -147.5t-119.5 -156.5t-134.5 -158.5t-141.5 -153q-30 -102 -47.5 -194.5t-17.5 -167.5zM1053 1335q-17 0 -41.5 -25t-55 -69.5t-64.5 -105.5t-69 -133t-70 -153t-66 -164q75 92 142.5 184.5t118.5 175.5t81 152t30 114q0 6 -0.5 15t-5.5 9
zM104 145q33 0 98 46.5t147 124.5q9 46 22 93.5t29 96.5q-58 -39 -113.5 -89t-98.5 -99t-69.5 -91.5t-26.5 -64.5q0 -17 12 -17z" />
    <glyph glyph-name="e" unicode="e" horiz-adv-x="645" 
d="M647 246q-92 -90 -173.5 -151t-155.5 -98t-141.5 -53t-131.5 -16q-27 0 -60 20t-61.5 48.5t-47.5 59.5t-19 53q0 82 22.5 150.5t59.5 123.5t84.5 97t99 70t102.5 42t94 14q31 0 61.5 -18t55.5 -44t40.5 -54.5t15.5 -49.5q0 -34 -28.5 -69.5t-80.5 -72.5t-125 -75.5
t-161 -77.5q-3 -24 -3 -47q0 -31 13.5 -42t50.5 -11q66 0 124.5 22t112.5 57t104 80t99 91zM295 496q-20 0 -44 -21.5t-48 -56.5t-46 -80.5t-38 -94.5q37 24 72.5 51t63.5 56.5t45 60.5t17 62q0 9 -5.5 16t-16.5 7z" />
    <glyph glyph-name="f" unicode="f" horiz-adv-x="616" 
d="M629 256q-74 -75 -147.5 -134t-149 -104.5t-153.5 -78.5t-160 -56q-40 -118 -83 -251t-90 -285l-262 -86q49 153 96 296t95 278q-32 -5 -64.5 -8t-66.5 -5l-15 102q51 5 96.5 10.5t87.5 10.5q117 329 231.5 595.5t231.5 461.5t239 314t255 152q18 -4 38 -14.5t39 -24.5
t36 -29.5t28 -29.5q5 -5 7 -10.5t2 -18.5q0 -62 -26.5 -136.5t-74 -156t-113 -167.5t-144.5 -170.5t-168 -165t-183 -151.5q-34 -83 -72.5 -183t-81.5 -220q71 19 134.5 45.5t125.5 64t126.5 88t138.5 118.5zM403 815q-11 -20 -27 -51q-14 -26 -33 -66t-43 -95
q70 65 134.5 136.5t120.5 144.5t102 143.5t79 132.5t51 112t18 82q0 14 -10 14q-19 0 -50 -30t-78.5 -96t-112.5 -171t-151 -256z" />
    <glyph glyph-name="g" unicode="g" horiz-adv-x="778" 
d="M782 246q-86 -88 -172.5 -161.5t-171.5 -137.5q-16 -46 -34.5 -93.5t-38.5 -95.5q-29 -66 -67.5 -126.5t-81.5 -112t-88 -93t-86.5 -70.5t-77 -45t-60.5 -16q-17 0 -40 15t-43.5 37.5t-35 49t-14.5 50.5q0 52 35.5 102t98 103t146.5 111.5t182 126.5q22 57 49.5 135.5
t65.5 193.5q-36 -50 -84 -98.5t-99 -86.5t-101.5 -61.5t-92.5 -23.5q-11 0 -28.5 10.5t-35 27.5t-30 40t-12.5 49q0 33 16 79.5t46.5 98.5t74 106t98 101.5t119 85t137.5 57.5q11 0 31 -8.5t39.5 -19t34 -20.5t14.5 -13q0 -2 -3 -5q-2 -1 -3 -1q-23 -14 -59 -39t-76 -56.5
t-80 -67.5t-72.5 -71.5t-52.5 -68t-20 -58.5q0 -9 4.5 -15.5t13.5 -6.5q25 0 56.5 17.5t64.5 45.5t66 62.5t62.5 68t52.5 62.5t36 47q2 2 3.5 4t4.5 4q8 -2 21.5 -20t26.5 -41.5t22.5 -46.5t9.5 -33v-2q0 -1 -2 -7q-11 -35 -28 -98t-43 -145q64 51 128.5 107t128.5 120z
M-111 -571q20 0 57.5 30.5t79.5 78t82.5 105t67.5 111.5q-65 -47 -119 -88.5t-92.5 -80.5t-60 -75.5t-21.5 -72.5q0 -8 6 -8z" />
    <glyph glyph-name="h" unicode="h" horiz-adv-x="862" 
d="M512 84q15 0 40 13t55.5 33t62.5 44.5t61.5 48t52.5 43t35 29.5q9 -9 21.5 -23t23.5 -26q-22 -22 -55 -52.5t-71 -62.5t-79 -63t-80 -56t-73 -40t-57 -15q-19 0 -44.5 9.5t-49 24t-40 32t-16.5 34.5q1 43 16 100t35.5 117t44 118.5t43.5 104.5q-8 -2 -31 -22t-55.5 -54.5
t-71 -83t-76 -108.5t-71.5 -129.5t-57 -146.5q-3 -11 -8.5 -16t-18.5 -5q-9 0 -28 9t-40 21.5t-41 26.5t-32 25q-6 7 -10 13t-4 18q0 66 22 162t60.5 208.5t90 235t110 240.5t122 224.5t125 188t118 131t103.5 52.5q23 -7 46.5 -22t44.5 -33t37.5 -35t25.5 -29q6 -8 8 -19
t2 -16q0 -36 -20 -89t-56 -119t-87.5 -141.5t-114 -155t-135 -160.5t-151.5 -157q-20 -54 -36 -105q54 56 99 94t80 60.5t59.5 32t37.5 9.5q9 0 32 -11.5t48 -27.5t46 -33t26 -28q2 -5 0 -13.5t-4 -13.5q-9 -27 -21.5 -62.5t-27 -75t-28.5 -79.5t-25 -73.5t-18 -59t-7 -35.5
q0 -6 6 -6zM424 944q-24 -51 -46.5 -101.5t-43.5 -101.5q67 86 130 174.5t112.5 170t79.5 150.5t30 116q0 22 -8 22q-12 0 -36.5 -32.5t-58.5 -89.5t-74.5 -136t-84.5 -172z" />
    <glyph glyph-name="i" unicode="i" horiz-adv-x="428" 
d="M18 -55q-15 0 -38 10.5t-44 26t-36 34.5t-15 37q10 44 27 101t36.5 116t41 115.5t39 100.5t30.5 71t17 27q6 0 30 -13t50.5 -31.5t47.5 -39t21 -35.5q0 -3 -1 -7.5t-3 -11.5q-8 -25 -20.5 -59t-26.5 -70.5l-28 -73t-25 -68.5t-18 -56t-7 -35q0 -6 6 -6q11 0 33 13
t50.5 34t59.5 46t59.5 49.5t51.5 44.5t35 30q9 -9 21.5 -23t23.5 -26q-22 -22 -55 -53.5t-71.5 -64.5t-80 -66t-80.5 -59t-73 -42t-58 -16zM414 889q-1 -4 -7.5 -19.5t-15.5 -36t-20.5 -43t-22.5 -41.5t-21 -31.5t-16 -12.5q-18 1 -43.5 11t-49 22.5t-40 24.5t-16.5 17
q0 21 12 54.5t28 65t32.5 54.5t25.5 23q18 0 44 -11.5t50.5 -26.5t42 -29.5t17.5 -20.5z" />
    <glyph glyph-name="j" unicode="j" horiz-adv-x="442" 
d="M451 246q-91 -62 -186.5 -122t-189.5 -120q-17 -52 -37.5 -109.5t-53.5 -134.5q-44 -100 -103.5 -184.5t-123 -146t-125.5 -96.5t-111 -35q-16 0 -37.5 16.5t-41 39t-33 46.5t-13.5 39q0 59 34 120.5t94 124.5t142 127.5t178 130.5q26 74 51 151.5t47.5 151t42 139
t34.5 114.5t25 77.5t13 28.5q6 0 31.5 -15t53 -35.5t49.5 -41t22 -31.5q0 -5 -1 -9t-3 -9q-20 -60 -35 -110t-27 -92.5t-22 -79t-19 -69.5q75 47 150 93t150 94zM371 889q-1 -4 -7.5 -19.5t-15.5 -36t-20.5 -43t-22.5 -41.5t-21 -31.5t-16 -12.5q-18 1 -43.5 11t-49 22.5
t-40 24.5t-16.5 17q0 22 12 56t28.5 65t33 53.5t24.5 22.5q18 0 44 -11.5t50.5 -26.5t42 -29.5t17.5 -20.5zM-242 -274q10 20 19 42t19 46q-64 -48 -117 -97t-91.5 -98t-60 -98.5t-21.5 -100.5q0 -14 11 -14q18 0 48.5 28.5t64.5 74.5t68 103t60 114z" />
    <glyph glyph-name="k" unicode="k" horiz-adv-x="836" 
d="M502 100q16 0 40.5 12t53.5 30.5t59.5 41.5t58 45t49.5 41t34 29q9 -9 21.5 -23t23.5 -26q-22 -22 -55 -53.5t-71.5 -64.5t-80 -66t-81 -59t-73.5 -42t-57 -16q-39 0 -70.5 15.5t-57 40t-47.5 56t-41 64.5q-17 -22 -34.5 -48.5t-32.5 -50.5t-25 -42t-13 -22
q-2 -8 -6 -11.5t-13 -3.5q-15 0 -35.5 11.5t-41.5 30.5t-41.5 41.5t-35.5 45.5q-8 11 -10 25t-2 34q0 66 16 149t45 174.5t69.5 189t89.5 193t106 186.5t118 170t125 142t129 103q10 6 18.5 8t14.5 2q12 0 34 -13.5t46.5 -32.5t46 -38t31.5 -31q6 -9 6 -26q0 -66 -44 -164.5
t-124 -217t-193.5 -251.5t-252.5 -267q-15 -51 -29 -101.5t-26 -101.5q94 135 166.5 213.5t124.5 119t84.5 52t45.5 11.5q12 0 28.5 -12.5t31.5 -29t27 -32t16 -22.5q1 -10 -21 -40.5t-61 -70.5t-92.5 -84.5t-116.5 -82.5q32 -46 55 -72t39 -39q18 -15 31 -19zM395 907
q-30 -60 -61.5 -133t-62.5 -155q111 126 189.5 234t129 195.5t73.5 154.5t23 112q0 3 -0.5 6.5t-5.5 3.5q-12 0 -39 -28t-65 -82t-84.5 -131.5t-96.5 -176.5z" />
    <glyph glyph-name="l" unicode="l" horiz-adv-x="543" 
d="M164 70q16 0 43.5 14t60.5 35.5t69 47.5t67.5 51t56.5 46t37 31q9 -9 21.5 -23t23.5 -26q-22 -22 -55 -53.5t-71.5 -64.5t-80 -66t-81 -59t-73.5 -42t-57 -16q-31 0 -65.5 22t-64.5 51.5t-51 59.5t-24 45q-2 6 -2 14.5v18.5q0 50 12.5 126.5t33.5 162t48.5 170
t57.5 149.5q61 133 125.5 236t126.5 179.5t119 128.5t102.5 84t77 46t43.5 14q19 -7 38.5 -20.5t36.5 -28.5t30 -29.5t19 -21.5q8 -8 10.5 -15.5t2.5 -19.5q0 -24 -12 -66t-45 -106.5t-91.5 -154.5t-152.5 -210q-44 -56 -93 -114q-42 -50 -97 -109t-113 -113
q-29 -110 -40.5 -194t-11.5 -131q0 -31 5 -40t14 -9zM324 803q-17 -38 -31.5 -74t-27.5 -71q31 35 56.5 67t43.5 55q21 27 38 51q70 98 121 180t84 144.5t48.5 104t15.5 59.5q0 5 -0.5 7.5t-5.5 2.5q-9 0 -41 -29.5t-78.5 -93.5t-104 -163.5t-118.5 -239.5z" />
    <glyph glyph-name="m" unicode="m" horiz-adv-x="1161" 
d="M223 483q-12 -31 -24 -64t-23 -67q63 75 104.5 120t69 70t45.5 35t33 15q9 0 30.5 -10t46 -24.5t46.5 -30t31 -25.5q8 -8 2 -23q-12 -32 -23.5 -64.5t-22.5 -66.5q67 77 112 123.5t73.5 71.5t44.5 33t25 8q13 0 39 -13t52.5 -32t46 -39t19.5 -35q0 -3 -1 -7.5t-3 -11.5
q-8 -25 -20.5 -59t-26.5 -70.5l-28 -73t-25 -68.5t-18 -56t-7 -35q0 -6 6 -6q11 0 33 13t50.5 34t59.5 46t59.5 49.5t51.5 44.5t35 30q9 -9 21.5 -23t23.5 -26q-22 -22 -55 -53.5t-71.5 -64.5t-80 -66t-80.5 -59t-73 -42t-58 -16q-15 0 -38 10.5t-44 26t-36 34.5t-15 37
q9 41 24 93t33 106.5t37.5 107.5t37.5 98q-20 -24 -53 -58t-75 -89.5t-90 -137.5t-96 -200q-6 -20 -29 -20q-12 0 -29.5 4.5t-37 14t-40 23.5t-38.5 34q0 7 7.5 42.5t22 90.5t34.5 123t45 140q-24 -26 -60 -66.5t-77 -98t-84 -133.5t-81 -172q-6 -21 -28 -21
q-17 0 -38.5 9.5t-44 25t-45 34.5t-40.5 38q0 6 5.5 34t15.5 70.5t24.5 97t33.5 114.5t42 122.5t49 120.5q42 -20 93.5 -49t94.5 -68z" />
    <glyph glyph-name="n" unicode="n" horiz-adv-x="823" 
d="M236 483q-12 -32 -24 -65t-24 -68q63 72 108.5 117.5t77 71.5t51 35.5t30.5 9.5q13 0 39 -13t52.5 -32t46 -39t19.5 -35q0 -3 -1 -7.5t-3 -11.5q-8 -25 -20.5 -59t-26.5 -70.5l-28 -73t-25 -68.5t-18 -56t-7 -35q0 -6 6 -6q11 0 33 13t50.5 34t59.5 46t59.5 49.5
t51.5 44.5t35 30q10 -9 22 -23t23 -26q-22 -22 -55 -53.5t-71.5 -64.5t-80 -66t-80.5 -59t-73 -42t-57 -16q-15 0 -38 10.5t-44.5 26t-36.5 34.5t-15 37q9 41 24.5 93t33.5 106.5t37.5 108t37.5 98.5l-2 -2q-19 -23 -54.5 -60.5t-80.5 -96t-95 -141t-98 -195.5
q-6 -14 -11 -22t-19 -8q-17 0 -38.5 9.5t-44 25t-45 34.5t-40.5 38q0 6 5.5 34t15.5 70.5t25 97t34 114.5t41.5 122.5t48.5 120.5q42 -20 93.5 -49t95.5 -68z" />
    <glyph glyph-name="o" unicode="o" horiz-adv-x="672" 
d="M74 102q0 -30 22 -30q23 0 61 36.5t79 92.5q-2 11 -2.5 19.5t-0.5 15.5q0 20 4.5 47.5t22.5 62.5q12 27 29 53q14 23 34 49.5t44 49.5l6 6q10 -12 26.5 -32.5t33 -42t29 -39.5t15.5 -25q0 -43 -15.5 -86t-41.5 -85q60 4 111.5 30.5t107.5 86.5q9 -9 23.5 -24.5
t23.5 -26.5q-42 -44 -82.5 -73t-81 -46t-82.5 -24.5t-86 -7.5q-34 -36 -73 -66t-79.5 -52t-80.5 -34t-76 -12q-30 0 -62 18t-58 44.5t-43 56.5t-17 53q0 76 20.5 151t64 140.5t111 115.5t160.5 76q3 2 10.5 3t12.5 1q14 0 29.5 -10.5t29 -23.5t22.5 -25.5t9 -16.5
q-2 -5 -15 -12.5t-35 -25.5t-52 -51.5t-66 -88.5q-54 -81 -73 -146.5t-19 -101.5z" />
    <glyph glyph-name="p" unicode="p" horiz-adv-x="809" 
d="M173 369q54 67 99 110.5t79.5 69t58.5 35.5t36 10q16 0 35 -12t37.5 -29t34.5 -35t27 -29t13.5 -23.5t2.5 -25.5q0 -47 -16 -102.5t-42 -110t-59 -103.5t-67 -83q29 12 59.5 29.5t60.5 37.5t59 41.5t55 42.5q61 48 118 103l45 -49q-33 -31 -73.5 -66t-84.5 -69t-89.5 -65
t-87.5 -55t-78 -38t-62 -14q-18 0 -45 10.5t-52.5 25.5t-44 32.5t-18.5 31.5q0 8 10.5 14.5t30.5 23.5t48 51t63 99q19 36 36 74.5t30 72t20.5 58t7.5 33.5t-2.5 12.5t-4.5 5.5q-4 1 -7 0q-14 -4 -56.5 -44.5t-99.5 -116t-121 -184t-121 -247.5q-47 -134 -94 -271t-92 -273
l-254 -60q58 165 120.5 327.5t124 325t121 325.5t113.5 327q3 11 5.5 15.5t10.5 4.5q16 -5 39 -18.5t45.5 -31t40.5 -35.5t25 -31q2 -3 -0.5 -10.5l-5.5 -16.5z" />
    <glyph glyph-name="q" unicode="q" horiz-adv-x="829" 
d="M829 246q-32 -29 -67 -59q-30 -26 -68.5 -57t-79.5 -60q3 -14 3.5 -30.5t0.5 -33.5q0 -72 -16 -152.5t-43.5 -160t-64 -151.5t-77 -126.5t-84 -86t-83.5 -29.5q-19 1 -47.5 19.5t-57 43t-54 49.5t-38.5 39q-5 6 -8.5 13.5t-3.5 19.5q0 24 16 71t42.5 108.5t60 133t68 146
t67 146.5t57.5 134q-41 -45 -90.5 -92.5t-102.5 -87t-107 -65t-103 -25.5q-11 0 -29.5 12t-36.5 30.5t-31.5 41.5t-13.5 45q0 45 22.5 95t60 100t86.5 98t102.5 88t107.5 70t102 45q10 0 30 -7t40.5 -17t35.5 -20.5t15 -17.5q0 -4 -4 -6q-22 -12 -56 -35.5t-73.5 -53.5
t-79 -65t-71.5 -70t-52 -68t-20 -58q0 -21 18 -21q17 0 43.5 13.5t59 36.5t69 54.5t72 68t68.5 76t59 79.5q2 2 2.5 3t3.5 1q9 0 27.5 -19t36.5 -44t31.5 -48.5t13.5 -33.5q1 -11 -13 -49.5t-37.5 -95.5t-54 -127.5t-62 -145.5t-62 -149t-54.5 -138t-38.5 -113t-14.5 -73
q0 -6 4 -6q29 0 62 37t65.5 95.5t62.5 132t53 145.5t36.5 135.5t13.5 103.5v20q0 12 10.5 19.5t37 25t72 52t115.5 100.5z" />
    <glyph glyph-name="r" unicode="r" horiz-adv-x="633" 
d="M406 414q-13 -39 -32.5 -89t-37.5 -98t-30.5 -87t-12.5 -56q0 -6 6 -6q11 0 33 13t50.5 34t59.5 46t59.5 49.5t51.5 44.5t35 30q9 -9 21.5 -23t23.5 -26q-22 -22 -55 -53.5t-71.5 -64.5t-80 -66t-81 -59t-73.5 -42t-57 -16q-15 0 -38 10.5t-44 26t-36 34.5t-15 37
q15 67 30 117t28 85.5t23 57.5l15 33q-12 5 -23 11l-22 12q-16 -17 -35.5 -36t-39.5 -38t-40 -37t-36 -33l-48 49q26 25 62.5 60.5t71.5 71.5q-25 15 -45 28.5t-34 24.5q-17 12 -30 22q-6 3 -6 13q0 11 8.5 31.5t21.5 44t28 48t29 44.5t24.5 32.5t13.5 12.5q2 0 13.5 -5
t24.5 -11.5t24 -14.5t14 -14q1 -5 2 -21t2 -39q39 -20 80 -45.5t75 -48.5q40 -26 76 -53q13 -8 16.5 -20t0.5 -21z" />
    <glyph glyph-name="s" unicode="s" horiz-adv-x="645" 
d="M-66 276q23 22 52.5 50t59 61t55 71t40.5 82q4 23 12.5 48.5t19 46.5t20.5 35t18 14q12 -7 36 -26.5t48 -41.5t42.5 -40.5t18.5 -22.5q-12 -46 -11.5 -83t6 -73t12 -76.5t6.5 -93.5q0 -32 -10.5 -73.5t-36.5 -74.5q51 30 101 67.5t89 70.5q46 39 88 78l45 -49
q-33 -31 -71.5 -66t-80 -69t-84.5 -65t-85 -55t-81 -38t-73 -14q-29 0 -64 14t-66 34t-54 42t-27 37q0 2 4 8.5t9.5 13.5t11 12.5t8.5 5.5q6 0 24 -9t60 -9q23 0 39.5 12t27.5 32t16 46t5 55q0 42 -4 81.5t-9 76.5q-17 -20 -39 -42t-44.5 -43.5t-45 -42t-40.5 -36.5l-48 49
v0z" />
    <glyph glyph-name="t" unicode="t" horiz-adv-x="469" 
d="M51 -55q-17 0 -44.5 15.5t-53.5 38t-45 46.5t-19 41q0 30 16.5 95t43.5 148.5t61.5 178.5t69.5 186h-141h-1q-1 0 -1 2q0 6 4.5 17.5t11 24t15 23t16.5 13.5l130 6q28 68 53.5 125.5t45.5 98.5q5 11 10.5 23.5t16 25t28 26t47.5 27.5q22 11 53.5 24t62 24t55.5 18.5
t36 7.5q10 0 10 -4v-2q0 -1 -2 -5q-6 -10 -22 -43.5t-39.5 -84t-52 -115t-58.5 -136.5l240 9q10 0 6 -12t-15 -28t-25.5 -33t-24.5 -26q-2 -2 -8 -4t-15 -2h-198q-36 -87 -69 -176t-59 -169t-41.5 -147t-15.5 -110q0 -6 6 -6q11 0 33 12.5t49.5 32.5t58.5 44t59 47.5
t50.5 43t34.5 29.5q9 -9 21.5 -23t23.5 -26q-22 -22 -55 -53.5t-71.5 -64.5t-80 -66t-81 -59t-73.5 -42t-57 -16z" />
    <glyph glyph-name="u" unicode="u" horiz-adv-x="821" 
d="M475 88q0 -6 6 -6q11 0 33.5 13t51.5 33t61 45t61 48.5t52.5 43.5t35.5 30q9 -9 21.5 -23t23.5 -26q-22 -22 -55.5 -53t-73 -64.5t-82 -66t-82.5 -58t-75 -41.5t-58 -16q-17 0 -38 10.5t-39.5 27t-31 36.5t-12.5 38q0 16 12 61t29 105q-45 -61 -88 -107.5t-79 -79.5
t-63 -53.5t-40 -29.5q-8 -5 -19 -7.5t-20 -2.5q-19 0 -42 11.5t-42.5 28.5t-33 38t-13.5 40q0 22 14.5 73t39 122t57.5 159t71 185q2 5 3.5 4.5t5.5 -0.5q19 -3 52 -15.5t64.5 -27.5t54.5 -28.5t23 -18.5q-3 -7 -15.5 -33t-29 -62.5t-35 -79t-34 -81.5t-25.5 -70.5
t-10 -46.5q0 -4 4 -4q8 0 35 21.5t66.5 67.5t89.5 118.5t104 174.5l28 79q3 8 13 8q7 0 30.5 -13.5t50 -31t47.5 -35t23 -24.5q0 -3 -1 -10.5t-3 -12.5q-10 -27 -23 -63.5t-26.5 -76t-26.5 -79.5t-23.5 -74.5t-17 -61t-6.5 -38.5z" />
    <glyph glyph-name="v" unicode="v" horiz-adv-x="713" 
d="M420 104q-42 0 -73 14q-33 -35 -69 -65.5t-71 -54t-69 -37.5t-64 -16q-15 0 -43.5 13t-56 33.5t-48 47t-20.5 53.5q0 66 13 132.5t32.5 131.5t43 127.5t44.5 120.5q51 -23 99.5 -51t90.5 -66q-15 -30 -30 -69t-29 -81t-26 -84t-21 -78t-14 -63.5t-5 -39.5q0 -8 3.5 -14.5
t11.5 -6.5q16 0 35.5 10t41.5 26.5t44.5 39t43.5 47.5q-18 31 -18 62q0 21 6.5 50.5t17.5 61.5t24.5 64.5t28 60.5t28 49t24.5 31q23 -9 48 -24.5t46 -33t34.5 -34t15.5 -27.5q0 -21 -10 -49t-27.5 -60.5t-42 -68t-53.5 -71.5q6 -2 12.5 -3.5t15.5 -1.5q40 0 71 8t59 23.5
t55 38.5t59 53l23.5 -23.5t23.5 -25.5q-42 -42 -79.5 -70.5t-74 -46t-73.5 -25.5t-78 -8z" />
    <glyph glyph-name="w" unicode="w" horiz-adv-x="1081" 
d="M438 -55q-14 0 -37.5 10t-48 26.5t-46.5 38t-31 45.5q-52 -49 -104 -83t-97 -37q-15 0 -43.5 13t-56 33.5t-48 47t-20.5 53.5q0 66 14.5 135.5t36 138.5t46.5 134.5t46 124.5q51 -23 100 -51.5t91 -65.5q-15 -30 -31 -71t-31 -85t-28.5 -89t-23.5 -83t-16 -67t-6 -41
q0 -8 3.5 -14.5t11.5 -6.5q15 0 33.5 11t39 29t42 41.5t42.5 49.5q7 53 21 105t31 103t36 100.5t37 97.5q51 -23 100 -51.5t91 -65.5q-15 -30 -30 -68t-28.5 -78.5t-25.5 -80t-20.5 -74t-13.5 -60.5t-5 -38q0 -8 3 -14.5t11 -6.5q16 0 37 11.5t43.5 31t45.5 45.5t45 54
q-9 31 -9 71q0 32 11 77.5t28 90.5t37.5 83.5t38.5 57.5q23 -8 47.5 -23.5t45.5 -33t34.5 -34.5t15.5 -27q0 -22 -11 -53t-30.5 -67t-46 -75t-57.5 -78q18 -22 61 -22q50 0 100 35.5t115 95.5q10 -9 24 -23.5t23 -25.5q-84 -83 -150.5 -120.5t-129.5 -37.5q-60 0 -99 33
q-33 -35 -67.5 -65.5t-68.5 -53.5t-66.5 -37t-61.5 -16z" />
    <glyph glyph-name="x" unicode="x" horiz-adv-x="836" 
d="M459 84q3 -6 9 -15.5t26 -9.5q11 0 34 14.5t53 37.5t63 50.5t63 54t54 48t36 31.5q9 -9 21.5 -23t23.5 -26q-22 -22 -55.5 -54t-73.5 -66t-83 -68t-83 -61t-75 -43.5t-58 -16.5q-63 0 -110 18t-56 53q-8 28 -15.5 57t-13.5 58l-242 -199q-7 0 -20 6t-25.5 14.5t-22 16
t-9.5 10.5t1 5t3 4l294 247q-14 71 -23.5 127t-16.5 82q-7 -11 -23.5 -35t-39.5 -54t-52.5 -62.5t-62.5 -59.5l-48 49q68 69 109.5 129.5t66 105t36 70t20.5 25.5q20 0 48.5 -4t58 -11t55.5 -16.5t41 -21.5q3 -10 11 -53.5t19 -102.5l232 195q11 8 18 8q6 0 18.5 -7
t25 -16.5t22 -18t8.5 -11.5q0 -2 -4 -6q-3 -3 -28 -24.5t-66.5 -56t-95 -79t-111.5 -92.5q7 -37 13.5 -72t12 -62.5t10 -46t7.5 -22.5z" />
    <glyph glyph-name="y" unicode="y" horiz-adv-x="799" 
d="M805 248q-90 -81 -185 -153t-190 -139q-14 -42 -32 -89t-44 -107q-29 -66 -66 -129t-78.5 -118.5t-85.5 -101.5t-86.5 -79.5t-82 -52t-72.5 -18.5q-16 0 -39 12t-44 30.5t-35.5 39.5t-14.5 39q0 63 34 123.5t93.5 121.5t140 123.5t173.5 128.5q29 77 56.5 160.5
t53.5 165.5q-43 -55 -83 -96t-74 -69.5t-59 -46t-38 -26.5q-8 -5 -19 -7.5t-20 -2.5q-19 0 -42 11.5t-42.5 29t-33 38.5t-13.5 40q0 22 14.5 70.5t39 117.5t57.5 155t71 183q2 5 3.5 4.5t5.5 -0.5q19 -3 52 -15.5t64.5 -27.5t54.5 -28.5t23 -18.5q-3 -7 -15.5 -33t-29 -62.5
t-35 -79t-34 -81.5t-25.5 -70.5t-10 -46.5q0 -4 4 -4q7 0 30.5 18t58.5 57t79 99.5t93 145.5q20 66 33 105.5t17 39.5q6 0 31 -15t53 -35.5t50 -41t22 -31.5q0 -5 -1 -9t-3 -9q-23 -70 -40 -126.5t-30.5 -103.5t-24 -86.5t-20.5 -76.5q75 54 149 110.5t146 118.5zM-123 -629
q18 0 50 34.5t69 88.5t74.5 120.5t66.5 130.5q-38 -32 -85 -70t-88 -83t-69 -96.5t-28 -109.5q0 -15 10 -15z" />
    <glyph glyph-name="z" unicode="z" horiz-adv-x="723" 
d="M725 244q-68 -65 -140 -126.5t-145 -121.5q1 -7 1.5 -14t0.5 -15q0 -76 -31 -156.5t-80.5 -158t-112 -146.5t-124.5 -120.5t-118.5 -82t-94.5 -30.5q-28 2 -54.5 20t-47 41t-33 46.5t-12.5 37.5q0 51 43 112t114.5 129t163 140.5t188.5 146.5q11 44 11 77q0 3 -1 9t-5 12
t-11.5 10.5t-19.5 4.5q-14 0 -27.5 -4.5t-39.5 -13.5q-4 -2 -16.5 4.5t-29.5 16.5t-35.5 22.5t-34.5 23.5t-26 19t-10 10q50 30 95 64.5t79 71t54 73t20 70.5q0 3 -1 12.5t-4 20t-9 18.5t-15 8q-16 0 -36.5 -22t-48 -57.5t-64.5 -79.5t-86 -89l-18 20l-16.5 16.5t-13.5 15.5
q64 60 110.5 120t82 108t62.5 77.5t53 29.5q20 0 50.5 -11.5t62 -28.5t60 -38t44.5 -40q8 -10 9 -29.5t1 -30.5q0 -48 -11.5 -90t-31.5 -78t-46 -66t-54 -55q27 -7 50 -25t39 -46q75 57 142 112t121 107zM-150 -608q28 0 71 34.5t90 91t93 127.5t81 144q-73 -60 -136 -115.5
t-109 -104.5t-72 -91.5t-26 -77.5q0 -8 8 -8z" />
    <glyph glyph-name="braceleft" unicode="{" horiz-adv-x="848" 
d="M991 1401q-95 -22 -171 -73.5t-129 -124.5t-81 -164.5t-28 -192.5q0 -35 3 -71.5t11 -74.5q-38 -4 -74 -7t-72 -6.5t-74 -7.5t-80 -9q63 -32 110.5 -53t79 -34t47.5 -20.5t16 -11.5q-54 -32 -115 -75t-113.5 -104.5t-87 -145t-34.5 -195.5q0 -58 8 -114.5t20.5 -104
t27 -81.5t26.5 -46q-31 -5 -59 -7t-60 -4q-20 28 -44.5 75t-46.5 105.5t-36.5 126t-14.5 138.5q0 56 11.5 112t37.5 109.5t69.5 103t108.5 91.5q-35 16 -57 26.5t-34 17.5q-14 8 -21 13q-11 23 -14.5 54t-3.5 59q0 14 0.5 26.5t3.5 22.5q9 5 42 14q29 8 85 20t157 30
q-22 81 -22 165q0 99 30.5 193t84 173.5t127 140.5t159.5 95q28 -18 77 -63.5t130 -120.5z" />
    <glyph glyph-name="bar" unicode="|" horiz-adv-x="819" 
d="M551 1487q-1 -34 -3 -109t-5 -177t-6.5 -226.5t-7.5 -258t-7.5 -270.5t-7.5 -265t-7 -241t-5 -199t-3 -138.5t-1 -59.5h-179q0 6 -0.5 63.5t-1 151t-1 216.5t-1 260t-1.5 281.5t-1.5 282t-1 260t-1 216t-1 150.5t-0.5 63h242v0z" />
    <glyph glyph-name="braceright" unicode="}" horiz-adv-x="848" 
d="M768 1202q0 -59 -13 -119t-43.5 -118.5t-80 -113.5t-121.5 -103q45 -18 74.5 -29.5t48.5 -19.5q22 -9 35 -13q0 -22 -4 -49t-10 -51.5t-13 -44t-12 -27.5q-30 -8 -65 -15q-30 -6 -70 -13.5t-86 -12.5q8 -31 12 -62.5t4 -58.5q0 -104 -39 -204.5t-101.5 -189.5t-141 -162
t-156.5 -122l-29 29t-21 21.5t-17 17.5t-17 18q62 45 117.5 109.5t97 141.5t66 162.5t24.5 172.5q0 65 -13 127.5t-40 122.5q-4 8 4 8q35 2 60.5 2.5t56 1t74 1.5t115.5 4q-63 32 -108.5 54t-77.5 36q-37 17 -63 28q70 34 126 81.5t94 104.5t58.5 121t20.5 129
q0 81 -32.5 159t-100.5 147q72 30 134.5 55.5t127.5 44.5q23 -28 45.5 -67.5t40 -87.5t28.5 -103t11 -113z" />
    <glyph glyph-name="asciitilde" unicode="~" 
d="M623 516q-18 -13 -41 -30t-48 -32t-52 -25.5t-52 -10.5q-38 0 -70 20t-59 44.5t-50 44.5t-44 20q-23 0 -44.5 -13.5t-40 -31.5t-33.5 -36.5t-26 -29.5q-8 13 -16 34t-15 43t-12.5 40.5t-7.5 26.5q21 24 43 44.5t44 36t44.5 24.5t44.5 9q44 0 76 -19t59 -42.5t51 -42.5
t52 -19q21 0 40.5 10.5t35.5 24.5t28 28.5t19 22.5q28 -40 44.5 -75t29.5 -66z" />
    <glyph glyph-name="nonbreakingspace" unicode="&#xa0;" horiz-adv-x="461" 
 />
    <glyph glyph-name="exclamdown" unicode="&#xa1;" horiz-adv-x="672" 
d="M-193 -412q51 127 106.5 256t110.5 250.5t107.5 231.5t97.5 200q44 -12 82 -37t60 -53q-32 -78 -64 -173.5t-69.5 -221.5t-82.5 -289t-102 -375q-38 16 -79.5 46t-77 62t-60 60.5t-29.5 42.5zM555 784q0 -8 -14 -36.5t-33 -60t-37 -56.5t-27 -25q-8 0 -35.5 12t-58 27
t-54.5 30t-24 21q0 18 13.5 51.5t31.5 65.5t35 56t23 24q10 0 27.5 -7t37.5 -17.5t40.5 -23.5t37 -25t27 -22t10.5 -14z" />
    <glyph glyph-name="cent" unicode="&#xa2;" horiz-adv-x="737" 
d="M686 1145q-22 -63 -57 -150.5t-79 -189.5q15 -15 28.5 -32t24 -33.5t16.5 -31t6 -26.5q-4 -15 -22 -32.5t-43.5 -34t-55.5 -30.5t-59 -23q-29 -65 -57 -129t-56 -126q66 14 131.5 44t114.5 65l40 -66q-75 -56 -157.5 -95t-174.5 -54q-48 -109 -84.5 -194.5t-54.5 -135.5
q-20 3 -37.5 11t-35.5 16l117 295h-9q-18 0 -41 11.5t-47 31t-46.5 45.5t-37.5 55q-6 11 -8 25.5t-2 35.5q0 57 17 113.5t48 108.5t73.5 97t93 78.5t107.5 53t117 20.5q27 70 51 131t42 108t29 77.5t14 38.5q22 -11 45 -30.5t49 -47.5zM197 371q0 -19 8.5 -41t27.5 -30
l183 465q-22 -13 -47 -38.5t-49.5 -58.5t-46.5 -71.5t-39 -78t-27 -77.5t-10 -70z" />
    <glyph glyph-name="sterling" unicode="&#xa3;" horiz-adv-x="1083" 
d="M836 633q-9 -16 -24.5 -36t-32 -38.5t-32.5 -34.5t-26 -24l-231 5q-23 -46 -45.5 -90t-45.5 -85q-57 -103 -114 -178q15 -2 29 -2h28q57 0 103 1t86 3.5t76.5 7t75 11t82 16t97.5 22.5q-51 -67 -91 -117.5t-69 -85.5q-34 -40 -61 -69q-58 6 -117.5 17t-118 24t-114.5 27
t-106 27q-71 -68 -130.5 -94t-103.5 -26q-25 0 -52.5 9.5t-52.5 22.5t-44.5 27t-28.5 23q-11 11 -11 33q0 27 14.5 56.5t37 54t49 41t49.5 16.5q35 0 85.5 -7.5t110.5 -16.5q31 57 68.5 139.5t88.5 197.5q-35 1 -64.5 2t-52 1.5t-36 1.5t-16.5 1q2 19 10.5 47.5t20.5 52.5
q2 1 17 2t40 2t58 2t72 2q44 102 88 202.5t90 192t94.5 169.5t101.5 135.5t111 90t123 32.5q31 0 69.5 -21t72.5 -52t57.5 -67t23.5 -67q0 -32 -6 -70t-18.5 -79t-33.5 -83.5t-51 -82.5l-157 106q24 30 46.5 63.5t39 67.5t26.5 67.5t10 63.5q0 37 -8.5 46.5t-17.5 9.5
q-23 0 -51.5 -29t-61.5 -80t-70 -120t-76 -149t-81 -167.5t-84 -175.5q54 1 103 1.5t87.5 1t63.5 1.5t31 2zM-109 2q47 0 81.5 14t68.5 55q-35 9 -61 14t-43 5q-9 0 -19 -9t-18.5 -21.5t-15 -25.5t-7.5 -20q0 -6 2.5 -9t11.5 -3z" />
    <glyph glyph-name="currency" unicode="&#xa4;" horiz-adv-x="1157" 
d="M942 1061q9 -8 21.5 -21t27 -29t29.5 -33.5t27 -33.5l-195 -172q26 -34 39.5 -74t13.5 -77q0 -43 -9 -79t-25 -67t-37 -57.5t-46 -50.5l140 -207q-12 -12 -30 -23.5t-36.5 -21.5t-35.5 -17.5t-27 -11.5q-10 14 -21.5 30t-26.5 38.5t-35.5 53t-47.5 73.5
q-47 -23 -93.5 -35.5t-93.5 -12.5q-37 0 -74 11.5t-75 40.5l-197 -183q-12 10 -26.5 28t-28 37t-24.5 36.5t-17 27.5q20 20 69 64t117 106q-12 22 -17 52t-5 55q0 80 34.5 150t90.5 128l-156 213q9 6 24.5 15.5t33.5 21t37.5 23.5t37.5 22l146 -207q35 19 75.5 29t85.5 10
q31 0 60.5 -6t64.5 -26q50 45 104.5 89t100.5 91zM618 799q-55 0 -103 -26.5t-83 -68.5t-55.5 -95t-20.5 -107q0 -31 8.5 -58.5t25 -48.5t41.5 -33t58 -12q51 0 98 22t82.5 61t57 92.5t21.5 117.5q0 27 -8.5 54.5t-25 50t-41 37t-55.5 14.5z" />
    <glyph glyph-name="yen" unicode="&#xa5;" horiz-adv-x="1085" 
d="M993 754q-4 -18 -10.5 -38.5t-14.5 -40.5t-16 -37t-14 -26l-248 -4l-63 -61q-3 -11 -6 -20.5t-5 -20.5l291 2q-4 -18 -10.5 -38.5t-14.5 -40.5t-16 -36.5t-14 -25.5l-270 -5l-107 -483q-37 25 -71.5 46.5t-62.5 40t-47 34t-24 29.5q23 68 49.5 150.5t55.5 182.5
q-58 -1 -110.5 -1t-93 1t-65.5 2t-28 3q3 11 9.5 29.5t14 37.5t15 36t12.5 26q4 1 29 2.5t63.5 3t88.5 2.5t106 2q3 6 4.5 13t3.5 13l-18 76h-91.5t-75 0.5t-52.5 1t-23 2.5q3 12 9.5 30.5t14 37.5t15 36t12.5 25q6 2 50 4.5t110 4.5q-21 92 -41.5 188t-38 187.5t-32 175
t-23.5 151.5q20 -10 46.5 -25.5t56 -34t58 -37t52 -34.5t39.5 -26.5t20 -12.5q2 -37 5 -87.5t7 -107t8.5 -116t9.5 -115t9.5 -104t9.5 -82.5q60 78 104.5 149t77.5 137t57 128.5t44.5 124.5t39 124t40.5 127q21 -24 48 -60.5t53 -75.5t47.5 -75t33.5 -57
q-72 -115 -142 -225.5t-149 -212.5h178v0z" />
    <glyph glyph-name="brokenbar" unicode="&#xa6;" horiz-adv-x="819" 
d="M520 1487q-1 -43 -3 -100t-5 -122t-6 -133.5t-5.5 -134.5t-5.5 -126t-4.5 -107t-2.5 -78.5t-1 -40.5h-178q0 8 -0.5 47t-1 97t-1.5 130.5t-2 147.5t-2 147t-1.5 130t-1 96.5t-0.5 46.5h221zM520 442q-2 -57 -5 -138.5t-7 -171t-7.5 -179.5t-7 -164t-5.5 -125t-1 -63h-178
q0 8 -0.5 47t-1 97t-1.5 130t-2 147t-2 147t-1.5 130t-1 96.5t-0.5 46.5h221z" />
    <glyph glyph-name="section" unicode="&#xa7;" horiz-adv-x="872" 
d="M686 678q6 -53 -6 -103.5t-37.5 -94t-64 -78t-85.5 -56.5q15 -28 25.5 -59t13.5 -66q7 -73 -15.5 -138t-66.5 -116t-105.5 -83.5t-131.5 -39.5q-23 -2 -48 12.5t-48 36.5t-41.5 45.5t-28.5 38.5q-9 16 -12.5 27.5t-5.5 22.5q-2 22 -4.5 48t-2 55t5.5 62t17 70l156 -80
q-12 -23 -22 -51t-17 -55.5t-10 -51t-2 -36.5q3 -20 13 -29.5t32 -7.5q48 4 80 27.5t50.5 56.5t25 71t3.5 72q-3 35 -18.5 66.5t-37 63t-46 64t-46.5 69.5t-38.5 79.5t-22.5 93.5q-5 54 6.5 104t37.5 93t64 77.5t85 56.5q-15 29 -25.5 60t-13.5 66q-7 73 15.5 138.5
t66.5 116.5t105 83t132 39q23 2 48.5 -12.5t48 -36.5t41 -45.5t28.5 -38.5q10 -16 13.5 -27t5.5 -22q2 -23 4.5 -48.5t1.5 -55t-6 -62.5t-17 -70l-155 80q12 23 22 51.5t16.5 56t10 51t2.5 36.5q-3 20 -13 29t-32 7q-48 -5 -80.5 -28t-51 -56t-25 -71t-3.5 -72
q4 -35 19.5 -66.5t36.5 -63t45.5 -64t46.5 -69.5t38.5 -79.5t22.5 -93.5zM498 668q-3 24 -12 46.5t-22.5 45t-30.5 45t-34 45.5q-38 -25 -56.5 -81t-8.5 -144q5 -48 34 -92t64 -92q38 26 56.5 82t9.5 145z" />
    <glyph glyph-name="dieresis" unicode="&#xa8;" 
d="M385 883q0 -6 -12 -30.5t-27.5 -51t-30.5 -47.5t-22 -21t-31 10t-49.5 23t-45.5 25.5t-20 17.5q0 15 11.5 43t26.5 55.5t29 47.5t19 20q13 0 38.5 -12.5t50.5 -28.5t44 -31t19 -20zM672 862q0 -6 -12 -30t-27.5 -50.5t-30.5 -47.5t-22 -21t-31 9.5t-49.5 22.5t-45.5 25.5
t-20 17.5q0 15 11.5 43t26.5 55.5t29 47.5t19 20q13 0 38.5 -12.5t50.5 -28t44 -30.5t19 -21z" />
    <glyph glyph-name="copyright" unicode="&#xa9;" horiz-adv-x="1843" 
d="M999 1464q91 0 179 -19.5t167 -59t145.5 -98t115 -136.5t75.5 -175.5t27 -213.5q0 -109 -30.5 -213t-86.5 -196t-134.5 -169t-174.5 -132.5t-207 -86.5t-231 -31q-76 0 -158 16t-161 50t-150 86t-125 125t-85.5 166.5t-31.5 210.5q0 148 36.5 270.5t99.5 220t147.5 169.5
t180.5 120t199 72t203 24zM360 567q0 -128 37.5 -225t104 -162t159 -98t203.5 -33q95 0 178.5 33t153.5 90t124.5 132.5t92.5 160t58 173t20 171.5q0 123 -35.5 224.5t-101.5 174t-160 112.5t-211 40q-94 0 -176.5 -30.5t-151.5 -84.5t-124 -128.5t-93 -162.5t-58 -186.5
t-20 -200.5zM1006 809q15 15 30 39.5t26 53t18 57.5t7 55q0 25 -7.5 39t-16.5 14q-27 0 -57 -26.5t-60 -71.5t-57 -104.5t-48 -124t-33.5 -130.5t-12.5 -125q0 -43 3.5 -70.5t10 -43t15 -21.5t18.5 -6q22 0 43.5 27t40 64.5t34 77t25.5 64.5q2 -2 27 -8.5t57.5 -14.5t64 -17
t46.5 -15q-15 -29 -34 -62t-41.5 -66t-49 -63t-57 -53t-64.5 -37t-72 -14q-21 0 -52 8t-64 22t-62 32.5t-45 38.5q-31 38 -41 83.5t-10 96.5q0 56 12 127.5t36 146t60 146t84 127t108.5 89.5t133.5 34q28 0 67 -16t75.5 -38.5t64 -47t33.5 -42.5q5 -15 6.5 -30.5t1.5 -32.5
q0 -57 -22 -114t-56 -105z" />
    <glyph glyph-name="ordfeminine" unicode="&#xaa;" horiz-adv-x="719" 
d="M870 995q-27 -23 -58 -45.5t-61 -40t-56 -28.5t-44 -11q-15 0 -33 6t-33.5 16.5t-25.5 25t-10 32.5q0 8 -0.5 18t1 25.5t6 38t15.5 55.5q-28 -30 -66 -62t-79.5 -61.5t-83.5 -52.5t-78 -34q-4 -3 -12 -3q-9 0 -23 9t-27.5 23t-23.5 31.5t-10 35.5q0 4 5 33t24.5 74
t56.5 101t102 115q33 30 72 56q33 23 75 45.5t87 36.5q2 0 3.5 1t4.5 -1q9 -3 23.5 -10.5t28 -16t24.5 -16.5t14 -13q1 -2 0 -3t-2 -1q-38 -20 -72.5 -44.5t-60.5 -47.5q-31 -26 -57 -53q-62 -62 -85.5 -106t-23.5 -64q0 -6 2 -10.5t10 -4.5q12 0 30 10t41 27t50.5 39.5
t57.5 46.5l16 13.5t37.5 35t45 47.5t38.5 52q10 -6 22 -22t22.5 -34.5t17.5 -36t7 -26.5q-19 -40 -30 -72.5t-16.5 -58t-7 -42.5t-1.5 -26q0 -6 6 -6q3 0 13.5 4t24 10t27.5 13t23 14zM692 786q-21 -48 -41.5 -77.5t-34.5 -51.5q-13 -1 -52.5 -1t-92.5 -0.5t-112 -0.5h-111
h-89.5h-47.5q14 25 32 56.5t35 68.5q5 -1 43 -0.5t92 1t116.5 1t118 1.5t95.5 1.5t49 1.5z" />
    <glyph glyph-name="guillemotleft" unicode="&#xab;" horiz-adv-x="950" 
d="M403 471q-37 -20 -79 -41q-36 -19 -83.5 -42t-99.5 -48q38 -32 78.5 -61t74.5 -51q40 -26 77 -48q-10 -19 -22.5 -39.5t-26 -40t-26 -36.5t-22.5 -29q-22 17 -57.5 48t-72.5 65.5t-69.5 67t-49.5 50.5q8 34 18.5 78t30.5 90q1 3 28 20t67 41.5t87.5 52.5t90 52.5t73 42
t37.5 21.5q-4 -23 -10.5 -50.5t-14 -54t-15.5 -50t-14 -38.5zM780 471q-38 -20 -80 -41q-36 -19 -83.5 -42t-98.5 -48q38 -32 78 -61t74 -51q40 -26 78 -48q-10 -19 -22.5 -39.5t-26 -40t-26 -36.5t-22.5 -29q-15 11 -36 29t-45 40t-49 45t-48 45t-42 41t-30 31q8 34 19 78
t31 90q1 3 28 20t67 41.5t87.5 52.5t90 52.5t73 42t37.5 21.5q-4 -23 -10.5 -50.5t-14 -54t-15.5 -50t-14 -38.5z" />
    <glyph glyph-name="logicalnot" unicode="&#xac;" 
d="M664 721q-20 -49 -41 -102.5t-41.5 -108.5t-41 -108.5t-40.5 -102.5q-11 3 -28 6.5t-35.5 7.5t-35 7t-26.5 6q13 33 24.5 68t21.5 68.5t18.5 64t15.5 53.5h-84.5t-88.5 -0.5t-85 -0.5t-73 -0.5t-53.5 -0.5h-25.5q5 10 15 31.5t21 44.5t20.5 44t13.5 31h48.5t94 -0.5
t118 -0.5t121 -0.5t101.5 -0.5h61q8 0 5 -6z" />
    <glyph glyph-name="uni00AD" unicode="&#xad;" horiz-adv-x="922" 
d="M672 522q-4 -18 -11.5 -48t-16.5 -61.5t-18.5 -58t-15.5 -35.5q-12 0 -53.5 -0.5t-97.5 -1t-119 -1.5t-117 -1t-91.5 1t-43.5 3q3 12 8.5 35t12.5 48t14 47t12 30q8 3 48.5 7.5t98 9.5t123 9.5t122.5 8t97.5 6t47.5 2.5z" />
    <glyph glyph-name="registered" unicode="&#xae;" horiz-adv-x="1026" 
d="M651 1434q75 0 144.5 -24.5t123.5 -73t86.5 -120.5t32.5 -167q0 -90 -37 -172t-100.5 -144.5t-150 -99.5t-185.5 -37q-62 0 -130.5 19.5t-126 62.5t-95 110.5t-37.5 163.5q0 122 43.5 212.5t112 150.5t153 89.5t166.5 29.5zM303 938q0 -67 21.5 -116t59 -81.5t88 -48.5
t108.5 -16q75 0 137.5 36.5t107.5 93.5t70 126.5t25 134.5q0 64 -20 115.5t-57 88.5t-88 57t-112 20q-75 0 -137.5 -34t-107.5 -90.5t-70 -130.5t-25 -155zM827 1182q0 -58 -37.5 -110t-124.5 -89q22 -52 45.5 -96.5t39.5 -71.5q-8 -2 -24.5 -5.5t-34.5 -6.5t-34.5 -6.5
t-23.5 -5.5q-3 8 -9 27.5t-13.5 46t-16 58t-14.5 64.5q-15 -35 -30.5 -67t-32 -58.5t-33 -46t-31.5 -27.5q-3 -2 -9 -4t-14 -2q-5 -1 -18 9.5t-27.5 24t-26 26t-12.5 14.5q-8 16 -6 30.5t4 20.5q9 30 28 66t46 74t60.5 74t71.5 66q8 30 11.5 57t5.5 48q9 -3 21 -8.5
t24.5 -11.5t23.5 -12t18 -11q43 17 85 17q9 0 23.5 -10.5t29 -24.5t25 -28t10.5 -21zM648 1177q-8 -31 -21 -68.5t-28 -76.5q40 18 65.5 40.5t39 44t18.5 39t5 26.5q0 28 -10 28q-12 0 -29.5 -9t-39.5 -24zM410 879q10 0 22.5 14t25.5 38t26.5 55.5t25.5 66.5
q-22 -24 -41.5 -48.5t-34 -46t-23 -40.5t-8.5 -32q0 -2 1.5 -4.5t5.5 -2.5z" />
    <glyph glyph-name="macron" unicode="&#xaf;" 
d="M659 909q-21 -48 -41 -77.5t-34 -51.5q-13 -1 -47 -1t-77.5 -0.5t-92.5 -0.5h-91.5h-74h-41.5q14 25 32 56.5t35 68.5h37t77 0.5t97 1t98.5 1.5t80 1.5t42.5 1.5z" />
    <glyph glyph-name="degree" unicode="&#xb0;" horiz-adv-x="512" 
d="M764 1212q0 -65 -30.5 -124t-78.5 -103t-108 -70t-119 -26q-32 0 -69.5 17t-69.5 45t-54 63.5t-22 72.5q0 64 24 126t67.5 111t104 79.5t132.5 30.5q30 0 68.5 -19.5t73 -51t58 -71t23.5 -80.5zM598 1335q-32 0 -66 -26t-63 -67t-47.5 -93.5t-18.5 -104.5
q0 -17 4.5 -26.5t24.5 -9.5q34 0 69.5 22.5t64.5 60.5t48 87.5t19 103.5q0 26 -10 39.5t-25 13.5z" />
    <glyph glyph-name="plusminus" unicode="&#xb1;" 
d="M487 793q-15 -41 -31.5 -82t-34.5 -83q39 3 73.5 5t61.5 4t44.5 3t22.5 1q-8 -23 -16.5 -47t-17 -45.5t-16 -39.5l-12.5 -30h-29h-48t-62.5 -0.5t-71.5 -0.5q-33 -68 -67 -128t-66 -108q-22 6 -52 13.5l-50 12.5q14 29 33.5 83.5t42.5 124.5l-191 -1q5 11 13.5 29
t17.5 37.5t16.5 37t11.5 27.5q11 0 60 2.5t116 7.5q20 66 38.5 134t33.5 133q15 -5 41 -17t53.5 -26t51 -27t34.5 -20zM500 190q-8 -23 -16.5 -46.5t-17 -45.5t-15.5 -40t-13 -29q-14 0 -59 -0.5t-105 -0.5t-127 -1t-124.5 -1t-98 -0.5t-47.5 -0.5q5 10 13.5 28t17.5 37.5
t17 37.5t12 28q7 0 34 1.5t66 4t87 5.5t98 6t97.5 6t86 5.5t64 4t30.5 1.5z" />
    <glyph glyph-name="twosuperior" unicode="&#xb2;" horiz-adv-x="774" 
d="M911 1284q3 -5 5 -17.5t2 -21.5q0 -84 -32 -161.5t-108.5 -154t-205.5 -156t-322 -168.5q73 11 148 26.5t137 30t104.5 24.5t50.5 10q2 0 2 -2q0 -5 -15.5 -27.5t-37 -51.5t-44.5 -58.5t-38 -48.5q-24 -1 -61.5 -2t-81.5 -1.5t-92.5 -1.5t-95 -1.5t-89.5 -1.5t-76 -2
q-6 6 -14 18t-15.5 26t-14 28.5t-9.5 25.5q224 93 369.5 190t230 191t117.5 181.5t33 162.5q0 11 -5.5 24t-19.5 13q-29 0 -69 -18.5t-83.5 -48t-86.5 -66t-76.5 -73t-54 -69t-19.5 -53.5q0 -10 4 -10q7 0 26 12t42.5 32.5t49 46.5t46.5 54q9 -7 23 -19.5t28 -26t26 -25.5
l17 -17q-21 -25 -56 -49.5t-74.5 -43.5t-79 -30.5t-68.5 -11.5q-10 0 -31 13.5t-42 31t-36.5 33t-15.5 20.5q0 47 23 94.5t62 91.5t91.5 82t111 66t120.5 44t120 16q20 -2 48.5 -21.5t56 -44.5t49 -49t26.5 -35z" />
    <glyph glyph-name="threesuperior" unicode="&#xb3;" horiz-adv-x="682" 
d="M881 1280q6 -12 6 -29q0 -69 -34.5 -120.5t-89 -89.5t-121.5 -65t-131 -46q52 -17 84 -26.5t51 -14.5q21 -6 32 -8q10 -5 10 -15q0 -19 -22 -54t-60.5 -76.5t-91 -86t-114 -84t-129 -70t-136.5 -44.5q-4 3 -14.5 14.5t-25 27.5t-30 34t-30 34.5t-25 29.5t-14.5 19
q32 0 76 6t94 18t103 30.5t102 43t91.5 55t71.5 67.5q-48 14 -75 22t-40 13q-15 5 -18 7q-5 3 -14.5 18t-19 33t-16.5 34.5t-7 21.5q100 0 173 36t120 89t69.5 112.5t22.5 106.5q0 11 -5 20t-19 9q-19 0 -51 -10.5t-68 -28t-72.5 -40t-66 -45.5t-48 -44.5t-18.5 -38.5
q0 -5 2.5 -5.5t7.5 -0.5q14 0 32.5 9.5t38.5 23.5t39.5 31.5t35.5 33.5q7 -5 18 -14t22 -19t21.5 -20t17.5 -17q-25 -23 -56.5 -41.5t-64.5 -31.5t-66 -20t-62 -7h-37q-11 1 -27 13t-31 26.5t-25.5 28.5t-10.5 20q0 34 21.5 67.5t57.5 64.5t83.5 58t99 46.5t104.5 31
t100 11.5q13 -2 39 -19.5t54 -41.5t52.5 -49.5t33.5 -43.5z" />
    <glyph glyph-name="acute" unicode="&#xb4;" 
d="M541 930q-56 -69 -121 -131t-131 -115q-5 3 -15.5 11t-21.5 18t-21 18.5t-14 13.5q25 31 56 73t60 83.5t52 76t33 52.5q21 -10 40.5 -25.5t36 -30.5t28.5 -27.5t18 -16.5z" />
    <glyph glyph-name="micro" unicode="&#xb5;" horiz-adv-x="788" 
d="M686 123q-39 -32 -80.5 -63.5t-80.5 -56.5t-73 -40.5t-57 -15.5q-17 0 -38 10.5t-39.5 27t-31 36.5t-12.5 38q0 16 11 59.5t28 100.5q-77 -120 -129 -182.5t-78 -81.5q-8 -5 -18.5 -7.5t-19.5 -2.5t-18 6.5t-17.5 18t-15 26t-9.5 29.5q-42 -134 -71.5 -246t-55.5 -193
l-219 -59q51 144 98.5 276t94.5 261.5t96.5 261.5t105.5 276q2 5 3.5 4.5t5.5 -0.5q18 -3 47.5 -14t58 -24.5t50 -26.5t24.5 -19q-4 -7 -15.5 -33.5t-26.5 -63.5t-31.5 -80.5t-30 -83t-22.5 -71.5t-9 -47q0 -4 4 -4q8 0 34.5 21t66.5 67t89.5 118t104.5 173q9 31 17 52
t11 30q3 8 13 8q7 0 30.5 -13.5t50 -31t47.5 -35t23 -24.5q0 -3 -1 -10.5t-3 -12.5q-10 -27 -23 -63.5t-26.5 -76t-26.5 -79.5t-23.5 -74.5t-17 -61t-6.5 -38.5q0 -6 6 -6q9 0 25.5 8.5t38 22.5t46 32.5t50.5 38.5z" />
    <glyph glyph-name="paragraph" unicode="&#xb6;" horiz-adv-x="1331" 
d="M1118 1348q-22 -2 -43 -4.5t-42 -5.5q-17 -77 -39 -172t-47 -199.5t-52.5 -214t-54.5 -217t-52.5 -208t-47 -186.5t-38 -153.5t-26.5 -108.5q-32 2 -61.5 12t-51.5 19q7 28 23.5 99.5t40 173.5t51.5 227.5t57 261.5q-61 -23 -132 -36t-140 -13q-64 0 -112.5 12t-84 31.5
t-59.5 44.5t-38 51t-20 51.5t-6 46.5q0 75 42.5 147t117.5 136.5t179 118.5t227 93t261 61t281 22h49q-15 -76 -37 -173.5t-48.5 -208t-55.5 -228.5t-58 -234l-56.5 -226t-51.5 -204t-42.5 -168t-28.5 -117q-32 2 -61.5 12t-51.5 19q5 22 17 73.5t29 125.5t38 167
t43.5 197.5t47 217t48 225.5t45.5 222.5t41 209.5zM475 866q0 -57 26.5 -82.5t68.5 -29t93 9t99 32.5q27 130 53 257.5t49 245.5q-94 -31 -166.5 -76.5t-122 -102t-75 -121t-25.5 -133.5z" />
    <glyph glyph-name="periodcentered" unicode="&#xb7;" horiz-adv-x="512" 
d="M336 535q0 -5 -6.5 -20.5t-17 -35.5t-23.5 -41.5t-25 -39.5t-22.5 -30t-16.5 -12q-8 0 -35.5 12t-58 27t-54.5 30t-24 21q0 19 13.5 52t31.5 65t35 56t23 24q10 0 27.5 -7t37.5 -17.5t40.5 -23.5t37 -25t27 -21.5t10.5 -13.5z" />
    <glyph glyph-name="cedilla" unicode="&#xb8;" 
d="M301 -176q0 -32 -12 -68.5t-43.5 -69t-86 -58t-139.5 -36.5q-7 8 -13 23.5t-11 33.5t-10 34.5t-9 27.5q26 3 62.5 10t69.5 19t56 29.5t23 42.5q0 1 -1.5 5.5t-6.5 9t-14.5 8t-24.5 3.5q-22 0 -40 -2t-31 -3.5t-20 -2t-7 3.5q9 21 21.5 47t24.5 52.5t22.5 51t17.5 44.5h82
l-61 -138q18 5 32 8t39 3q11 0 24 -7t24.5 -18t20.5 -25t11 -28z" />
    <glyph glyph-name="onesuperior" unicode="&#xb9;" horiz-adv-x="442" 
d="M645 1305q-8 -20 -30.5 -64t-54 -102.5t-69.5 -128t-77.5 -141.5t-78 -141t-71.5 -127.5t-58 -102t-36 -62.5q-6 4 -24 15t-38 23t-38 23t-25 15q63 105 115.5 206.5t97 197.5t82 185.5t71.5 169.5q-22 -13 -43 -25t-39 -22t-31 -16.5l-19 -9.5q-4 2 -13.5 12t-19 21.5
t-16.5 21t-7 11.5l38 19t69.5 38t83 52t78.5 61q15 -12 39 -32t47.5 -40.5t42.5 -36.5t24 -20z" />
    <glyph glyph-name="ordmasculine" unicode="&#xba;" horiz-adv-x="571" 
d="M371 1006q0 -25 18 -25q14 0 36.5 18t47.5 48t50.5 68t46 77.5t33.5 77t13 67.5q0 9 9 11q9 -10 23 -27.5t27.5 -36t24.5 -34t13 -21.5q0 -42 -17 -85t-45.5 -82.5t-66 -74t-78.5 -60t-82.5 -40.5t-77.5 -15q-25 0 -52 15.5t-49.5 38t-37 48t-14.5 44.5q0 65 17.5 129.5
t54.5 120t94.5 98t136.5 64.5q2 2 8.5 3t9.5 1q12 0 25.5 -9t25 -20.5t19.5 -22t8 -14.5q-2 -4 -13.5 -10t-30 -22t-44 -44t-55.5 -75q-47 -70 -62.5 -125t-15.5 -86zM578 786q-22 -48 -42 -77.5t-34 -51.5q-13 -1 -46.5 -1t-77.5 -0.5t-92.5 -0.5h-91.5h-74.5h-41.5
q14 25 32 56.5t35 68.5q5 -1 37 -0.5t77 1t97 1t98.5 1.5t80.5 1.5t43 1.5z" />
    <glyph glyph-name="guillemotright" unicode="&#xbb;" horiz-adv-x="950" 
d="M451 227q37 20 79 41q36 18 83.5 41t99.5 47q-38 33 -78.5 62t-74.5 52q-40 26 -77 48q10 19 22.5 39.5t26 40t26.5 37t24 29.5q21 -17 56 -49t72 -66.5t69.5 -66.5t49.5 -50q-8 -34 -18.5 -78.5t-30.5 -89.5q-1 -3 -27.5 -20t-67 -41.5t-87.5 -52.5t-89.5 -52.5
t-73.5 -42t-38 -20.5q5 23 11.5 50t14 53.5t15 50t13.5 38.5zM74 227q38 20 80 41q36 18 83 41t99 47q-38 33 -78.5 62t-74.5 52q-40 26 -77 48q10 19 22.5 39.5t26 40t26.5 37t24 29.5q14 -11 35 -29.5t44.5 -40.5t49 -45.5t48 -45.5t41.5 -40.5t30 -30.5q-8 -34 -19 -78.5
t-31 -89.5q-1 -3 -27.5 -20t-67 -41.5t-87.5 -52.5t-89.5 -52.5t-73.5 -42t-38 -20.5q5 23 11.5 50t14 53.5t15 50t13.5 38.5z" />
    <glyph glyph-name="onequarter" unicode="&#xbc;" horiz-adv-x="1495" 
d="M1073 1452q10 -7 25.5 -18t33.5 -24.5t37 -28.5t35 -29q-42 -60 -106.5 -148t-143 -193t-166.5 -221.5l-176 -233t-172 -226.5t-155 -203t-124.5 -163t-80.5 -105q-29 15 -52 34.5t-38 36.5l56 76t103 141.5t137.5 191t160.5 223.5t171 239t169.5 239t156 222.5
t129.5 189.5zM1057 569q-32 -43 -61.5 -79t-63 -69t-73 -65.5t-91.5 -69.5q100 5 203 15q23 54 44 109.5t41.5 114t41 120.5t41.5 131q13 -12 35.5 -30t47 -38t47.5 -40t38 -35q-32 -72 -71.5 -150.5t-81.5 -159.5q42 5 83 11.5t84 13.5l-92 -143l-141 -3
q-48 -88 -94 -168.5t-87 -150.5q-8 5 -24.5 13.5t-34 17.5t-31.5 17t-18 12q36 69 67.5 131.5t60.5 124.5q-60 -1 -111.5 -1t-88.5 -1q-12 9 -27 28t-29 39t-24.5 38t-13.5 24q102 85 188.5 189t145.5 212q3 6 6 6q7 0 21.5 -21.5t28 -49.5t24 -55t10.5 -38zM625 1317
q-8 -18 -28 -57.5t-48.5 -92.5t-62.5 -115.5t-69.5 -127t-70.5 -127t-64.5 -115t-52 -91.5t-32.5 -56q-6 4 -22 13.5t-34 21t-34.5 21t-22.5 13.5q57 94 104.5 186t87.5 178t74 166.5t64 152.5q-20 -12 -39 -22.5t-35 -19.5t-28 -15t-17 -9q-4 2 -12.5 11t-17 19t-15 18.5
t-6.5 10.5q7 4 34 17.5t62.5 34.5t74.5 47t70 55q14 -11 35.5 -29t43.5 -36.5t39 -33t22 -18.5z" />
    <glyph glyph-name="onehalf" unicode="&#xbd;" horiz-adv-x="1520" 
d="M1370 641q3 -5 4.5 -16t1.5 -19q0 -77 -28.5 -146.5t-97.5 -138.5t-184 -140.5t-287 -152.5q66 10 132.5 24.5t122 27.5t92.5 22t45 9q3 0 3 -2q0 -6 -14 -26.5t-34 -46.5t-41 -52t-34 -43q-33 -2 -90.5 -3t-122.5 -2.5t-128 -3t-108 -2.5q-5 6 -12.5 17t-14 23.5
t-12.5 25.5t-8 22q135 56 238 114.5t178.5 116.5t125.5 115t80.5 111t43 104t12.5 95q0 11 -5 22t-18 11q-26 0 -62.5 -16.5t-76 -43t-78 -59.5t-69 -66t-49 -62t-17.5 -48q0 -11 4 -11q6 0 23 11t39 29.5t45 43t41 50.5q7 -7 20 -19t26 -24.5t24 -22.5t16 -14
q-20 -23 -52 -45.5t-68 -39.5t-71 -27.5t-61 -10.5q-9 0 -28 12.5t-38 28t-33 29.5t-14 18q0 43 20.5 86t56 82.5t83 74t100.5 59.5t108.5 39.5t108.5 14.5q18 -2 43.5 -19t50.5 -39.5t44 -44.5t24 -32zM1073 1452q10 -7 25.5 -18t33.5 -24.5t37 -28.5t35 -29
q-42 -60 -106.5 -148t-143 -193t-166.5 -221.5l-176 -233t-172 -226.5t-155 -203t-124.5 -163t-80.5 -105q-29 15 -52 34.5t-38 36.5l56 76t103 141.5t137.5 191t160.5 223.5t171 239t169.5 239t156 222.5t129.5 189.5zM625 1317q-8 -18 -28 -57.5t-48.5 -92.5t-62.5 -115.5
t-69.5 -127t-70.5 -127t-64.5 -115t-52 -91.5t-32.5 -56q-6 4 -22 13.5t-34 21t-34.5 21t-22.5 13.5q57 94 104.5 186t87.5 178t74 166.5t64 152.5q-20 -12 -39 -22.5t-35 -19.5t-28 -15t-17 -9q-4 2 -12.5 11t-17 19t-15 18.5t-6.5 10.5q7 4 34 17.5t62.5 34.5t74.5 47
t70 55q14 -11 35.5 -29t43.5 -36.5t39 -33t22 -18.5z" />
    <glyph glyph-name="threequarters" unicode="&#xbe;" horiz-adv-x="1686" 
d="M1264 1452q10 -7 25.5 -18t33.5 -24.5t37 -28.5t35 -29q-42 -60 -106.5 -148t-143.5 -193t-166.5 -221.5t-176 -233t-172.5 -226.5t-155 -203t-124.5 -163t-80.5 -105q-29 15 -51.5 34.5t-38.5 36.5l56 76t103 141.5t138 191t161 223.5t171 239t169.5 239t156 222.5
t129.5 189.5zM1247 569q-32 -43 -61.5 -79t-63 -69t-73 -65.5t-91.5 -69.5q99 4 204 15q46 108 85.5 223t81.5 252q13 -12 35.5 -30t47 -38t47.5 -40t38 -35q-32 -72 -71 -150.5t-82 -159.5q42 6 83.5 12t83.5 13l-92 -143l-140 -3q-48 -88 -94 -168.5t-87 -150.5
q-9 5 -25.5 13.5t-34 17.5t-31.5 17t-18 12q37 69 68.5 131.5t59.5 124.5q-60 -1 -111 -1t-88 -1q-12 9 -27 28t-29 39t-25 38t-14 24q102 85 188.5 189t145.5 212q3 6 6 6q8 0 22 -21.5t28 -49.5t24 -55t10 -38zM846 1296q6 -12 6 -26q0 -63 -31 -109.5t-80 -80.5
t-109.5 -57.5t-118.5 -40.5q47 -15 76 -23.5t46 -13.5q19 -5 29 -7q10 -5 10 -14q0 -18 -19.5 -49t-54.5 -68t-82 -77t-102.5 -76t-116.5 -63.5t-123 -39.5q-5 4 -23 24t-39 44t-39 45.5t-24 29.5q43 0 109 12.5t136.5 37t135 61.5t103.5 87q-44 12 -68 19.5t-35 11.5
q-13 4 -16 7q-5 2 -13.5 15.5t-17 29.5t-14.5 31t-6 20q90 0 155.5 32.5t108 80t62.5 101t20 95.5q0 10 -5 17.5t-18 7.5q-18 0 -46 -9.5t-60.5 -25t-65.5 -35.5t-59.5 -40.5t-43 -40.5t-16.5 -35q0 -5 11 -5q12 0 28.5 8.5t34 21.5t35 28.5t31.5 29.5q7 -5 16.5 -13.5
t19.5 -17.5t19.5 -17.5t15.5 -14.5q-45 -42 -111.5 -66t-144.5 -24q-10 1 -24.5 12t-28 24t-23.5 25.5t-10 18.5q0 30 19.5 60.5t52 58t75.5 51.5t89.5 42t94 28t89.5 10q12 -2 35.5 -17.5t48.5 -37.5t46.5 -45t29.5 -38z" />
    <glyph glyph-name="questiondown" unicode="&#xbf;" horiz-adv-x="1110" 
d="M-160 -328q-9 14 -12.5 30t-3.5 30q0 55 26 115.5t72.5 120t110.5 117t140 108t161.5 91t174.5 66.5q23 42 42.5 78.5t34.5 63.5q18 32 32 59q15 -4 37 -13t44 -20t41.5 -22.5t29.5 -20.5q-8 -20 -17 -44.5t-19 -51t-19.5 -53.5t-18.5 -52q-82 -11 -163 -45t-154 -83.5
t-135.5 -110t-108.5 -125t-72 -129t-26 -121.5q0 -30 4.5 -49t13.5 -30t21.5 -15t27.5 -4q28 0 78.5 13t111.5 48t127 96t126 158q6 0 25 -10t43 -25.5t51 -34t50.5 -36t40.5 -32t21 -20.5q-9 -11 -38.5 -38t-75 -61t-106 -71t-132 -67.5t-152.5 -49.5t-168 -18
q-20 0 -44.5 15t-50.5 38.5t-52 52.5t-49 58t-41 54t-29 40zM930 782q0 -8 -14 -36.5t-33 -60t-37 -56.5t-27 -25q-8 0 -35.5 12t-58 27t-54.5 30t-24 21q0 18 13.5 51.5t31.5 65.5t35 56t23 24q10 0 27.5 -7t37.5 -17.5t40.5 -23.5t37 -25t27 -22t10.5 -14z" />
    <glyph glyph-name="Agrave" unicode="&#xc0;" horiz-adv-x="1231" 
d="M1292 1278q0 -47 -19.5 -104.5t-51 -118t-73 -121.5t-84.5 -115q26 -26 47 -47.5t30 -28.5q-14 -24 -38.5 -70.5t-52 -105.5t-56 -125t-51.5 -129.5t-37.5 -120t-14.5 -94.5q0 -50 13.5 -93t40 -75.5t66 -54t91.5 -27.5l-49 -65q-12 0 -37 5.5t-56 19t-65 36.5t-64 58.5
t-53 85t-32 116.5q-48 -50 -103.5 -99t-114.5 -88t-119.5 -63t-117.5 -24q-33 0 -67.5 18t-68 47.5t-64 68.5t-54 80.5t-39 82.5t-18.5 76q0 13 0.5 31.5t1.5 38.5t2.5 39t3.5 34q15 89 48 188t80.5 201t107.5 203t130 193t148 170.5t160.5 136t168 90.5t170.5 33
q29 0 62 -15t65.5 -39t62 -54.5t52 -62t36 -61t13.5 -51.5zM250 4q19 0 55.5 22t85 63t105.5 101t115 135.5t114.5 166t105.5 193.5l-118 118q17 18 53 48t80 71t90.5 91.5t85 109t63.5 123t25 134.5q0 39 -15.5 59.5t-27.5 20.5q-59 0 -128.5 -42.5t-142.5 -115
t-146.5 -169.5t-141 -207t-126 -226t-101.5 -227t-68 -211t-25 -176q0 -82 62 -82zM1188 1682q-23 -11 -43 -17t-49 -14q-15 26 -33.5 59t-38 71.5t-38.5 81.5t-35 89q51 19 92 29.5t61 13.5l84 -313v0z" />
    <glyph glyph-name="Aacute" unicode="&#xc1;" horiz-adv-x="1231" 
d="M1292 1278q0 -47 -19.5 -104.5t-51 -118t-73 -121.5t-84.5 -115q26 -26 47 -47.5t30 -28.5q-14 -24 -38.5 -70.5t-52 -105.5t-56 -125t-51.5 -129.5t-37.5 -120t-14.5 -94.5q0 -50 13.5 -93t40 -75.5t66 -54t91.5 -27.5l-49 -65q-12 0 -37 5.5t-56 19t-65 36.5t-64 58.5
t-53 85t-32 116.5q-48 -50 -103.5 -99t-114.5 -88t-119.5 -63t-117.5 -24q-33 0 -67.5 18t-68 47.5t-64 68.5t-54 80.5t-39 82.5t-18.5 76q0 13 0.5 31.5t1.5 38.5t2.5 39t3.5 34q15 89 48 188t80.5 201t107.5 203t130 193t148 170.5t160.5 136t168 90.5t170.5 33
q29 0 62 -15t65.5 -39t62 -54.5t52 -62t36 -61t13.5 -51.5zM250 4q19 0 55.5 22t85 63t105.5 101t115 135.5t114.5 166t105.5 193.5l-118 118q17 18 53 48t80 71t90.5 91.5t85 109t63.5 123t25 134.5q0 39 -15.5 59.5t-27.5 20.5q-59 0 -128.5 -42.5t-142.5 -115
t-146.5 -169.5t-141 -207t-126 -226t-101.5 -227t-68 -211t-25 -176q0 -82 62 -82zM1346 1897q-56 -69 -121 -131t-131 -115q-5 3 -15.5 11t-21.5 18t-21 18.5t-14 13.5q25 31 56 73t60 83.5t52 76t33 52.5q21 -10 40.5 -25.5t36 -30.5t28.5 -27.5t18 -16.5z" />
    <glyph glyph-name="Acircumflex" unicode="&#xc2;" horiz-adv-x="1231" 
d="M1292 1278q0 -47 -19.5 -104.5t-51 -118t-73 -121.5t-84.5 -115q26 -26 47 -47.5t30 -28.5q-14 -24 -38.5 -70.5t-52 -105.5t-56 -125t-51.5 -129.5t-37.5 -120t-14.5 -94.5q0 -50 13.5 -93t40 -75.5t66 -54t91.5 -27.5l-49 -65q-12 0 -37 5.5t-56 19t-65 36.5t-64 58.5
t-53 85t-32 116.5q-48 -50 -103.5 -99t-114.5 -88t-119.5 -63t-117.5 -24q-33 0 -67.5 18t-68 47.5t-64 68.5t-54 80.5t-39 82.5t-18.5 76q0 13 0.5 31.5t1.5 38.5t2.5 39t3.5 34q15 89 48 188t80.5 201t107.5 203t130 193t148 170.5t160.5 136t168 90.5t170.5 33
q29 0 62 -15t65.5 -39t62 -54.5t52 -62t36 -61t13.5 -51.5zM250 4q19 0 55.5 22t85 63t105.5 101t115 135.5t114.5 166t105.5 193.5l-118 118q17 18 53 48t80 71t90.5 91.5t85 109t63.5 123t25 134.5q0 39 -15.5 59.5t-27.5 20.5q-59 0 -128.5 -42.5t-142.5 -115
t-146.5 -169.5t-141 -207t-126 -226t-101.5 -227t-68 -211t-25 -176q0 -82 62 -82zM1307 1669q-26 -5 -53 -9t-58 -9q-14 38 -29 86t-26 102q-51 -44 -101 -85.5t-116 -92.5q-11 16 -23.5 27.5t-29.5 30.5q34 31 71 66.5t72 70.5l67 67l58 58q45 -6 75 -18t56 -27
q3 -28 7.5 -65t9.5 -74.5t10 -71.5t10 -56z" />
    <glyph glyph-name="Atilde" unicode="&#xc3;" horiz-adv-x="1231" 
d="M1292 1278q0 -47 -19.5 -104.5t-51 -118t-73 -121.5t-84.5 -115q26 -26 47 -47.5t30 -28.5q-14 -24 -38.5 -70.5t-52 -105.5t-56 -125t-51.5 -129.5t-37.5 -120t-14.5 -94.5q0 -50 13.5 -93t40 -75.5t66 -54t91.5 -27.5l-49 -65q-12 0 -37 5.5t-56 19t-65 36.5t-64 58.5
t-53 85t-32 116.5q-48 -50 -103.5 -99t-114.5 -88t-119.5 -63t-117.5 -24q-33 0 -67.5 18t-68 47.5t-64 68.5t-54 80.5t-39 82.5t-18.5 76q0 13 0.5 31.5t1.5 38.5t2.5 39t3.5 34q15 89 48 188t80.5 201t107.5 203t130 193t148 170.5t160.5 136t168 90.5t170.5 33
q29 0 62 -15t65.5 -39t62 -54.5t52 -62t36 -61t13.5 -51.5zM250 4q19 0 55.5 22t85 63t105.5 101t115 135.5t114.5 166t105.5 193.5l-118 118q17 18 53 48t80 71t90.5 91.5t85 109t63.5 123t25 134.5q0 39 -15.5 59.5t-27.5 20.5q-59 0 -128.5 -42.5t-142.5 -115
t-146.5 -169.5t-141 -207t-126 -226t-101.5 -227t-68 -211t-25 -176q0 -82 62 -82zM1246 1823q16 0 32 7t30.5 18.5t27.5 25.5t24 29q19 -9 34.5 -21t35.5 -24q-16 -25 -39 -55t-53.5 -56t-67.5 -43.5t-82 -17.5q-17 0 -39.5 17t-46 38t-44.5 38.5t-36 18.5
q-11 0 -26.5 -7.5t-32.5 -19.5t-33.5 -28t-30.5 -33q-26 17 -39 29t-30 25q19 23 46 52.5t59 55.5t68.5 44t74.5 18q16 0 38.5 -17.5t45.5 -38t45.5 -38t38.5 -17.5z" />
    <glyph glyph-name="Adieresis" unicode="&#xc4;" horiz-adv-x="1231" 
d="M1292 1278q0 -47 -19.5 -104.5t-51 -118t-73 -121.5t-84.5 -115q26 -26 47 -47.5t30 -28.5q-14 -24 -38.5 -70.5t-52 -105.5t-56 -125t-51.5 -129.5t-37.5 -120t-14.5 -94.5q0 -50 13.5 -93t40 -75.5t66 -54t91.5 -27.5l-49 -65q-12 0 -37 5.5t-56 19t-65 36.5t-64 58.5
t-53 85t-32 116.5q-48 -50 -103.5 -99t-114.5 -88t-119.5 -63t-117.5 -24q-33 0 -67.5 18t-68 47.5t-64 68.5t-54 80.5t-39 82.5t-18.5 76q0 13 0.5 31.5t1.5 38.5t2.5 39t3.5 34q15 89 48 188t80.5 201t107.5 203t130 193t148 170.5t160.5 136t168 90.5t170.5 33
q29 0 62 -15t65.5 -39t62 -54.5t52 -62t36 -61t13.5 -51.5zM250 4q19 0 55.5 22t85 63t105.5 101t115 135.5t114.5 166t105.5 193.5l-118 118q17 18 53 48t80 71t90.5 91.5t85 109t63.5 123t25 134.5q0 39 -15.5 59.5t-27.5 20.5q-59 0 -128.5 -42.5t-142.5 -115
t-146.5 -169.5t-141 -207t-126 -226t-101.5 -227t-68 -211t-25 -176q0 -82 62 -82zM1096 1850q0 -6 -12 -30.5t-27.5 -51t-30.5 -47.5t-22 -21t-31 10t-49.5 23t-45.5 25.5t-20 17.5q0 15 11.5 43t26.5 55.5t29 47.5t19 20q13 0 38.5 -12.5t50.5 -28.5t44 -31t19 -20z
M1383 1829q0 -6 -12 -30t-27.5 -50.5t-30.5 -47.5t-22 -21t-31 9.5t-49.5 22.5t-45.5 25.5t-20 17.5q0 15 11.5 43t26.5 55.5t29 47.5t19 20q13 0 38.5 -12.5t50.5 -28t44 -30.5t19 -21z" />
    <glyph glyph-name="Aring" unicode="&#xc5;" horiz-adv-x="1231" 
d="M1292 1278q0 -47 -19.5 -104.5t-51 -118t-73 -121.5t-84.5 -115q26 -26 47 -47.5t30 -28.5q-14 -24 -38.5 -70.5t-52 -105.5t-56 -125t-51.5 -129.5t-37.5 -120t-14.5 -94.5q0 -50 13.5 -93t40 -75.5t66 -54t91.5 -27.5l-49 -65q-12 0 -37 5.5t-56 19t-65 36.5t-64 58.5
t-53 85t-32 116.5q-48 -50 -103.5 -99t-114.5 -88t-119.5 -63t-117.5 -24q-33 0 -67.5 18t-68 47.5t-64 68.5t-54 80.5t-39 82.5t-18.5 76q0 13 0.5 31.5t1.5 38.5t2.5 39t3.5 34q15 89 48 188t80.5 201t107.5 203t130 193t148 170.5t160.5 136t168 90.5t170.5 33
q29 0 62 -15t65.5 -39t62 -54.5t52 -62t36 -61t13.5 -51.5zM250 4q19 0 55.5 22t85 63t105.5 101t115 135.5t114.5 166t105.5 193.5l-118 118q17 18 53 48t80 71t90.5 91.5t85 109t63.5 123t25 134.5q0 39 -15.5 59.5t-27.5 20.5q-59 0 -128.5 -42.5t-142.5 -115
t-146.5 -169.5t-141 -207t-126 -226t-101.5 -227t-68 -211t-25 -176q0 -82 62 -82zM1288 1850q0 -45 -21 -84.5t-54 -69.5t-74.5 -47.5t-81.5 -17.5q-22 0 -47.5 11.5t-47.5 30.5t-36.5 43t-14.5 50q0 43 16.5 85t46.5 75.5t71 54t90 20.5q21 0 47.5 -13t50 -34.5
t39.5 -48.5t16 -55zM1174 1934q-22 0 -45.5 -17.5t-43 -45.5t-32.5 -63.5t-13 -70.5q0 -12 3.5 -19.5t17.5 -7.5q23 0 47 15.5t43.5 41.5t32 60t12.5 72q0 35 -22 35z" />
    <glyph glyph-name="AE" unicode="&#xc6;" horiz-adv-x="1845" 
d="M1561 973q38 31 74 77t64 97t45 104t17 99q0 37 -18 62.5t-64 25.5q-38 0 -85 -18t-95 -49.5t-93.5 -75t-80.5 -94.5t-56.5 -107t-21.5 -113q0 -49 12 -84.5t34.5 -63t55.5 -50.5t74 -48q-126 -53 -231.5 -130.5t-181 -167.5t-118 -185.5t-42.5 -183.5q0 -31 14.5 -54.5
t46.5 -23.5q42 0 94.5 23t108.5 60t112 83t106 92.5t89 88.5t62 71q60 -48 104 -85.5t82 -68.5q-17 -23 -56.5 -64t-94 -88t-119 -95.5t-131 -87.5t-131.5 -64t-119 -25q-51 0 -100.5 18t-93.5 47.5t-80.5 67.5t-61.5 78q-44 -41 -92.5 -79.5t-99 -67.5t-101 -46.5
t-98.5 -17.5q-33 0 -67.5 18t-68 47.5t-64 68.5t-54 80.5t-39 82.5t-18.5 76q0 13 0.5 31.5t1.5 38.5t2.5 39t3.5 34q15 89 48 188t80.5 201t107.5 203t130 193t148 170.5t160.5 136t168 90.5t170.5 33q36 0 78 -22.5t80 -56.5q11 35 21.5 69.5t19.5 66.5q15 -11 34.5 -24
t41 -28t43.5 -30.5t42 -31.5q56 27 112 42t110 15q104 0 143 -21q34 -18 74 -52t74 -74.5t57 -82t23 -74.5q0 -57 -19 -119t-50 -120.5t-71 -110t-81 -86.5zM721 481q65 106 166.5 188.5t224.5 140.5q-18 18 -35.5 39t-31 47.5t-21.5 59.5t-8 74q0 63 19.5 122t53.5 113
q3 8 6 16.5t5 16.5q5 20 7.5 40.5t2.5 41.5q0 39 -15.5 59.5t-27.5 20.5q-59 0 -128.5 -42.5t-142.5 -115t-146.5 -169.5t-141 -207t-126 -226t-101.5 -227t-68 -211t-25 -176q0 -82 62 -82q23 0 73.5 33t116 95t139 150t142.5 199z" />
    <glyph glyph-name="Ccedilla" unicode="&#xc7;" horiz-adv-x="1120" 
d="M455 -322q0 -32 -12.5 -68t-44 -68.5t-86 -58t-138.5 -36.5q-7 8 -13 23.5t-11.5 33t-10 34.5t-8.5 28q26 3 62.5 10t69.5 19t56 29.5t23 41.5q0 1 -1.5 5.5t-6.5 9.5t-14.5 8.5t-24.5 3.5q-45 0 -71.5 -6t-26.5 2q14 34 34 76t35 79q-34 15 -69 41.5t-68 60t-61.5 70.5
t-47.5 72q-30 56 -35 103t-5 75q0 77 22 174t63 202.5t99 214.5t128.5 211t153 192t173 157t187 105.5t195.5 38.5q28 0 59 -14.5t61 -38t58 -54.5t49 -63.5t33.5 -65t12.5 -59.5q0 -60 -24 -132.5t-65 -146t-97.5 -143.5t-120.5 -125l-181 174q30 19 63.5 48.5t67 67
t64.5 81t54.5 88t37.5 89t14 85.5q0 31 -5 50t-13.5 29.5t-19.5 14.5t-23 4q-48 0 -109 -40.5t-128.5 -110t-138 -162.5t-136.5 -199.5t-124.5 -219.5t-102 -223t-69 -210.5t-25.5 -180.5q0 -30 4.5 -49.5t13 -31t21.5 -15.5t30 -4q29 0 68.5 24.5t84 63.5t90 87t85.5 94.5
t72 86t49 62.5q0 -1 24.5 -21t57.5 -48t66 -56.5t50 -46.5q-24 -27 -60.5 -68t-82 -87t-98 -92t-107.5 -83.5t-111.5 -61.5t-109.5 -26l-37 -86q19 5 33 7.5t39 2.5q10 0 23 -7t25 -18t21 -25t11 -28z" />
    <glyph glyph-name="Egrave" unicode="&#xc8;" horiz-adv-x="1126" 
d="M842 973q38 31 74 77t64 97t45 104t17 99q0 37 -17.5 62.5t-63.5 25.5q-39 0 -86 -18t-95 -49.5t-93.5 -75t-80.5 -94.5t-56.5 -107t-21.5 -113q0 -49 12 -84.5t35 -63t55.5 -50.5t74.5 -48q-126 -53 -231.5 -130.5t-181.5 -167.5t-118.5 -185.5t-42.5 -183.5
q0 -31 15 -54.5t47 -23.5q42 0 94 23t108 60t112.5 83t106 92.5t88.5 88.5t62 71q60 -48 104 -85.5t82 -68.5q-17 -23 -56.5 -64t-94 -88t-119 -95.5t-131 -87.5t-131.5 -64t-119 -25q-47 0 -93.5 16t-88.5 42.5t-77.5 61t-62 71.5t-42.5 74t-17 69v24q0 105 37 198
t101.5 171.5t151 142t185.5 110.5q-18 18 -35.5 39t-31 47.5t-21.5 59.5t-8 74q0 70 25 137t67 126t98.5 108t119.5 84.5t129 55.5t128 20q103 0 144 -21q34 -18 73.5 -52t73.5 -74.5t57 -82t23 -74.5q0 -57 -19 -119t-50 -120.5t-71 -110t-81 -86.5zM1040 1682
q-23 -11 -43 -17t-49 -14q-15 26 -33.5 59t-38 71.5t-38.5 81.5t-35 89q51 19 92 29.5t61 13.5l84 -313v0z" />
    <glyph glyph-name="Eacute" unicode="&#xc9;" horiz-adv-x="1126" 
d="M842 973q38 31 74 77t64 97t45 104t17 99q0 37 -17.5 62.5t-63.5 25.5q-39 0 -86 -18t-95 -49.5t-93.5 -75t-80.5 -94.5t-56.5 -107t-21.5 -113q0 -49 12 -84.5t35 -63t55.5 -50.5t74.5 -48q-126 -53 -231.5 -130.5t-181.5 -167.5t-118.5 -185.5t-42.5 -183.5
q0 -31 15 -54.5t47 -23.5q42 0 94 23t108 60t112.5 83t106 92.5t88.5 88.5t62 71q60 -48 104 -85.5t82 -68.5q-17 -23 -56.5 -64t-94 -88t-119 -95.5t-131 -87.5t-131.5 -64t-119 -25q-47 0 -93.5 16t-88.5 42.5t-77.5 61t-62 71.5t-42.5 74t-17 69v24q0 105 37 198
t101.5 171.5t151 142t185.5 110.5q-18 18 -35.5 39t-31 47.5t-21.5 59.5t-8 74q0 70 25 137t67 126t98.5 108t119.5 84.5t129 55.5t128 20q103 0 144 -21q34 -18 73.5 -52t73.5 -74.5t57 -82t23 -74.5q0 -57 -19 -119t-50 -120.5t-71 -110t-81 -86.5zM1198 1897
q-56 -69 -121 -131t-131 -115q-5 3 -15.5 11t-21.5 18t-21 18.5t-14 13.5q25 31 56 73t60 83.5t52 76t33 52.5q21 -10 40.5 -25.5t36 -30.5t28.5 -27.5t18 -16.5z" />
    <glyph glyph-name="Ecircumflex" unicode="&#xca;" horiz-adv-x="1126" 
d="M842 973q38 31 74 77t64 97t45 104t17 99q0 37 -17.5 62.5t-63.5 25.5q-39 0 -86 -18t-95 -49.5t-93.5 -75t-80.5 -94.5t-56.5 -107t-21.5 -113q0 -49 12 -84.5t35 -63t55.5 -50.5t74.5 -48q-126 -53 -231.5 -130.5t-181.5 -167.5t-118.5 -185.5t-42.5 -183.5
q0 -31 15 -54.5t47 -23.5q42 0 94 23t108 60t112.5 83t106 92.5t88.5 88.5t62 71q60 -48 104 -85.5t82 -68.5q-17 -23 -56.5 -64t-94 -88t-119 -95.5t-131 -87.5t-131.5 -64t-119 -25q-47 0 -93.5 16t-88.5 42.5t-77.5 61t-62 71.5t-42.5 74t-17 69v24q0 105 37 198
t101.5 171.5t151 142t185.5 110.5q-18 18 -35.5 39t-31 47.5t-21.5 59.5t-8 74q0 70 25 137t67 126t98.5 108t119.5 84.5t129 55.5t128 20q103 0 144 -21q34 -18 73.5 -52t73.5 -74.5t57 -82t23 -74.5q0 -57 -19 -119t-50 -120.5t-71 -110t-81 -86.5zM1159 1669
q-26 -5 -53 -9t-58 -9q-14 38 -29 86t-26 102q-51 -44 -101 -85.5t-116 -92.5q-11 16 -23.5 27.5t-29.5 30.5q34 31 71 66.5t72 70.5l67 67l58 58q45 -6 75 -18t56 -27q3 -28 7.5 -65t9.5 -74.5t10 -71.5t10 -56z" />
    <glyph glyph-name="Edieresis" unicode="&#xcb;" horiz-adv-x="1126" 
d="M842 973q38 31 74 77t64 97t45 104t17 99q0 37 -17.5 62.5t-63.5 25.5q-39 0 -86 -18t-95 -49.5t-93.5 -75t-80.5 -94.5t-56.5 -107t-21.5 -113q0 -49 12 -84.5t35 -63t55.5 -50.5t74.5 -48q-126 -53 -231.5 -130.5t-181.5 -167.5t-118.5 -185.5t-42.5 -183.5
q0 -31 15 -54.5t47 -23.5q42 0 94 23t108 60t112.5 83t106 92.5t88.5 88.5t62 71q60 -48 104 -85.5t82 -68.5q-17 -23 -56.5 -64t-94 -88t-119 -95.5t-131 -87.5t-131.5 -64t-119 -25q-47 0 -93.5 16t-88.5 42.5t-77.5 61t-62 71.5t-42.5 74t-17 69v24q0 105 37 198
t101.5 171.5t151 142t185.5 110.5q-18 18 -35.5 39t-31 47.5t-21.5 59.5t-8 74q0 70 25 137t67 126t98.5 108t119.5 84.5t129 55.5t128 20q103 0 144 -21q34 -18 73.5 -52t73.5 -74.5t57 -82t23 -74.5q0 -57 -19 -119t-50 -120.5t-71 -110t-81 -86.5zM948 1850
q0 -6 -12 -30.5t-27.5 -51t-30.5 -47.5t-22 -21t-31 10t-49.5 23t-45.5 25.5t-20 17.5q0 15 11.5 43t26.5 55.5t29 47.5t19 20q13 0 38.5 -12.5t50.5 -28.5t44 -31t19 -20zM1235 1829q0 -6 -12 -30t-27.5 -50.5t-30.5 -47.5t-22 -21t-31 9.5t-49.5 22.5t-45.5 25.5t-20 17.5
q0 15 11.5 43t26.5 55.5t29 47.5t19 20q13 0 38.5 -12.5t50.5 -28t44 -30.5t19 -21z" />
    <glyph glyph-name="Igrave" unicode="&#xcc;" horiz-adv-x="1018" 
d="M1128 1384q5 -11 9 -28.5t4 -42.5q0 -62 -18 -138.5t-50 -163t-78 -179.5t-101 -188t-119 -188.5t-133 -180.5q43 -52 91.5 -97t102.5 -80q-33 -25 -62 -39q-39 17 -89.5 53t-104.5 88q-117 -137 -234.5 -237t-232.5 -149q-14 -6 -35 -10.5t-56 -4.5q-28 0 -58 21
t-57.5 50t-49 58.5t-33.5 46.5q-13 19 -21 47t-8 70q0 51 11 104t40 121q12 5 42.5 14.5t67 19.5t72.5 19t60 13q-30 -45 -56 -86.5t-44.5 -83t-29.5 -85t-11 -91.5q0 -20 7.5 -38.5t27.5 -18.5q31 0 78 31t104.5 86t122.5 130t133 162q-38 54 -70 114.5t-55.5 126
t-37 134.5t-13.5 141q0 106 33.5 196t89 163.5t127 129.5t147.5 94t150.5 57.5t136.5 19.5q34 0 51 -13q17 -11 40 -33.5t45.5 -47.5t40 -48.5t23.5 -38.5zM420 797q0 -67 21 -144t59 -156q60 83 117.5 170.5t109 174.5t95 171t75 159.5t49 140t17.5 112.5q0 13 -5 16t-14 3
q-14 0 -58.5 -16.5t-102.5 -51t-122 -87t-117.5 -124.5t-88.5 -164t-35 -204zM1075 1682q-23 -11 -43 -17t-49 -14q-15 26 -33.5 59t-38 71.5t-38.5 81.5t-35 89q51 19 92 29.5t61 13.5l84 -313v0z" />
    <glyph glyph-name="Iacute" unicode="&#xcd;" horiz-adv-x="1018" 
d="M1128 1384q5 -11 9 -28.5t4 -42.5q0 -62 -18 -138.5t-50 -163t-78 -179.5t-101 -188t-119 -188.5t-133 -180.5q43 -52 91.5 -97t102.5 -80q-33 -25 -62 -39q-39 17 -89.5 53t-104.5 88q-117 -137 -234.5 -237t-232.5 -149q-14 -6 -35 -10.5t-56 -4.5q-28 0 -58 21
t-57.5 50t-49 58.5t-33.5 46.5q-13 19 -21 47t-8 70q0 51 11 104t40 121q12 5 42.5 14.5t67 19.5t72.5 19t60 13q-30 -45 -56 -86.5t-44.5 -83t-29.5 -85t-11 -91.5q0 -20 7.5 -38.5t27.5 -18.5q31 0 78 31t104.5 86t122.5 130t133 162q-38 54 -70 114.5t-55.5 126
t-37 134.5t-13.5 141q0 106 33.5 196t89 163.5t127 129.5t147.5 94t150.5 57.5t136.5 19.5q34 0 51 -13q17 -11 40 -33.5t45.5 -47.5t40 -48.5t23.5 -38.5zM420 797q0 -67 21 -144t59 -156q60 83 117.5 170.5t109 174.5t95 171t75 159.5t49 140t17.5 112.5q0 13 -5 16t-14 3
q-14 0 -58.5 -16.5t-102.5 -51t-122 -87t-117.5 -124.5t-88.5 -164t-35 -204zM1233 1897q-56 -69 -121 -131t-131 -115q-5 3 -15.5 11t-21.5 18t-21 18.5t-14 13.5q25 31 56 73t60 83.5t52 76t33 52.5q21 -10 40.5 -25.5t36 -30.5t28.5 -27.5t18 -16.5z" />
    <glyph glyph-name="Icircumflex" unicode="&#xce;" horiz-adv-x="1018" 
d="M1128 1384q5 -11 9 -28.5t4 -42.5q0 -62 -18 -138.5t-50 -163t-78 -179.5t-101 -188t-119 -188.5t-133 -180.5q43 -52 91.5 -97t102.5 -80q-33 -25 -62 -39q-39 17 -89.5 53t-104.5 88q-117 -137 -234.5 -237t-232.5 -149q-14 -6 -35 -10.5t-56 -4.5q-28 0 -58 21
t-57.5 50t-49 58.5t-33.5 46.5q-13 19 -21 47t-8 70q0 51 11 104t40 121q12 5 42.5 14.5t67 19.5t72.5 19t60 13q-30 -45 -56 -86.5t-44.5 -83t-29.5 -85t-11 -91.5q0 -20 7.5 -38.5t27.5 -18.5q31 0 78 31t104.5 86t122.5 130t133 162q-38 54 -70 114.5t-55.5 126
t-37 134.5t-13.5 141q0 106 33.5 196t89 163.5t127 129.5t147.5 94t150.5 57.5t136.5 19.5q34 0 51 -13q17 -11 40 -33.5t45.5 -47.5t40 -48.5t23.5 -38.5zM420 797q0 -67 21 -144t59 -156q60 83 117.5 170.5t109 174.5t95 171t75 159.5t49 140t17.5 112.5q0 13 -5 16t-14 3
q-14 0 -58.5 -16.5t-102.5 -51t-122 -87t-117.5 -124.5t-88.5 -164t-35 -204zM1194 1669q-26 -5 -53 -9t-58 -9q-14 38 -29 86t-26 102q-51 -44 -101 -85.5t-116 -92.5q-11 16 -23.5 27.5t-29.5 30.5q34 31 71 66.5t72 70.5l67 67l58 58q45 -6 75 -18t56 -27q3 -28 7.5 -65
t9.5 -74.5t10 -71.5t10 -56z" />
    <glyph glyph-name="Idieresis" unicode="&#xcf;" horiz-adv-x="1018" 
d="M1128 1384q5 -11 9 -28.5t4 -42.5q0 -62 -18 -138.5t-50 -163t-78 -179.5t-101 -188t-119 -188.5t-133 -180.5q43 -52 91.5 -97t102.5 -80q-33 -25 -62 -39q-39 17 -89.5 53t-104.5 88q-117 -137 -234.5 -237t-232.5 -149q-14 -6 -35 -10.5t-56 -4.5q-28 0 -58 21
t-57.5 50t-49 58.5t-33.5 46.5q-13 19 -21 47t-8 70q0 51 11 104t40 121q12 5 42.5 14.5t67 19.5t72.5 19t60 13q-30 -45 -56 -86.5t-44.5 -83t-29.5 -85t-11 -91.5q0 -20 7.5 -38.5t27.5 -18.5q31 0 78 31t104.5 86t122.5 130t133 162q-38 54 -70 114.5t-55.5 126
t-37 134.5t-13.5 141q0 106 33.5 196t89 163.5t127 129.5t147.5 94t150.5 57.5t136.5 19.5q34 0 51 -13q17 -11 40 -33.5t45.5 -47.5t40 -48.5t23.5 -38.5zM420 797q0 -67 21 -144t59 -156q60 83 117.5 170.5t109 174.5t95 171t75 159.5t49 140t17.5 112.5q0 13 -5 16t-14 3
q-14 0 -58.5 -16.5t-102.5 -51t-122 -87t-117.5 -124.5t-88.5 -164t-35 -204zM983 1850q0 -6 -12 -30.5t-27.5 -51t-30.5 -47.5t-22 -21t-31 10t-49.5 23t-45.5 25.5t-20 17.5q0 15 11.5 43t26.5 55.5t29 47.5t19 20q13 0 38.5 -12.5t50.5 -28.5t44 -31t19 -20zM1270 1829
q0 -6 -12 -30t-27.5 -50.5t-30.5 -47.5t-22 -21t-31 9.5t-49.5 22.5t-45.5 25.5t-20 17.5q0 15 11.5 43t26.5 55.5t29 47.5t19 20q13 0 38.5 -12.5t50.5 -28t44 -30.5t19 -21z" />
    <glyph glyph-name="Eth" unicode="&#xd0;" horiz-adv-x="1436" 
d="M1409 1284q13 -17 22 -35t14.5 -41t7.5 -52.5t1 -68.5q-3 -129 -33 -265t-84.5 -266t-133.5 -249.5t-181.5 -217t-227 -167t-270.5 -100.5q-46 29 -81 57t-60.5 51.5t-41 41.5t-22.5 27q-53 -78 -104.5 -123.5t-101.5 -45.5q-24 0 -48 13.5t-46 34.5t-41 47t-32.5 50
t-21.5 44t-8 30q0 50 12.5 110t35.5 126t56.5 137t74.5 145q-65 1 -106 1.5t-46 2.5q3 12 9.5 30.5t14 37.5t15 36t12.5 25q7 2 57.5 4t127.5 4q61 94 130.5 185.5t145.5 176.5q27 138 45 273t22 259q58 -36 104.5 -71t79.5 -64q39 -33 68 -64l-3 -45q96 68 187.5 106.5
t176.5 38.5q40 0 79 -22.5t74 -55.5t65.5 -71.5t55.5 -69.5zM899 713q-4 -18 -10.5 -38.5t-14.5 -40.5t-16 -37t-14 -26l-263 -2q-56 -163 -120.5 -308.5t-133.5 -250.5q125 19 232 67.5t197 119t163.5 158t131 183.5t99.5 196.5t69.5 196t41 182.5t13.5 157q0 21 -5.5 43
t-17 40t-28 29t-37.5 11q-42 0 -94 -22.5t-111 -63t-123 -96t-130 -121.5q-19 -89 -44 -184t-56 -194zM70 18q18 -8 46.5 30.5t63 112.5t72.5 178.5t76 227.5h-31q-54 -78 -98.5 -152.5t-76.5 -140.5t-49.5 -120.5t-17.5 -92.5q0 -35 15 -43z" />
    <glyph glyph-name="Ntilde" unicode="&#xd1;" horiz-adv-x="1358" 
d="M1335 1223q0 -52 -9 -122.5t-30.5 -162t-58 -204.5t-90.5 -251q-59 -150 -120.5 -265.5t-115 -195.5t-93.5 -124t-56 -52q-26 -12 -57 -12q-26 0 -53 8t-46 25q-12 10 -39.5 51t-58.5 116.5t-60 188.5t-43 269q-43 -56 -94 -120t-104 -127.5t-105.5 -124t-98.5 -110.5
t-82 -86.5t-56 -52.5q-11 10 -25.5 24t-30 29.5t-30 31.5t-25.5 30q146 128 296 361t286 562q17 -14 32 -28t29 -28q4 140 9.5 249t12.5 192.5t13.5 143.5t12.5 102t10.5 68.5t7.5 42.5q10 -9 30 -28.5t45 -43.5t52.5 -50.5t52 -50.5t43 -43t25.5 -28q-13 -50 -29.5 -116.5
t-31 -156t-24.5 -204.5t-10 -262q1 -137 10 -265q4 -55 9.5 -113.5t14 -115t20.5 -108.5t27 -93q125 206 199.5 399t114.5 378t52 364.5t12 358.5v69q52 -40 99 -89t83 -93q42 -51 78 -103v-34zM1057 1794q16 0 32 7t30.5 18.5t27.5 25.5t24 29q19 -9 34.5 -21t35.5 -24
q-16 -25 -39 -55t-53.5 -56t-67.5 -43.5t-82 -17.5q-17 0 -39.5 17t-46 38t-44.5 38.5t-36 18.5q-11 0 -26.5 -7.5t-32.5 -19.5t-33.5 -28t-30.5 -33q-26 17 -39 29t-30 25q19 23 46 52.5t59 55.5t68.5 44t74.5 18q16 0 38.5 -17.5t45.5 -38t45.5 -38t38.5 -17.5z" />
    <glyph glyph-name="Ograve" unicode="&#xd2;" horiz-adv-x="1274" 
d="M1239 1341q7 -12 15 -23.5t15 -32.5t12 -56t5 -94q0 -124 -29 -246t-79 -237t-118 -220.5t-146.5 -197t-163.5 -166t-169.5 -127.5t-164.5 -82t-148 -29q-27 0 -55.5 13t-56 34t-52 46t-44 49.5t-32.5 44.5t-18 30l-12 24t-13 35.5t-10 53t-4 76.5q0 69 13.5 150.5
t48.5 175.5t95.5 200.5t154.5 224.5q8 -9 24 -26.5t35 -39.5t40 -46.5t39.5 -46.5t31.5 -39.5t18 -26.5q-48 -55 -91 -119t-79.5 -129.5t-66.5 -129.5t-51 -119t-32.5 -98t-11.5 -67q0 -16 6 -30.5t15 -25.5t19 -17.5t18 -6.5q52 0 119 30t140.5 84t150.5 130t149 168
t135.5 197.5t111.5 219.5t75.5 233.5t27.5 238.5q0 36 -8 60.5t-21 40t-29.5 22t-33.5 6.5q-77 0 -137.5 -29.5t-104.5 -74.5t-71 -99t-37 -104q-15 -84 -5 -150.5t28.5 -115.5t37 -79.5t20.5 -43.5q-24 3 -57 5.5t-69 5.5t-71 6.5t-63 8.5q-12 14 -26 40t-25.5 60t-19.5 74
t-8 82q0 80 25.5 150.5t68.5 129t98 104t114 77t117 48t107 16.5q32 0 64.5 -12.5t63.5 -33t59.5 -45t51.5 -49t39.5 -46t24.5 -34.5zM1095 1682q-23 -11 -43 -17t-49 -14q-15 26 -33.5 59t-38 71.5t-38.5 81.5t-35 89q51 19 92 29.5t61 13.5l84 -313v0z" />
    <glyph glyph-name="Oacute" unicode="&#xd3;" horiz-adv-x="1274" 
d="M1239 1341q7 -12 15 -23.5t15 -32.5t12 -56t5 -94q0 -124 -29 -246t-79 -237t-118 -220.5t-146.5 -197t-163.5 -166t-169.5 -127.5t-164.5 -82t-148 -29q-27 0 -55.5 13t-56 34t-52 46t-44 49.5t-32.5 44.5t-18 30l-12 24t-13 35.5t-10 53t-4 76.5q0 69 13.5 150.5
t48.5 175.5t95.5 200.5t154.5 224.5q8 -9 24 -26.5t35 -39.5t40 -46.5t39.5 -46.5t31.5 -39.5t18 -26.5q-48 -55 -91 -119t-79.5 -129.5t-66.5 -129.5t-51 -119t-32.5 -98t-11.5 -67q0 -16 6 -30.5t15 -25.5t19 -17.5t18 -6.5q52 0 119 30t140.5 84t150.5 130t149 168
t135.5 197.5t111.5 219.5t75.5 233.5t27.5 238.5q0 36 -8 60.5t-21 40t-29.5 22t-33.5 6.5q-77 0 -137.5 -29.5t-104.5 -74.5t-71 -99t-37 -104q-15 -84 -5 -150.5t28.5 -115.5t37 -79.5t20.5 -43.5q-24 3 -57 5.5t-69 5.5t-71 6.5t-63 8.5q-12 14 -26 40t-25.5 60t-19.5 74
t-8 82q0 80 25.5 150.5t68.5 129t98 104t114 77t117 48t107 16.5q32 0 64.5 -12.5t63.5 -33t59.5 -45t51.5 -49t39.5 -46t24.5 -34.5zM1254 1897q-56 -69 -121 -131t-131 -115q-5 3 -15.5 11t-21.5 18t-21 18.5t-14 13.5q25 31 56 73t60 83.5t52 76t33 52.5
q21 -10 40.5 -25.5t36 -30.5t28.5 -27.5t18 -16.5z" />
    <glyph glyph-name="Ocircumflex" unicode="&#xd4;" horiz-adv-x="1274" 
d="M1239 1341q7 -12 15 -23.5t15 -32.5t12 -56t5 -94q0 -124 -29 -246t-79 -237t-118 -220.5t-146.5 -197t-163.5 -166t-169.5 -127.5t-164.5 -82t-148 -29q-27 0 -55.5 13t-56 34t-52 46t-44 49.5t-32.5 44.5t-18 30l-12 24t-13 35.5t-10 53t-4 76.5q0 69 13.5 150.5
t48.5 175.5t95.5 200.5t154.5 224.5q8 -9 24 -26.5t35 -39.5t40 -46.5t39.5 -46.5t31.5 -39.5t18 -26.5q-48 -55 -91 -119t-79.5 -129.5t-66.5 -129.5t-51 -119t-32.5 -98t-11.5 -67q0 -16 6 -30.5t15 -25.5t19 -17.5t18 -6.5q52 0 119 30t140.5 84t150.5 130t149 168
t135.5 197.5t111.5 219.5t75.5 233.5t27.5 238.5q0 36 -8 60.5t-21 40t-29.5 22t-33.5 6.5q-77 0 -137.5 -29.5t-104.5 -74.5t-71 -99t-37 -104q-15 -84 -5 -150.5t28.5 -115.5t37 -79.5t20.5 -43.5q-24 3 -57 5.5t-69 5.5t-71 6.5t-63 8.5q-12 14 -26 40t-25.5 60t-19.5 74
t-8 82q0 80 25.5 150.5t68.5 129t98 104t114 77t117 48t107 16.5q32 0 64.5 -12.5t63.5 -33t59.5 -45t51.5 -49t39.5 -46t24.5 -34.5zM1214 1669q-26 -5 -53 -9t-58 -9q-14 38 -29 86t-26 102q-51 -44 -101 -85.5t-116 -92.5q-11 16 -23.5 27.5t-29.5 30.5q34 31 71 66.5
t72 70.5l67 67l58 58q45 -6 75 -18t56 -27q3 -28 7.5 -65t9.5 -74.5t10 -71.5t10 -56z" />
    <glyph glyph-name="Otilde" unicode="&#xd5;" horiz-adv-x="1274" 
d="M1239 1341q7 -12 15 -23.5t15 -32.5t12 -56t5 -94q0 -124 -29 -246t-79 -237t-118 -220.5t-146.5 -197t-163.5 -166t-169.5 -127.5t-164.5 -82t-148 -29q-27 0 -55.5 13t-56 34t-52 46t-44 49.5t-32.5 44.5t-18 30l-12 24t-13 35.5t-10 53t-4 76.5q0 69 13.5 150.5
t48.5 175.5t95.5 200.5t154.5 224.5q8 -9 24 -26.5t35 -39.5t40 -46.5t39.5 -46.5t31.5 -39.5t18 -26.5q-48 -55 -91 -119t-79.5 -129.5t-66.5 -129.5t-51 -119t-32.5 -98t-11.5 -67q0 -16 6 -30.5t15 -25.5t19 -17.5t18 -6.5q52 0 119 30t140.5 84t150.5 130t149 168
t135.5 197.5t111.5 219.5t75.5 233.5t27.5 238.5q0 36 -8 60.5t-21 40t-29.5 22t-33.5 6.5q-77 0 -137.5 -29.5t-104.5 -74.5t-71 -99t-37 -104q-15 -84 -5 -150.5t28.5 -115.5t37 -79.5t20.5 -43.5q-24 3 -57 5.5t-69 5.5t-71 6.5t-63 8.5q-12 14 -26 40t-25.5 60t-19.5 74
t-8 82q0 80 25.5 150.5t68.5 129t98 104t114 77t117 48t107 16.5q32 0 64.5 -12.5t63.5 -33t59.5 -45t51.5 -49t39.5 -46t24.5 -34.5zM1153 1823q16 0 32 7t30.5 18.5t27.5 25.5t24 29q19 -9 34.5 -21t35.5 -24q-16 -25 -39 -55t-53.5 -56t-67.5 -43.5t-82 -17.5
q-17 0 -39.5 17t-46 38t-44.5 38.5t-36 18.5q-11 0 -26.5 -7.5t-32.5 -19.5t-33.5 -28t-30.5 -33q-26 17 -39 29t-30 25q19 23 46 52.5t59 55.5t68.5 44t74.5 18q16 0 38.5 -17.5t45.5 -38t45.5 -38t38.5 -17.5z" />
    <glyph glyph-name="Odieresis" unicode="&#xd6;" horiz-adv-x="1274" 
d="M1239 1341q7 -12 15 -23.5t15 -32.5t12 -56t5 -94q0 -124 -29 -246t-79 -237t-118 -220.5t-146.5 -197t-163.5 -166t-169.5 -127.5t-164.5 -82t-148 -29q-27 0 -55.5 13t-56 34t-52 46t-44 49.5t-32.5 44.5t-18 30l-12 24t-13 35.5t-10 53t-4 76.5q0 69 13.5 150.5
t48.5 175.5t95.5 200.5t154.5 224.5q8 -9 24 -26.5t35 -39.5t40 -46.5t39.5 -46.5t31.5 -39.5t18 -26.5q-48 -55 -91 -119t-79.5 -129.5t-66.5 -129.5t-51 -119t-32.5 -98t-11.5 -67q0 -16 6 -30.5t15 -25.5t19 -17.5t18 -6.5q52 0 119 30t140.5 84t150.5 130t149 168
t135.5 197.5t111.5 219.5t75.5 233.5t27.5 238.5q0 36 -8 60.5t-21 40t-29.5 22t-33.5 6.5q-77 0 -137.5 -29.5t-104.5 -74.5t-71 -99t-37 -104q-15 -84 -5 -150.5t28.5 -115.5t37 -79.5t20.5 -43.5q-24 3 -57 5.5t-69 5.5t-71 6.5t-63 8.5q-12 14 -26 40t-25.5 60t-19.5 74
t-8 82q0 80 25.5 150.5t68.5 129t98 104t114 77t117 48t107 16.5q32 0 64.5 -12.5t63.5 -33t59.5 -45t51.5 -49t39.5 -46t24.5 -34.5zM1003 1850q0 -6 -12 -30.5t-27.5 -51t-30.5 -47.5t-22 -21t-31 10t-49.5 23t-45.5 25.5t-20 17.5q0 15 11.5 43t26.5 55.5t29 47.5t19 20
q13 0 38.5 -12.5t50.5 -28.5t44 -31t19 -20zM1290 1829q0 -6 -12 -30t-27.5 -50.5t-30.5 -47.5t-22 -21t-31 9.5t-49.5 22.5t-45.5 25.5t-20 17.5q0 15 11.5 43t26.5 55.5t29 47.5t19 20q13 0 38.5 -12.5t50.5 -28t44 -30.5t19 -21z" />
    <glyph glyph-name="multiply" unicode="&#xd7;" 
d="M303 887q17 -48 35 -99.5t36 -105.5q45 40 86 76t72.5 64t52 46t23.5 21q8 -22 14.5 -45t12 -44t9.5 -39t7 -30q-7 -6 -28 -23t-52 -41.5t-70 -55t-81 -63.5q24 -70 48.5 -135.5t47.5 -121.5q-10 -7 -23 -15.5t-26 -16.5t-25.5 -16t-21.5 -14q-17 35 -49.5 94t-71.5 130
l-281 -222q-2 12 -5 27.5t-6.5 31.5t-7 31t-5.5 25q4 4 25.5 23t54.5 48.5t75.5 66.5t88.5 78q-35 63 -69.5 125.5t-64.5 117.5q15 8 43 20t58 24t57.5 22.5t40.5 15.5z" />
    <glyph glyph-name="Oslash" unicode="&#xd8;" horiz-adv-x="1274" 
d="M1360 1737q-23 -37 -73 -117.5t-119 -192.5q26 -26 44.5 -49t26.5 -37q7 -12 15 -23.5t15 -32.5t12 -56t5 -94q0 -124 -29 -246t-79 -237t-118 -220.5t-146.5 -197t-163.5 -166t-169.5 -127.5t-164.5 -82t-148 -29q-18 0 -36 5.5t-36 15.5q-74 -115 -131 -202.5
t-92 -135.5q-18 18 -31.5 30.5t-25 24l-22.5 22.5l-25 25q54 80 107.5 162t108.5 167q-29 32 -49 60.5t-26 42.5l-12 24t-13 35.5t-10 53t-4 76.5q0 69 13.5 150.5t48.5 175.5t95.5 200.5t154.5 224.5q8 -9 24 -26.5t35 -39.5t40 -46.5t39.5 -46.5t31.5 -39.5t18 -26.5
q-48 -55 -91 -119t-79.5 -129.5t-66.5 -129.5t-51 -119t-32.5 -98t-11.5 -67q0 -14 4.5 -26t11.5 -23q110 173 221 351.5t223 364.5q-32 2 -61 5.5t-53 7.5q-12 14 -26 40t-25.5 60t-19.5 74t-8 82q0 80 25.5 150.5t68.5 129t98 104t114 77t117 48t107 16.5q28 0 56.5 -10
t56.5 -27l190 325q25 -24 39.5 -36t25.5 -21t23 -20t33 -35zM324 54q77 35 165 104.5t175 164t166.5 210.5t141 245t98 267t36.5 276v4q-83 -135 -180.5 -295t-200 -327t-205.5 -333.5t-196 -315.5zM664 1143q-14 -75 -7 -135.5t22 -107.5q82 137 163.5 274t162.5 275
q-75 -2 -134 -31.5t-102 -74t-69.5 -98t-35.5 -102.5z" />
    <glyph glyph-name="Ugrave" unicode="&#xd9;" horiz-adv-x="1346" 
d="M678 -74q52 150 102 265.5t93 211.5q-49 -74 -91.5 -130t-74.5 -94q-38 -45 -70 -77q-76 -73 -135.5 -126t-106 -87.5t-81.5 -51.5t-62 -17q-21 0 -44.5 14.5t-46 36t-42.5 45.5t-35 43q-25 32 -28 83t-3 126q0 115 19.5 241t55.5 253.5t87 254t114 243t136 218.5
t153 183q21 -22 48 -50.5t54.5 -58.5t53 -59.5t43.5 -51.5q-85 -77 -159.5 -173.5t-136.5 -206t-111 -228t-82.5 -240t-52 -242.5t-19.5 -234q111 56 204 136t170.5 174.5t141 198.5t115 210t92 209t73.5 194t58.5 166t46.5 125q10 -15 27 -37t36.5 -47.5t40 -51.5t38 -48.5
t30.5 -39t17 -22.5q-54 -139 -97 -261.5t-80 -235t-69.5 -220t-65.5 -218t-69.5 -227t-79.5 -247.5zM1188 1651q-23 -11 -43 -17t-49 -14q-15 26 -33.5 59t-38 71.5t-38.5 81.5t-35 89q51 19 92 29.5t61 13.5l84 -313v0z" />
    <glyph glyph-name="Uacute" unicode="&#xda;" horiz-adv-x="1346" 
d="M678 -74q52 150 102 265.5t93 211.5q-49 -74 -91.5 -130t-74.5 -94q-38 -45 -70 -77q-76 -73 -135.5 -126t-106 -87.5t-81.5 -51.5t-62 -17q-21 0 -44.5 14.5t-46 36t-42.5 45.5t-35 43q-25 32 -28 83t-3 126q0 115 19.5 241t55.5 253.5t87 254t114 243t136 218.5
t153 183q21 -22 48 -50.5t54.5 -58.5t53 -59.5t43.5 -51.5q-85 -77 -159.5 -173.5t-136.5 -206t-111 -228t-82.5 -240t-52 -242.5t-19.5 -234q111 56 204 136t170.5 174.5t141 198.5t115 210t92 209t73.5 194t58.5 166t46.5 125q10 -15 27 -37t36.5 -47.5t40 -51.5t38 -48.5
t30.5 -39t17 -22.5q-54 -139 -97 -261.5t-80 -235t-69.5 -220t-65.5 -218t-69.5 -227t-79.5 -247.5zM1346 1866q-56 -69 -121 -131t-131 -115q-5 3 -15.5 11t-21.5 18t-21 18.5t-14 13.5q25 31 56 73t60 83.5t52 76t33 52.5q21 -10 40.5 -25.5t36 -30.5t28.5 -27.5t18 -16.5
z" />
    <glyph glyph-name="Ucircumflex" unicode="&#xdb;" horiz-adv-x="1346" 
d="M678 -74q52 150 102 265.5t93 211.5q-49 -74 -91.5 -130t-74.5 -94q-38 -45 -70 -77q-76 -73 -135.5 -126t-106 -87.5t-81.5 -51.5t-62 -17q-21 0 -44.5 14.5t-46 36t-42.5 45.5t-35 43q-25 32 -28 83t-3 126q0 115 19.5 241t55.5 253.5t87 254t114 243t136 218.5
t153 183q21 -22 48 -50.5t54.5 -58.5t53 -59.5t43.5 -51.5q-85 -77 -159.5 -173.5t-136.5 -206t-111 -228t-82.5 -240t-52 -242.5t-19.5 -234q111 56 204 136t170.5 174.5t141 198.5t115 210t92 209t73.5 194t58.5 166t46.5 125q10 -15 27 -37t36.5 -47.5t40 -51.5t38 -48.5
t30.5 -39t17 -22.5q-54 -139 -97 -261.5t-80 -235t-69.5 -220t-65.5 -218t-69.5 -227t-79.5 -247.5zM1307 1638q-26 -5 -53 -9t-58 -9q-14 38 -29 86t-26 102q-51 -44 -101 -85.5t-116 -92.5q-11 16 -23.5 27.5t-29.5 30.5q34 31 71 66.5t72 70.5l67 67l58 58q45 -6 75 -18
t56 -27q3 -28 7.5 -65t9.5 -74.5t10 -71.5t10 -56z" />
    <glyph glyph-name="Udieresis" unicode="&#xdc;" horiz-adv-x="1346" 
d="M678 -74q52 150 102 265.5t93 211.5q-49 -74 -91.5 -130t-74.5 -94q-38 -45 -70 -77q-76 -73 -135.5 -126t-106 -87.5t-81.5 -51.5t-62 -17q-21 0 -44.5 14.5t-46 36t-42.5 45.5t-35 43q-25 32 -28 83t-3 126q0 115 19.5 241t55.5 253.5t87 254t114 243t136 218.5
t153 183q21 -22 48 -50.5t54.5 -58.5t53 -59.5t43.5 -51.5q-85 -77 -159.5 -173.5t-136.5 -206t-111 -228t-82.5 -240t-52 -242.5t-19.5 -234q111 56 204 136t170.5 174.5t141 198.5t115 210t92 209t73.5 194t58.5 166t46.5 125q10 -15 27 -37t36.5 -47.5t40 -51.5t38 -48.5
t30.5 -39t17 -22.5q-54 -139 -97 -261.5t-80 -235t-69.5 -220t-65.5 -218t-69.5 -227t-79.5 -247.5zM1096 1819q0 -6 -12 -30.5t-27.5 -51t-30.5 -47.5t-22 -21t-31 10t-49.5 23t-45.5 25.5t-20 17.5q0 15 11.5 43t26.5 55.5t29 47.5t19 20q13 0 38.5 -12.5t50.5 -28.5
t44 -31t19 -20zM1383 1798q0 -6 -12 -30t-27.5 -50.5t-30.5 -47.5t-22 -21t-31 9.5t-49.5 22.5t-45.5 25.5t-20 17.5q0 15 11.5 43t26.5 55.5t29 47.5t19 20q13 0 38.5 -12.5t50.5 -28t44 -30.5t19 -21z" />
    <glyph glyph-name="Yacute" unicode="&#xdd;" horiz-adv-x="1294" 
d="M590 -1004q-32 32 -59.5 61t-54.5 57t-55.5 57t-60.5 61q42 124 90 249.5t107 263.5t132 293t166 339q-46 -68 -85.5 -119t-68.5 -86q-34 -40 -64 -70q-76 -73 -135.5 -126t-106 -87.5t-81.5 -51.5t-62 -17q-21 0 -44.5 14.5t-46 36t-42.5 45.5t-35 43q-25 32 -28 83
t-3 126q0 115 19.5 241t55.5 253.5t87 254t114 243t136 218.5t153 183q21 -22 48 -50.5t54.5 -58.5t53 -59.5t43.5 -51.5q-85 -77 -159.5 -173.5t-136.5 -206t-111 -228t-82.5 -240t-52 -242.5t-19.5 -234q111 56 204 136t170.5 174.5t141 198.5t115 210t92 209t73.5 194
t58.5 166t46.5 125q10 -15 27 -37t36.5 -47.5t40 -51.5t38 -48.5t30.5 -39t17 -22.5q-53 -126 -104.5 -251.5t-105.5 -265t-112 -301.5t-124.5 -363t-143 -449t-166.5 -558zM1291 1886q-56 -69 -121 -131t-131 -115q-5 3 -15.5 11t-21.5 18t-21 18.5t-14 13.5q25 31 56 73
t60 83.5t52 76t33 52.5q21 -10 40.5 -25.5t36 -30.5t28.5 -27.5t18 -16.5z" />
    <glyph glyph-name="Thorn" unicode="&#xde;" horiz-adv-x="1268" 
d="M1288 922q0 -72 -24 -144t-65.5 -140t-97.5 -129.5t-120.5 -114t-133.5 -94t-136 -67.5q-11 16 -27.5 38.5t-35.5 47t-39 49.5t-38 46q143 56 253.5 126t186.5 147t115 157t39 155q0 10 -3 21t-10 19t-18.5 12t-27.5 0q-90 -20 -191.5 -68t-207.5 -117q-40 -110 -86 -223
t-96.5 -221t-104.5 -206.5t-108 -179t-107.5 -139t-104.5 -85.5q-15 -8 -36.5 -15t-53.5 -10q-12 -1 -28.5 10t-33.5 28t-34 38t-31.5 40t-24 34t-12.5 20q-8 15 -8.5 35.5t4.5 40.5q32 105 91 220t139 228.5t177.5 219.5t206.5 193q37 104 69 207t56.5 198.5t40 179.5
t19.5 151q40 -16 76 -40.5t65 -52t51 -54t35 -47.5q-8 -63 -30.5 -151.5t-54.5 -194.5q74 30 148 46.5t148 16.5q19 0 41.5 -12t45.5 -31.5t44.5 -43.5t38.5 -48.5t27.5 -46t11.5 -35.5v-14zM4 -8q21 0 56 44t78 120.5t91.5 179.5t97.5 222q-72 -72 -133.5 -146
t-105.5 -145.5t-69 -138.5t-25 -124q0 -12 10 -12z" />
    <glyph glyph-name="germandbls" unicode="&#xdf;" horiz-adv-x="829" 
d="M897 1370q5 -5 6.5 -10.5t1.5 -18.5q0 -78 -15 -150.5t-47.5 -145t-83.5 -147.5t-124 -157q-66 -74 -88.5 -140t-22.5 -128q0 -34 4.5 -66t10 -63t10 -60t4.5 -57q0 -32 -10.5 -73.5t-36.5 -75.5q51 31 100.5 68.5t89.5 70.5q47 39 88 78l45 -53q-33 -31 -71.5 -65.5
t-80 -68.5t-84.5 -64.5t-85 -53.5t-81 -37t-73 -14q-29 0 -64 14t-66 34t-53.5 42t-27.5 37q0 2 4 8.5t9.5 13.5t11 12.5t8.5 5.5q6 0 24.5 -9t59.5 -9q23 0 40.5 12t29 32t17 46t5.5 55q0 28 -3 58t-6 58.5t-6 53t-3 41.5q0 58 19.5 109t52 98t73.5 92.5t83.5 93.5
t83.5 101.5t73.5 116t52 136.5t19.5 163q0 14 -11 14q-15 0 -45 -30t-77.5 -96t-113 -171t-151.5 -256q-73 -133 -161 -340q-75 -177 -177.5 -455.5t-222.5 -672.5l-262 -86q101 317 200.5 597.5t198.5 517.5t197 428.5t196 331t196 224t198 108.5q18 -4 37.5 -14.5
t39 -24.5t36 -29.5t28.5 -29.5z" />
    <glyph glyph-name="agrave" unicode="&#xe0;" horiz-adv-x="846" 
d="M516 88q0 -6 6 -6q9 0 30 13t48 33t57.5 45t58.5 49t50.5 44t34.5 31q9 -9 22.5 -24t24.5 -27q-24 -22 -57.5 -53.5t-72 -65.5t-79.5 -67.5t-80 -59.5t-74 -42.5t-61 -16.5q-18 0 -39.5 7t-39.5 19.5t-30 29.5t-12 38q0 8 -0.5 19.5t1.5 30t8 45t18 65.5
q-33 -35 -77.5 -73t-93.5 -72t-98.5 -61.5t-91.5 -41.5q-5 -2 -8 -2h-6q-10 0 -26.5 10t-32.5 26.5t-27.5 37.5t-11.5 42q0 6 6 40t28.5 86.5t66.5 118t120 134.5q39 35 84 66q38 26 87 53t103 43q2 0 3.5 1t4.5 -1q12 -4 28.5 -12.5t33 -18t29 -19t16.5 -15.5q1 -2 0 -3
l-2 -2q-45 -24 -85 -53.5t-71 -55.5q-36 -31 -67 -61q-73 -72 -101 -124.5t-28 -75.5q0 -17 14 -17t35.5 11.5t48.5 31t59.5 46t67.5 55.5q31 25 60 54q25 24 52 55t46 63q0 1 1 2t3 0q11 -8 25 -26.5t26 -40.5t20.5 -42.5t8.5 -31.5q-23 -47 -35.5 -85.5t-19 -67.5
t-8 -49.5t-1.5 -31.5zM551 715q-23 -11 -43 -17t-49 -14q-15 26 -33.5 59t-38 71.5t-38.5 81.5t-35 89q51 19 92 29.5t61 13.5l84 -313v0z" />
    <glyph glyph-name="aacute" unicode="&#xe1;" horiz-adv-x="846" 
d="M516 88q0 -6 6 -6q9 0 30 13t48 33t57.5 45t58.5 49t50.5 44t34.5 31q9 -9 22.5 -24t24.5 -27q-24 -22 -57.5 -53.5t-72 -65.5t-79.5 -67.5t-80 -59.5t-74 -42.5t-61 -16.5q-18 0 -39.5 7t-39.5 19.5t-30 29.5t-12 38q0 8 -0.5 19.5t1.5 30t8 45t18 65.5
q-33 -35 -77.5 -73t-93.5 -72t-98.5 -61.5t-91.5 -41.5q-5 -2 -8 -2h-6q-10 0 -26.5 10t-32.5 26.5t-27.5 37.5t-11.5 42q0 6 6 40t28.5 86.5t66.5 118t120 134.5q39 35 84 66q38 26 87 53t103 43q2 0 3.5 1t4.5 -1q12 -4 28.5 -12.5t33 -18t29 -19t16.5 -15.5q1 -2 0 -3
l-2 -2q-45 -24 -85 -53.5t-71 -55.5q-36 -31 -67 -61q-73 -72 -101 -124.5t-28 -75.5q0 -17 14 -17t35.5 11.5t48.5 31t59.5 46t67.5 55.5q31 25 60 54q25 24 52 55t46 63q0 1 1 2t3 0q11 -8 25 -26.5t26 -40.5t20.5 -42.5t8.5 -31.5q-23 -47 -35.5 -85.5t-19 -67.5
t-8 -49.5t-1.5 -31.5zM709 930q-56 -69 -121 -131t-131 -115q-5 3 -15.5 11t-21.5 18t-21 18.5t-14 13.5q25 31 56 73t60 83.5t52 76t33 52.5q21 -10 40.5 -25.5t36 -30.5t28.5 -27.5t18 -16.5z" />
    <glyph glyph-name="acircumflex" unicode="&#xe2;" horiz-adv-x="846" 
d="M516 88q0 -6 6 -6q9 0 30 13t48 33t57.5 45t58.5 49t50.5 44t34.5 31q9 -9 22.5 -24t24.5 -27q-24 -22 -57.5 -53.5t-72 -65.5t-79.5 -67.5t-80 -59.5t-74 -42.5t-61 -16.5q-18 0 -39.5 7t-39.5 19.5t-30 29.5t-12 38q0 8 -0.5 19.5t1.5 30t8 45t18 65.5
q-33 -35 -77.5 -73t-93.5 -72t-98.5 -61.5t-91.5 -41.5q-5 -2 -8 -2h-6q-10 0 -26.5 10t-32.5 26.5t-27.5 37.5t-11.5 42q0 6 6 40t28.5 86.5t66.5 118t120 134.5q39 35 84 66q38 26 87 53t103 43q2 0 3.5 1t4.5 -1q12 -4 28.5 -12.5t33 -18t29 -19t16.5 -15.5q1 -2 0 -3
l-2 -2q-45 -24 -85 -53.5t-71 -55.5q-36 -31 -67 -61q-73 -72 -101 -124.5t-28 -75.5q0 -17 14 -17t35.5 11.5t48.5 31t59.5 46t67.5 55.5q31 25 60 54q25 24 52 55t46 63q0 1 1 2t3 0q11 -8 25 -26.5t26 -40.5t20.5 -42.5t8.5 -31.5q-23 -47 -35.5 -85.5t-19 -67.5
t-8 -49.5t-1.5 -31.5zM670 702q-26 -5 -53 -9t-58 -9q-14 38 -29 86t-26 102q-51 -44 -101 -85.5t-116 -92.5q-11 16 -23.5 27.5t-29.5 30.5q34 31 71 66.5t72 70.5l67 67l58 58q45 -6 75 -18t56 -27q3 -28 7.5 -65t9.5 -74.5t10 -71.5t10 -56z" />
    <glyph glyph-name="atilde" unicode="&#xe3;" horiz-adv-x="846" 
d="M516 88q0 -6 6 -6q9 0 30 13t48 33t57.5 45t58.5 49t50.5 44t34.5 31q9 -9 22.5 -24t24.5 -27q-24 -22 -57.5 -53.5t-72 -65.5t-79.5 -67.5t-80 -59.5t-74 -42.5t-61 -16.5q-18 0 -39.5 7t-39.5 19.5t-30 29.5t-12 38q0 8 -0.5 19.5t1.5 30t8 45t18 65.5
q-33 -35 -77.5 -73t-93.5 -72t-98.5 -61.5t-91.5 -41.5q-5 -2 -8 -2h-6q-10 0 -26.5 10t-32.5 26.5t-27.5 37.5t-11.5 42q0 6 6 40t28.5 86.5t66.5 118t120 134.5q39 35 84 66q38 26 87 53t103 43q2 0 3.5 1t4.5 -1q12 -4 28.5 -12.5t33 -18t29 -19t16.5 -15.5q1 -2 0 -3
l-2 -2q-45 -24 -85 -53.5t-71 -55.5q-36 -31 -67 -61q-73 -72 -101 -124.5t-28 -75.5q0 -17 14 -17t35.5 11.5t48.5 31t59.5 46t67.5 55.5q31 25 60 54q25 24 52 55t46 63q0 1 1 2t3 0q11 -8 25 -26.5t26 -40.5t20.5 -42.5t8.5 -31.5q-23 -47 -35.5 -85.5t-19 -67.5
t-8 -49.5t-1.5 -31.5zM609 856q16 0 32 7t30.5 18.5t27.5 25.5t24 29q19 -9 34.5 -21t35.5 -24q-16 -25 -39 -55t-53.5 -56t-67.5 -43.5t-82 -17.5q-17 0 -39.5 17t-46 38t-44.5 38.5t-36 18.5q-11 0 -26.5 -7.5t-32.5 -19.5t-33.5 -28t-30.5 -33q-26 17 -39 29t-30 25
q19 23 46 52.5t59 55.5t68.5 44t74.5 18q16 0 38.5 -17.5t45.5 -38t45.5 -38t38.5 -17.5z" />
    <glyph glyph-name="adieresis" unicode="&#xe4;" horiz-adv-x="846" 
d="M516 88q0 -6 6 -6q9 0 30 13t48 33t57.5 45t58.5 49t50.5 44t34.5 31q9 -9 22.5 -24t24.5 -27q-24 -22 -57.5 -53.5t-72 -65.5t-79.5 -67.5t-80 -59.5t-74 -42.5t-61 -16.5q-18 0 -39.5 7t-39.5 19.5t-30 29.5t-12 38q0 8 -0.5 19.5t1.5 30t8 45t18 65.5
q-33 -35 -77.5 -73t-93.5 -72t-98.5 -61.5t-91.5 -41.5q-5 -2 -8 -2h-6q-10 0 -26.5 10t-32.5 26.5t-27.5 37.5t-11.5 42q0 6 6 40t28.5 86.5t66.5 118t120 134.5q39 35 84 66q38 26 87 53t103 43q2 0 3.5 1t4.5 -1q12 -4 28.5 -12.5t33 -18t29 -19t16.5 -15.5q1 -2 0 -3
l-2 -2q-45 -24 -85 -53.5t-71 -55.5q-36 -31 -67 -61q-73 -72 -101 -124.5t-28 -75.5q0 -17 14 -17t35.5 11.5t48.5 31t59.5 46t67.5 55.5q31 25 60 54q25 24 52 55t46 63q0 1 1 2t3 0q11 -8 25 -26.5t26 -40.5t20.5 -42.5t8.5 -31.5q-23 -47 -35.5 -85.5t-19 -67.5
t-8 -49.5t-1.5 -31.5zM459 883q0 -6 -12 -30.5t-27.5 -51t-30.5 -47.5t-22 -21t-31 10t-49.5 23t-45.5 25.5t-20 17.5q0 15 11.5 43t26.5 55.5t29 47.5t19 20q13 0 38.5 -12.5t50.5 -28.5t44 -31t19 -20zM746 862q0 -6 -12 -30t-27.5 -50.5t-30.5 -47.5t-22 -21t-31 9.5
t-49.5 22.5t-45.5 25.5t-20 17.5q0 15 11.5 43t26.5 55.5t29 47.5t19 20q13 0 38.5 -12.5t50.5 -28t44 -30.5t19 -21z" />
    <glyph glyph-name="aring" unicode="&#xe5;" horiz-adv-x="846" 
d="M516 88q0 -6 6 -6q9 0 30 13t48 33t57.5 45t58.5 49t50.5 44t34.5 31q9 -9 22.5 -24t24.5 -27q-24 -22 -57.5 -53.5t-72 -65.5t-79.5 -67.5t-80 -59.5t-74 -42.5t-61 -16.5q-18 0 -39.5 7t-39.5 19.5t-30 29.5t-12 38q0 8 -0.5 19.5t1.5 30t8 45t18 65.5
q-33 -35 -77.5 -73t-93.5 -72t-98.5 -61.5t-91.5 -41.5q-5 -2 -8 -2h-6q-10 0 -26.5 10t-32.5 26.5t-27.5 37.5t-11.5 42q0 6 6 40t28.5 86.5t66.5 118t120 134.5q39 35 84 66q38 26 87 53t103 43q2 0 3.5 1t4.5 -1q12 -4 28.5 -12.5t33 -18t29 -19t16.5 -15.5q1 -2 0 -3
l-2 -2q-45 -24 -85 -53.5t-71 -55.5q-36 -31 -67 -61q-73 -72 -101 -124.5t-28 -75.5q0 -17 14 -17t35.5 11.5t48.5 31t59.5 46t67.5 55.5q31 25 60 54q25 24 52 55t46 63q0 1 1 2t3 0q11 -8 25 -26.5t26 -40.5t20.5 -42.5t8.5 -31.5q-23 -47 -35.5 -85.5t-19 -67.5
t-8 -49.5t-1.5 -31.5zM651 883q0 -45 -21 -84.5t-54 -69.5t-74.5 -47.5t-81.5 -17.5q-22 0 -47.5 11.5t-47.5 30.5t-36.5 43t-14.5 50q0 43 16.5 85t46.5 75.5t71 54t90 20.5q21 0 47.5 -13t50 -34.5t39.5 -48.5t16 -55zM537 967q-22 0 -45.5 -17.5t-43 -45.5t-32.5 -63.5
t-13 -70.5q0 -12 3.5 -19.5t17.5 -7.5q23 0 47 15.5t43.5 41.5t32 60t12.5 72q0 35 -22 35z" />
    <glyph glyph-name="ae" unicode="&#xe6;" horiz-adv-x="1106" 
d="M1108 246q-92 -90 -173.5 -151t-155.5 -98t-141.5 -53t-131.5 -16q-27 0 -60 20t-61.5 48.5t-48 59.5t-19.5 53q0 32 3 62q-41 -35 -85.5 -69.5t-89.5 -64t-89.5 -53t-86.5 -37.5q-5 -2 -8 -2h-6q-10 0 -26.5 10t-32.5 26.5t-27.5 37.5t-11.5 42q0 45 17.5 99t52.5 110
t87 109.5t120.5 98.5t154 78t186.5 46q2 0 3.5 1t4.5 -1q9 -3 22.5 -9.5t27 -14t26 -16t20.5 -15.5q53 29 104.5 44t96.5 15q31 0 61.5 -18t55 -44t40 -54.5t15.5 -49.5q0 -34 -28.5 -69.5t-80.5 -72.5t-124.5 -75.5t-160.5 -77.5q-3 -24 -3 -47q0 -31 13 -42t50 -11
q66 0 125 22t113 57t104 80t99 91zM338 289q2 1 5 4q2 2 5.5 5t7.5 6q29 69 75.5 122.5t100.5 91.5q-76 -22 -151 -60.5t-134.5 -86t-96.5 -101.5t-37 -108q0 -17 14 -17t35.5 11.5t48.5 31t59.5 46t67.5 55.5zM756 496q-20 0 -44 -21t-48 -56t-46 -80.5t-37 -94.5
q37 24 72 51t63 56.5t45 60.5t17 61q0 9 -5.5 16t-16.5 7z" />
    <glyph glyph-name="ccedilla" unicode="&#xe7;" horiz-adv-x="653" 
d="M262 -217q0 -32 -12 -68.5t-43.5 -69t-86 -58t-138.5 -36.5q-7 8 -13.5 23.5t-11.5 33.5t-9.5 34.5t-8.5 27.5q26 3 62 10t69 19t56.5 29.5t23.5 42.5q0 1 -1.5 5.5t-7 9t-15 8t-24.5 3.5q-22 0 -40 -2t-31 -3.5t-20 -2t-7 3.5q12 29 29 64t33 69h-27q-18 0 -41 11.5
t-47 31t-46.5 46t-37.5 55.5q-6 11 -8 25t-2 36q0 57 17.5 114.5t48.5 109.5t74.5 97.5t94.5 78.5t109 52t118 19q9 0 24.5 -9.5t33.5 -25.5t36.5 -36t33.5 -40.5t24.5 -40t9.5 -34.5q-5 -19 -31 -41.5t-61.5 -42t-74.5 -32.5t-68 -13q-17 0 -17 10q0 11 15 32.5t33.5 47
t33.5 51t15 43.5q0 9 -4.5 15t-12.5 6q-22 0 -46 -20t-48 -53t-46 -75.5t-38.5 -87.5t-26.5 -90t-10 -82q0 -22 13 -30.5t40 -8.5q67 0 129.5 22.5t120 58t109.5 79.5t98 88q11 -13 27 -25.5t24 -21.5q-53 -56 -111 -106t-121.5 -91t-132 -70t-143.5 -42l-36 -87
q18 5 32.5 8t38.5 3q11 0 24 -7t24.5 -18t20.5 -25t11 -28z" />
    <glyph glyph-name="egrave" unicode="&#xe8;" horiz-adv-x="645" 
d="M647 246q-92 -90 -173.5 -151t-155.5 -98t-141.5 -53t-131.5 -16q-27 0 -60 20t-61.5 48.5t-47.5 59.5t-19 53q0 82 22.5 150.5t59.5 123.5t84.5 97t99 70t102.5 42t94 14q31 0 61.5 -18t55.5 -44t40.5 -54.5t15.5 -49.5q0 -34 -28.5 -69.5t-80.5 -72.5t-125 -75.5
t-161 -77.5q-3 -24 -3 -47q0 -31 13.5 -42t50.5 -11q66 0 124.5 22t112.5 57t104 80t99 91zM295 496q-20 0 -44 -21.5t-48 -56.5t-46 -80.5t-38 -94.5q37 24 72.5 51t63.5 56.5t45 60.5t17 62q0 9 -5.5 16t-16.5 7zM439 715q-23 -11 -43 -17t-49 -14q-15 26 -33.5 59
t-38 71.5t-38.5 81.5t-35 89q51 19 92 29.5t61 13.5l84 -313v0z" />
    <glyph glyph-name="eacute" unicode="&#xe9;" horiz-adv-x="645" 
d="M647 246q-92 -90 -173.5 -151t-155.5 -98t-141.5 -53t-131.5 -16q-27 0 -60 20t-61.5 48.5t-47.5 59.5t-19 53q0 82 22.5 150.5t59.5 123.5t84.5 97t99 70t102.5 42t94 14q31 0 61.5 -18t55.5 -44t40.5 -54.5t15.5 -49.5q0 -34 -28.5 -69.5t-80.5 -72.5t-125 -75.5
t-161 -77.5q-3 -24 -3 -47q0 -31 13.5 -42t50.5 -11q66 0 124.5 22t112.5 57t104 80t99 91zM295 496q-20 0 -44 -21.5t-48 -56.5t-46 -80.5t-38 -94.5q37 24 72.5 51t63.5 56.5t45 60.5t17 62q0 9 -5.5 16t-16.5 7zM596 930q-56 -69 -121 -131t-131 -115q-5 3 -15.5 11
t-21.5 18t-21 18.5t-14 13.5q25 31 56 73t60 83.5t52 76t33 52.5q21 -10 40.5 -25.5t36 -30.5t28.5 -27.5t18 -16.5z" />
    <glyph glyph-name="ecircumflex" unicode="&#xea;" horiz-adv-x="645" 
d="M647 246q-92 -90 -173.5 -151t-155.5 -98t-141.5 -53t-131.5 -16q-27 0 -60 20t-61.5 48.5t-47.5 59.5t-19 53q0 82 22.5 150.5t59.5 123.5t84.5 97t99 70t102.5 42t94 14q31 0 61.5 -18t55.5 -44t40.5 -54.5t15.5 -49.5q0 -34 -28.5 -69.5t-80.5 -72.5t-125 -75.5
t-161 -77.5q-3 -24 -3 -47q0 -31 13.5 -42t50.5 -11q66 0 124.5 22t112.5 57t104 80t99 91zM295 496q-20 0 -44 -21.5t-48 -56.5t-46 -80.5t-38 -94.5q37 24 72.5 51t63.5 56.5t45 60.5t17 62q0 9 -5.5 16t-16.5 7zM558 702q-26 -5 -53 -9t-58 -9q-14 38 -29 86t-26 102
q-51 -44 -101 -85.5t-116 -92.5q-11 16 -23.5 27.5t-29.5 30.5q34 31 71 66.5t72 70.5l67 67l58 58q45 -6 75 -18t56 -27q3 -28 7.5 -65t9.5 -74.5t10 -71.5t10 -56z" />
    <glyph glyph-name="edieresis" unicode="&#xeb;" horiz-adv-x="645" 
d="M647 246q-92 -90 -173.5 -151t-155.5 -98t-141.5 -53t-131.5 -16q-27 0 -60 20t-61.5 48.5t-47.5 59.5t-19 53q0 82 22.5 150.5t59.5 123.5t84.5 97t99 70t102.5 42t94 14q31 0 61.5 -18t55.5 -44t40.5 -54.5t15.5 -49.5q0 -34 -28.5 -69.5t-80.5 -72.5t-125 -75.5
t-161 -77.5q-3 -24 -3 -47q0 -31 13.5 -42t50.5 -11q66 0 124.5 22t112.5 57t104 80t99 91zM295 496q-20 0 -44 -21.5t-48 -56.5t-46 -80.5t-38 -94.5q37 24 72.5 51t63.5 56.5t45 60.5t17 62q0 9 -5.5 16t-16.5 7zM347 883q0 -6 -12 -30.5t-27.5 -51t-30.5 -47.5t-22 -21
t-31 10t-49.5 23t-45.5 25.5t-20 17.5q0 15 11.5 43t26.5 55.5t29 47.5t19 20q13 0 38.5 -12.5t50.5 -28.5t44 -31t19 -20zM634 862q0 -6 -12 -30t-27.5 -50.5t-30.5 -47.5t-22 -21t-31 9.5t-49.5 22.5t-45.5 25.5t-20 17.5q0 15 11.5 43t26.5 55.5t29 47.5t19 20
q13 0 38.5 -12.5t50.5 -28t44 -30.5t19 -21z" />
    <glyph glyph-name="igrave" unicode="&#xec;" horiz-adv-x="428" 
d="M18 -55q-15 0 -38 10.5t-44 26t-36 34.5t-15 37q10 44 27 101t36.5 116t41 115.5t39 100.5t30.5 71t17 27q6 0 30 -13t50.5 -31.5t47.5 -39t21 -35.5q0 -3 -1 -7.5t-3 -11.5q-8 -25 -20.5 -59t-26.5 -70.5l-28 -73t-25 -68.5t-18 -56t-7 -35q0 -6 6 -6q11 0 33 13
t50.5 34t59.5 46t59.5 49.5t51.5 44.5t35 30q9 -9 21.5 -23t23.5 -26q-22 -22 -55 -53.5t-71.5 -64.5t-80 -66t-80.5 -59t-73 -42t-58 -16zM322 715q-23 -11 -43 -17t-49 -14q-15 26 -33.5 59t-38 71.5t-38.5 81.5t-35 89q51 19 92 29.5t61 13.5l84 -313v0z" />
    <glyph glyph-name="iacute" unicode="&#xed;" horiz-adv-x="428" 
d="M18 -55q-15 0 -38 10.5t-44 26t-36 34.5t-15 37q10 44 27 101t36.5 116t41 115.5t39 100.5t30.5 71t17 27q6 0 30 -13t50.5 -31.5t47.5 -39t21 -35.5q0 -3 -1 -7.5t-3 -11.5q-8 -25 -20.5 -59t-26.5 -70.5l-28 -73t-25 -68.5t-18 -56t-7 -35q0 -6 6 -6q11 0 33 13
t50.5 34t59.5 46t59.5 49.5t51.5 44.5t35 30q9 -9 21.5 -23t23.5 -26q-22 -22 -55 -53.5t-71.5 -64.5t-80 -66t-80.5 -59t-73 -42t-58 -16zM481 930q-56 -69 -121 -131t-131 -115q-5 3 -15.5 11t-21.5 18t-21 18.5t-14 13.5q25 31 56 73t60 83.5t52 76t33 52.5
q21 -10 40.5 -25.5t36 -30.5t28.5 -27.5t18 -16.5z" />
    <glyph glyph-name="icircumflex" unicode="&#xee;" horiz-adv-x="428" 
d="M18 -55q-15 0 -38 10.5t-44 26t-36 34.5t-15 37q10 44 27 101t36.5 116t41 115.5t39 100.5t30.5 71t17 27q6 0 30 -13t50.5 -31.5t47.5 -39t21 -35.5q0 -3 -1 -7.5t-3 -11.5q-8 -25 -20.5 -59t-26.5 -70.5l-28 -73t-25 -68.5t-18 -56t-7 -35q0 -6 6 -6q11 0 33 13
t50.5 34t59.5 46t59.5 49.5t51.5 44.5t35 30q9 -9 21.5 -23t23.5 -26q-22 -22 -55 -53.5t-71.5 -64.5t-80 -66t-80.5 -59t-73 -42t-58 -16zM441 702q-26 -5 -53 -9t-58 -9q-14 38 -29 86t-26 102q-51 -44 -101 -85.5t-116 -92.5q-11 16 -23.5 27.5t-29.5 30.5q34 31 71 66.5
t72 70.5l67 67l58 58q45 -6 75 -18t56 -27q3 -28 7.5 -65t9.5 -74.5t10 -71.5t10 -56z" />
    <glyph glyph-name="idieresis" unicode="&#xef;" horiz-adv-x="428" 
d="M18 -55q-15 0 -38 10.5t-44 26t-36 34.5t-15 37q10 44 27 101t36.5 116t41 115.5t39 100.5t30.5 71t17 27q6 0 30 -13t50.5 -31.5t47.5 -39t21 -35.5q0 -3 -1 -7.5t-3 -11.5q-8 -25 -20.5 -59t-26.5 -70.5l-28 -73t-25 -68.5t-18 -56t-7 -35q0 -6 6 -6q11 0 33 13
t50.5 34t59.5 46t59.5 49.5t51.5 44.5t35 30q9 -9 21.5 -23t23.5 -26q-22 -22 -55 -53.5t-71.5 -64.5t-80 -66t-80.5 -59t-73 -42t-58 -16zM230 883q0 -6 -12 -30.5t-27.5 -51t-30.5 -47.5t-22 -21t-31 10t-49.5 23t-45.5 25.5t-20 17.5q0 15 11.5 43t26.5 55.5t29 47.5
t19 20q13 0 38.5 -12.5t50.5 -28.5t44 -31t19 -20zM517 862q0 -6 -12 -30t-27.5 -50.5t-30.5 -47.5t-22 -21t-31 9.5t-49.5 22.5t-45.5 25.5t-20 17.5q0 15 11.5 43t26.5 55.5t29 47.5t19 20q13 0 38.5 -12.5t50.5 -28t44 -30.5t19 -21z" />
    <glyph glyph-name="eth" unicode="&#xf0;" horiz-adv-x="655" 
d="M717 1241q20 -23 41.5 -50t50.5 -71q-48 -15 -104 -33.5t-118 -38.5q8 -47 12.5 -96.5t4.5 -101.5q0 -83 -17.5 -182.5t-50.5 -200t-81.5 -194.5t-110.5 -167t-137.5 -117t-161.5 -44q-30 0 -62 18t-58 44.5t-43 56.5t-17 53q0 76 20.5 151t64 140.5t111 115.5t160.5 76
q3 2 10.5 3t12.5 1q14 0 29.5 -10.5t29 -23.5t22.5 -25.5t9 -16.5q-2 -5 -15 -12.5t-35 -25.5t-52 -51.5t-66 -88.5q-54 -81 -73 -146.5t-19 -101.5q0 -30 22 -30q39 0 79.5 31.5t79 83.5t72 120t59 141t40 145.5t14.5 135.5q0 72 -8 135.5t-22 120.5q-99 -35 -189 -74
q-14 14 -28.5 39t-26.5 56q42 20 95 44t110 48q-46 102 -115 176l150 137q97 -97 147 -237q64 26 109 44t55 23z" />
    <glyph glyph-name="ntilde" unicode="&#xf1;" horiz-adv-x="823" 
d="M236 483q-12 -32 -24 -65t-24 -68q63 72 108.5 117.5t77 71.5t51 35.5t30.5 9.5q13 0 39 -13t52.5 -32t46 -39t19.5 -35q0 -3 -1 -7.5t-3 -11.5q-8 -25 -20.5 -59t-26.5 -70.5l-28 -73t-25 -68.5t-18 -56t-7 -35q0 -6 6 -6q11 0 33 13t50.5 34t59.5 46t59.5 49.5
t51.5 44.5t35 30q10 -9 22 -23t23 -26q-22 -22 -55 -53.5t-71.5 -64.5t-80 -66t-80.5 -59t-73 -42t-57 -16q-15 0 -38 10.5t-44.5 26t-36.5 34.5t-15 37q9 41 24.5 93t33.5 106.5t37.5 108t37.5 98.5l-2 -2q-19 -23 -54.5 -60.5t-80.5 -96t-95 -141t-98 -195.5
q-6 -14 -11 -22t-19 -8q-17 0 -38.5 9.5t-44 25t-45 34.5t-40.5 38q0 6 5.5 34t15.5 70.5t25 97t34 114.5t41.5 122.5t48.5 120.5q42 -20 93.5 -49t95.5 -68zM522 856q16 0 32 7t30.5 18.5t27.5 25.5t24 29q19 -9 34.5 -21t35.5 -24q-16 -25 -39 -55t-53.5 -56t-67.5 -43.5
t-82 -17.5q-17 0 -39.5 17t-46 38t-44.5 38.5t-36 18.5q-11 0 -26.5 -7.5t-32.5 -19.5t-33.5 -28t-30.5 -33q-26 17 -39 29t-30 25q19 23 46 52.5t59 55.5t68.5 44t74.5 18q16 0 38.5 -17.5t45.5 -38t45.5 -38t38.5 -17.5z" />
    <glyph glyph-name="ograve" unicode="&#xf2;" horiz-adv-x="672" 
d="M74 102q0 -30 22 -30q23 0 61 36.5t79 92.5q-2 11 -2.5 19.5t-0.5 15.5q0 20 4.5 47.5t22.5 62.5q12 27 29 53q14 23 34 49.5t44 49.5l6 6q10 -12 26.5 -32.5t33 -42t29 -39.5t15.5 -25q0 -43 -15.5 -86t-41.5 -85q60 4 111.5 30.5t107.5 86.5q9 -9 23.5 -24.5
t23.5 -26.5q-42 -44 -82.5 -73t-81 -46t-82.5 -24.5t-86 -7.5q-34 -36 -73 -66t-79.5 -52t-80.5 -34t-76 -12q-30 0 -62 18t-58 44.5t-43 56.5t-17 53q0 76 20.5 151t64 140.5t111 115.5t160.5 76q3 2 10.5 3t12.5 1q14 0 29.5 -10.5t29 -23.5t22.5 -25.5t9 -16.5
q-2 -5 -15 -12.5t-35 -25.5t-52 -51.5t-66 -88.5q-54 -81 -73 -146.5t-19 -101.5zM431 715q-23 -11 -43 -17t-49 -14q-15 26 -33.5 59t-38 71.5t-38.5 81.5t-35 89q51 19 92 29.5t61 13.5l84 -313v0z" />
    <glyph glyph-name="oacute" unicode="&#xf3;" horiz-adv-x="672" 
d="M74 102q0 -30 22 -30q23 0 61 36.5t79 92.5q-2 11 -2.5 19.5t-0.5 15.5q0 20 4.5 47.5t22.5 62.5q12 27 29 53q14 23 34 49.5t44 49.5l6 6q10 -12 26.5 -32.5t33 -42t29 -39.5t15.5 -25q0 -43 -15.5 -86t-41.5 -85q60 4 111.5 30.5t107.5 86.5q9 -9 23.5 -24.5
t23.5 -26.5q-42 -44 -82.5 -73t-81 -46t-82.5 -24.5t-86 -7.5q-34 -36 -73 -66t-79.5 -52t-80.5 -34t-76 -12q-30 0 -62 18t-58 44.5t-43 56.5t-17 53q0 76 20.5 151t64 140.5t111 115.5t160.5 76q3 2 10.5 3t12.5 1q14 0 29.5 -10.5t29 -23.5t22.5 -25.5t9 -16.5
q-2 -5 -15 -12.5t-35 -25.5t-52 -51.5t-66 -88.5q-54 -81 -73 -146.5t-19 -101.5zM588 930q-56 -69 -121 -131t-131 -115q-5 3 -15.5 11t-21.5 18t-21 18.5t-14 13.5q25 31 56 73t60 83.5t52 76t33 52.5q21 -10 40.5 -25.5t36 -30.5t28.5 -27.5t18 -16.5z" />
    <glyph glyph-name="ocircumflex" unicode="&#xf4;" horiz-adv-x="672" 
d="M74 102q0 -30 22 -30q23 0 61 36.5t79 92.5q-2 11 -2.5 19.5t-0.5 15.5q0 20 4.5 47.5t22.5 62.5q12 27 29 53q14 23 34 49.5t44 49.5l6 6q10 -12 26.5 -32.5t33 -42t29 -39.5t15.5 -25q0 -43 -15.5 -86t-41.5 -85q60 4 111.5 30.5t107.5 86.5q9 -9 23.5 -24.5
t23.5 -26.5q-42 -44 -82.5 -73t-81 -46t-82.5 -24.5t-86 -7.5q-34 -36 -73 -66t-79.5 -52t-80.5 -34t-76 -12q-30 0 -62 18t-58 44.5t-43 56.5t-17 53q0 76 20.5 151t64 140.5t111 115.5t160.5 76q3 2 10.5 3t12.5 1q14 0 29.5 -10.5t29 -23.5t22.5 -25.5t9 -16.5
q-2 -5 -15 -12.5t-35 -25.5t-52 -51.5t-66 -88.5q-54 -81 -73 -146.5t-19 -101.5zM550 702q-26 -5 -53 -9t-58 -9q-14 38 -29 86t-26 102q-51 -44 -101 -85.5t-116 -92.5q-11 16 -23.5 27.5t-29.5 30.5q34 31 71 66.5t72 70.5l67 67l58 58q45 -6 75 -18t56 -27
q3 -28 7.5 -65t9.5 -74.5t10 -71.5t10 -56z" />
    <glyph glyph-name="otilde" unicode="&#xf5;" horiz-adv-x="672" 
d="M74 102q0 -30 22 -30q23 0 61 36.5t79 92.5q-2 11 -2.5 19.5t-0.5 15.5q0 20 4.5 47.5t22.5 62.5q12 27 29 53q14 23 34 49.5t44 49.5l6 6q10 -12 26.5 -32.5t33 -42t29 -39.5t15.5 -25q0 -43 -15.5 -86t-41.5 -85q60 4 111.5 30.5t107.5 86.5q9 -9 23.5 -24.5
t23.5 -26.5q-42 -44 -82.5 -73t-81 -46t-82.5 -24.5t-86 -7.5q-34 -36 -73 -66t-79.5 -52t-80.5 -34t-76 -12q-30 0 -62 18t-58 44.5t-43 56.5t-17 53q0 76 20.5 151t64 140.5t111 115.5t160.5 76q3 2 10.5 3t12.5 1q14 0 29.5 -10.5t29 -23.5t22.5 -25.5t9 -16.5
q-2 -5 -15 -12.5t-35 -25.5t-52 -51.5t-66 -88.5q-54 -81 -73 -146.5t-19 -101.5zM489 856q16 0 32 7t30.5 18.5t27.5 25.5t24 29q19 -9 34.5 -21t35.5 -24q-16 -25 -39 -55t-53.5 -56t-67.5 -43.5t-82 -17.5q-17 0 -39.5 17t-46 38t-44.5 38.5t-36 18.5q-11 0 -26.5 -7.5
t-32.5 -19.5t-33.5 -28t-30.5 -33q-26 17 -39 29t-30 25q19 23 46 52.5t59 55.5t68.5 44t74.5 18q16 0 38.5 -17.5t45.5 -38t45.5 -38t38.5 -17.5z" />
    <glyph glyph-name="odieresis" unicode="&#xf6;" horiz-adv-x="672" 
d="M74 102q0 -30 22 -30q23 0 61 36.5t79 92.5q-2 11 -2.5 19.5t-0.5 15.5q0 20 4.5 47.5t22.5 62.5q12 27 29 53q14 23 34 49.5t44 49.5l6 6q10 -12 26.5 -32.5t33 -42t29 -39.5t15.5 -25q0 -43 -15.5 -86t-41.5 -85q60 4 111.5 30.5t107.5 86.5q9 -9 23.5 -24.5
t23.5 -26.5q-42 -44 -82.5 -73t-81 -46t-82.5 -24.5t-86 -7.5q-34 -36 -73 -66t-79.5 -52t-80.5 -34t-76 -12q-30 0 -62 18t-58 44.5t-43 56.5t-17 53q0 76 20.5 151t64 140.5t111 115.5t160.5 76q3 2 10.5 3t12.5 1q14 0 29.5 -10.5t29 -23.5t22.5 -25.5t9 -16.5
q-2 -5 -15 -12.5t-35 -25.5t-52 -51.5t-66 -88.5q-54 -81 -73 -146.5t-19 -101.5zM339 883q0 -6 -12 -30.5t-27.5 -51t-30.5 -47.5t-22 -21t-31 10t-49.5 23t-45.5 25.5t-20 17.5q0 15 11.5 43t26.5 55.5t29 47.5t19 20q13 0 38.5 -12.5t50.5 -28.5t44 -31t19 -20zM626 862
q0 -6 -12 -30t-27.5 -50.5t-30.5 -47.5t-22 -21t-31 9.5t-49.5 22.5t-45.5 25.5t-20 17.5q0 15 11.5 43t26.5 55.5t29 47.5t19 20q13 0 38.5 -12.5t50.5 -28t44 -30.5t19 -21z" />
    <glyph glyph-name="divide" unicode="&#xf7;" 
d="M623 641q-8 -23 -16.5 -47t-17 -45.5t-16 -39.5l-12.5 -30q-14 0 -59 -0.5t-105 -0.5t-127 -1t-124.5 -1t-98 -0.5t-47.5 -0.5q5 11 13.5 29t17.5 37.5t16.5 37t11.5 27.5q10 0 53.5 2.5t103.5 6.5t128.5 8.5t128 8.5t101.5 6.5t49 2.5zM487 831q0 -7 -11.5 -31
t-27 -50.5t-31 -47t-22.5 -20.5q-6 0 -29 10t-48.5 22.5t-45.5 25t-20 18.5q0 15 11.5 42.5t26.5 54.5t29 47t19 20q12 0 37 -12.5t50 -28t43.5 -30.5t18.5 -20zM356 330q0 -5 -5.5 -18t-14 -29.5t-19 -34.5t-21 -33t-19 -25t-13.5 -10q-6 0 -29 10t-48.5 23t-45.5 25.5
t-20 17.5q0 15 11.5 42.5t26.5 54.5t29 47t19 20q12 0 37 -12.5t50 -28t43.5 -30.5t18.5 -19z" />
    <glyph glyph-name="oslash" unicode="&#xf8;" horiz-adv-x="672" 
d="M549 674l-150 -201q12 -15 24.5 -31.5t24 -32t19.5 -27.5t10 -17q0 -43 -15.5 -86t-41.5 -85q60 4 111.5 30.5t107.5 86.5q9 -9 23.5 -24.5t23.5 -26.5q-42 -44 -82.5 -73t-81 -46t-82.5 -24.5t-86 -7.5q-34 -36 -73 -66t-79.5 -52t-80.5 -34t-76 -12q-11 0 -21 2.5
t-21 6.5q-45 -58 -85 -109.5t-74 -94.5l-69 53q38 48 77 97.5t79 101.5q-29 27 -47.5 58.5t-18.5 56.5q0 76 20.5 151t64 140.5t111 115.5t160.5 76q3 2 10.5 3t12.5 1q12 0 26 -8.5t26.5 -20t22 -23.5t13.5 -19q36 50 72 98t71 96zM125 350q-43 -64 -63 -118.5t-26 -93.5
q72 94 143.5 190t143.5 193q-11 -6 -32 -16t-48 -29t-57.5 -49.5t-60.5 -76.5zM233 254q-36 -48 -70.5 -93t-68.5 -89h2q37 0 74.5 29.5t72.5 75.5q-7 17 -8.5 33t-1.5 26v18z" />
    <glyph glyph-name="ugrave" unicode="&#xf9;" horiz-adv-x="821" 
d="M475 88q0 -6 6 -6q11 0 33.5 13t51.5 33t61 45t61 48.5t52.5 43.5t35.5 30q9 -9 21.5 -23t23.5 -26q-22 -22 -55.5 -53t-73 -64.5t-82 -66t-82.5 -58t-75 -41.5t-58 -16q-17 0 -38 10.5t-39.5 27t-31 36.5t-12.5 38q0 16 12 61t29 105q-45 -61 -88 -107.5t-79 -79.5
t-63 -53.5t-40 -29.5q-8 -5 -19 -7.5t-20 -2.5q-19 0 -42 11.5t-42.5 28.5t-33 38t-13.5 40q0 22 14.5 73t39 122t57.5 159t71 185q2 5 3.5 4.5t5.5 -0.5q19 -3 52 -15.5t64.5 -27.5t54.5 -28.5t23 -18.5q-3 -7 -15.5 -33t-29 -62.5t-35 -79t-34 -81.5t-25.5 -70.5
t-10 -46.5q0 -4 4 -4q8 0 35 21.5t66.5 67.5t89.5 118.5t104 174.5l28 79q3 8 13 8q7 0 30.5 -13.5t50 -31t47.5 -35t23 -24.5q0 -3 -1 -10.5t-3 -12.5q-10 -27 -23 -63.5t-26.5 -76t-26.5 -79.5t-23.5 -74.5t-17 -61t-6.5 -38.5zM460 715q-23 -11 -43 -17t-49 -14
q-15 26 -33.5 59t-38 71.5t-38.5 81.5t-35 89q51 19 92 29.5t61 13.5l84 -313v0z" />
    <glyph glyph-name="uacute" unicode="&#xfa;" horiz-adv-x="821" 
d="M475 88q0 -6 6 -6q11 0 33.5 13t51.5 33t61 45t61 48.5t52.5 43.5t35.5 30q9 -9 21.5 -23t23.5 -26q-22 -22 -55.5 -53t-73 -64.5t-82 -66t-82.5 -58t-75 -41.5t-58 -16q-17 0 -38 10.5t-39.5 27t-31 36.5t-12.5 38q0 16 12 61t29 105q-45 -61 -88 -107.5t-79 -79.5
t-63 -53.5t-40 -29.5q-8 -5 -19 -7.5t-20 -2.5q-19 0 -42 11.5t-42.5 28.5t-33 38t-13.5 40q0 22 14.5 73t39 122t57.5 159t71 185q2 5 3.5 4.5t5.5 -0.5q19 -3 52 -15.5t64.5 -27.5t54.5 -28.5t23 -18.5q-3 -7 -15.5 -33t-29 -62.5t-35 -79t-34 -81.5t-25.5 -70.5
t-10 -46.5q0 -4 4 -4q8 0 35 21.5t66.5 67.5t89.5 118.5t104 174.5l28 79q3 8 13 8q7 0 30.5 -13.5t50 -31t47.5 -35t23 -24.5q0 -3 -1 -10.5t-3 -12.5q-10 -27 -23 -63.5t-26.5 -76t-26.5 -79.5t-23.5 -74.5t-17 -61t-6.5 -38.5zM617 930q-56 -69 -121 -131t-131 -115
q-5 3 -15.5 11t-21.5 18t-21 18.5t-14 13.5q25 31 56 73t60 83.5t52 76t33 52.5q21 -10 40.5 -25.5t36 -30.5t28.5 -27.5t18 -16.5z" />
    <glyph glyph-name="ucircumflex" unicode="&#xfb;" horiz-adv-x="821" 
d="M475 88q0 -6 6 -6q11 0 33.5 13t51.5 33t61 45t61 48.5t52.5 43.5t35.5 30q9 -9 21.5 -23t23.5 -26q-22 -22 -55.5 -53t-73 -64.5t-82 -66t-82.5 -58t-75 -41.5t-58 -16q-17 0 -38 10.5t-39.5 27t-31 36.5t-12.5 38q0 16 12 61t29 105q-45 -61 -88 -107.5t-79 -79.5
t-63 -53.5t-40 -29.5q-8 -5 -19 -7.5t-20 -2.5q-19 0 -42 11.5t-42.5 28.5t-33 38t-13.5 40q0 22 14.5 73t39 122t57.5 159t71 185q2 5 3.5 4.5t5.5 -0.5q19 -3 52 -15.5t64.5 -27.5t54.5 -28.5t23 -18.5q-3 -7 -15.5 -33t-29 -62.5t-35 -79t-34 -81.5t-25.5 -70.5
t-10 -46.5q0 -4 4 -4q8 0 35 21.5t66.5 67.5t89.5 118.5t104 174.5l28 79q3 8 13 8q7 0 30.5 -13.5t50 -31t47.5 -35t23 -24.5q0 -3 -1 -10.5t-3 -12.5q-10 -27 -23 -63.5t-26.5 -76t-26.5 -79.5t-23.5 -74.5t-17 -61t-6.5 -38.5zM579 702q-26 -5 -53 -9t-58 -9
q-14 38 -29 86t-26 102q-51 -44 -101 -85.5t-116 -92.5q-11 16 -23.5 27.5t-29.5 30.5q34 31 71 66.5t72 70.5l67 67l58 58q45 -6 75 -18t56 -27q3 -28 7.5 -65t9.5 -74.5t10 -71.5t10 -56z" />
    <glyph glyph-name="udieresis" unicode="&#xfc;" horiz-adv-x="821" 
d="M475 88q0 -6 6 -6q11 0 33.5 13t51.5 33t61 45t61 48.5t52.5 43.5t35.5 30q9 -9 21.5 -23t23.5 -26q-22 -22 -55.5 -53t-73 -64.5t-82 -66t-82.5 -58t-75 -41.5t-58 -16q-17 0 -38 10.5t-39.5 27t-31 36.5t-12.5 38q0 16 12 61t29 105q-45 -61 -88 -107.5t-79 -79.5
t-63 -53.5t-40 -29.5q-8 -5 -19 -7.5t-20 -2.5q-19 0 -42 11.5t-42.5 28.5t-33 38t-13.5 40q0 22 14.5 73t39 122t57.5 159t71 185q2 5 3.5 4.5t5.5 -0.5q19 -3 52 -15.5t64.5 -27.5t54.5 -28.5t23 -18.5q-3 -7 -15.5 -33t-29 -62.5t-35 -79t-34 -81.5t-25.5 -70.5
t-10 -46.5q0 -4 4 -4q8 0 35 21.5t66.5 67.5t89.5 118.5t104 174.5l28 79q3 8 13 8q7 0 30.5 -13.5t50 -31t47.5 -35t23 -24.5q0 -3 -1 -10.5t-3 -12.5q-10 -27 -23 -63.5t-26.5 -76t-26.5 -79.5t-23.5 -74.5t-17 -61t-6.5 -38.5zM368 883q0 -6 -12 -30.5t-27.5 -51
t-30.5 -47.5t-22 -21t-31 10t-49.5 23t-45.5 25.5t-20 17.5q0 15 11.5 43t26.5 55.5t29 47.5t19 20q13 0 38.5 -12.5t50.5 -28.5t44 -31t19 -20zM655 862q0 -6 -12 -30t-27.5 -50.5t-30.5 -47.5t-22 -21t-31 9.5t-49.5 22.5t-45.5 25.5t-20 17.5q0 15 11.5 43t26.5 55.5
t29 47.5t19 20q13 0 38.5 -12.5t50.5 -28t44 -30.5t19 -21z" />
    <glyph glyph-name="yacute" unicode="&#xfd;" horiz-adv-x="799" 
d="M805 248q-90 -81 -185 -153t-190 -139q-14 -42 -32 -89t-44 -107q-29 -66 -66 -129t-78.5 -118.5t-85.5 -101.5t-86.5 -79.5t-82 -52t-72.5 -18.5q-16 0 -39 12t-44 30.5t-35.5 39.5t-14.5 39q0 63 34 123.5t93.5 121.5t140 123.5t173.5 128.5q29 77 56.5 160.5
t53.5 165.5q-43 -55 -83 -96t-74 -69.5t-59 -46t-38 -26.5q-8 -5 -19 -7.5t-20 -2.5q-19 0 -42 11.5t-42.5 29t-33 38.5t-13.5 40q0 22 14.5 70.5t39 117.5t57.5 155t71 183q2 5 3.5 4.5t5.5 -0.5q19 -3 52 -15.5t64.5 -27.5t54.5 -28.5t23 -18.5q-3 -7 -15.5 -33t-29 -62.5
t-35 -79t-34 -81.5t-25.5 -70.5t-10 -46.5q0 -4 4 -4q7 0 30.5 18t58.5 57t79 99.5t93 145.5q20 66 33 105.5t17 39.5q6 0 31 -15t53 -35.5t50 -41t22 -31.5q0 -5 -1 -9t-3 -9q-23 -70 -40 -126.5t-30.5 -103.5t-24 -86.5t-20.5 -76.5q75 54 149 110.5t146 118.5zM-123 -629
q18 0 50 34.5t69 88.5t74.5 120.5t66.5 130.5q-38 -32 -85 -70t-88 -83t-69 -96.5t-28 -109.5q0 -15 10 -15zM635 930q-56 -69 -121 -131t-131 -115q-5 3 -15.5 11t-21.5 18t-21 18.5t-14 13.5q25 31 56 73t60 83.5t52 76t33 52.5q21 -10 40.5 -25.5t36 -30.5t28.5 -27.5
t18 -16.5z" />
    <glyph glyph-name="thorn" unicode="&#xfe;" horiz-adv-x="809" 
d="M276 1450q65 -50 110 -93t85 -85q-37 -120 -74 -235.5t-74.5 -227.5t-75 -222t-76.5 -221q55 67 100 111.5t80 70t59 36t36 10.5q16 0 35 -12t37.5 -29t34.5 -35t27 -29t13.5 -23.5t2.5 -25.5q0 -47 -16 -102.5t-42 -110t-59 -103.5t-67 -83q29 12 59.5 29.5t60.5 37.5
t59 41.5t55 42.5q61 48 118 103l45 -49q-33 -31 -73.5 -66t-84.5 -69t-89.5 -65t-87.5 -55t-78 -38t-62 -14q-18 0 -45 10.5t-52.5 25.5t-44 32.5t-18.5 31.5q0 8 10.5 14.5t30.5 23.5t48 51t63 99q19 36 36 74.5t30 72.5t20.5 58.5t7.5 32.5t-2.5 11.5t-4.5 5.5q-4 2 -7 1
q-14 -4 -56.5 -44t-99.5 -114t-121 -180.5t-121 -242.5q-45 -133 -91.5 -269.5t-94.5 -285.5l-254 -60q98 273 198.5 537.5t193.5 530t174.5 537t141.5 558.5z" />
    <glyph glyph-name="ydieresis" unicode="&#xff;" horiz-adv-x="799" 
d="M805 248q-90 -81 -185 -153t-190 -139q-14 -42 -32 -89t-44 -107q-29 -66 -66 -129t-78.5 -118.5t-85.5 -101.5t-86.5 -79.5t-82 -52t-72.5 -18.5q-16 0 -39 12t-44 30.5t-35.5 39.5t-14.5 39q0 63 34 123.5t93.5 121.5t140 123.5t173.5 128.5q29 77 56.5 160.5
t53.5 165.5q-43 -55 -83 -96t-74 -69.5t-59 -46t-38 -26.5q-8 -5 -19 -7.5t-20 -2.5q-19 0 -42 11.5t-42.5 29t-33 38.5t-13.5 40q0 22 14.5 70.5t39 117.5t57.5 155t71 183q2 5 3.5 4.5t5.5 -0.5q19 -3 52 -15.5t64.5 -27.5t54.5 -28.5t23 -18.5q-3 -7 -15.5 -33t-29 -62.5
t-35 -79t-34 -81.5t-25.5 -70.5t-10 -46.5q0 -4 4 -4q7 0 30.5 18t58.5 57t79 99.5t93 145.5q20 66 33 105.5t17 39.5q6 0 31 -15t53 -35.5t50 -41t22 -31.5q0 -5 -1 -9t-3 -9q-23 -70 -40 -126.5t-30.5 -103.5t-24 -86.5t-20.5 -76.5q75 54 149 110.5t146 118.5zM-123 -629
q18 0 50 34.5t69 88.5t74.5 120.5t66.5 130.5q-38 -32 -85 -70t-88 -83t-69 -96.5t-28 -109.5q0 -15 10 -15zM385 883q0 -6 -12 -30.5t-27.5 -51t-30.5 -47.5t-22 -21t-31 10t-49.5 23t-45.5 25.5t-20 17.5q0 15 11.5 43t26.5 55.5t29 47.5t19 20q13 0 38.5 -12.5
t50.5 -28.5t44 -31t19 -20zM672 862q0 -6 -12 -30t-27.5 -50.5t-30.5 -47.5t-22 -21t-31 9.5t-49.5 22.5t-45.5 25.5t-20 17.5q0 15 11.5 43t26.5 55.5t29 47.5t19 20q13 0 38.5 -12.5t50.5 -28t44 -30.5t19 -21z" />
    <glyph glyph-name="Amacron" unicode="&#x100;" horiz-adv-x="1231" 
d="M1292 1278q0 -47 -19.5 -104.5t-51 -118t-73 -121.5t-84.5 -115q26 -26 47 -47.5t30 -28.5q-14 -24 -38.5 -70.5t-52 -105.5t-56 -125t-51.5 -129.5t-37.5 -120t-14.5 -94.5q0 -50 13.5 -93t40 -75.5t66 -54t91.5 -27.5l-49 -65q-12 0 -37 5.5t-56 19t-65 36.5t-64 58.5
t-53 85t-32 116.5q-48 -50 -103.5 -99t-114.5 -88t-119.5 -63t-117.5 -24q-33 0 -67.5 18t-68 47.5t-64 68.5t-54 80.5t-39 82.5t-18.5 76q0 13 0.5 31.5t1.5 38.5t2.5 39t3.5 34q15 89 48 188t80.5 201t107.5 203t130 193t148 170.5t160.5 136t168 90.5t170.5 33
q29 0 62 -15t65.5 -39t62 -54.5t52 -62t36 -61t13.5 -51.5zM250 4q19 0 55.5 22t85 63t105.5 101t115 135.5t114.5 166t105.5 193.5l-118 118q17 18 53 48t80 71t90.5 91.5t85 109t63.5 123t25 134.5q0 39 -15.5 59.5t-27.5 20.5q-59 0 -128.5 -42.5t-142.5 -115
t-146.5 -169.5t-141 -207t-126 -226t-101.5 -227t-68 -211t-25 -176q0 -82 62 -82zM1370 1876q-21 -48 -41 -77.5t-34 -51.5q-13 -1 -47 -1t-77.5 -0.5t-92.5 -0.5h-91.5h-74h-41.5q14 25 32 56.5t35 68.5h37t77 0.5t97 1t98.5 1.5t80 1.5t42.5 1.5z" />
    <glyph glyph-name="amacron" unicode="&#x101;" horiz-adv-x="846" 
d="M516 88q0 -6 6 -6q9 0 30 13t48 33t57.5 45t58.5 49t50.5 44t34.5 31q9 -9 22.5 -24t24.5 -27q-24 -22 -57.5 -53.5t-72 -65.5t-79.5 -67.5t-80 -59.5t-74 -42.5t-61 -16.5q-18 0 -39.5 7t-39.5 19.5t-30 29.5t-12 38q0 8 -0.5 19.5t1.5 30t8 45t18 65.5
q-33 -35 -77.5 -73t-93.5 -72t-98.5 -61.5t-91.5 -41.5q-5 -2 -8 -2h-6q-10 0 -26.5 10t-32.5 26.5t-27.5 37.5t-11.5 42q0 6 6 40t28.5 86.5t66.5 118t120 134.5q39 35 84 66q38 26 87 53t103 43q2 0 3.5 1t4.5 -1q12 -4 28.5 -12.5t33 -18t29 -19t16.5 -15.5q1 -2 0 -3
l-2 -2q-45 -24 -85 -53.5t-71 -55.5q-36 -31 -67 -61q-73 -72 -101 -124.5t-28 -75.5q0 -17 14 -17t35.5 11.5t48.5 31t59.5 46t67.5 55.5q31 25 60 54q25 24 52 55t46 63q0 1 1 2t3 0q11 -8 25 -26.5t26 -40.5t20.5 -42.5t8.5 -31.5q-23 -47 -35.5 -85.5t-19 -67.5
t-8 -49.5t-1.5 -31.5zM733 909q-21 -48 -41 -77.5t-34 -51.5q-13 -1 -47 -1t-77.5 -0.5t-92.5 -0.5h-91.5h-74h-41.5q14 25 32 56.5t35 68.5h37t77 0.5t97 1t98.5 1.5t80 1.5t42.5 1.5z" />
    <glyph glyph-name="Abreve" unicode="&#x102;" horiz-adv-x="1231" 
d="M1292 1278q0 -47 -19.5 -104.5t-51 -118t-73 -121.5t-84.5 -115q26 -26 47 -47.5t30 -28.5q-14 -24 -38.5 -70.5t-52 -105.5t-56 -125t-51.5 -129.5t-37.5 -120t-14.5 -94.5q0 -50 13.5 -93t40 -75.5t66 -54t91.5 -27.5l-49 -65q-12 0 -37 5.5t-56 19t-65 36.5t-64 58.5
t-53 85t-32 116.5q-48 -50 -103.5 -99t-114.5 -88t-119.5 -63t-117.5 -24q-33 0 -67.5 18t-68 47.5t-64 68.5t-54 80.5t-39 82.5t-18.5 76q0 13 0.5 31.5t1.5 38.5t2.5 39t3.5 34q15 89 48 188t80.5 201t107.5 203t130 193t148 170.5t160.5 136t168 90.5t170.5 33
q29 0 62 -15t65.5 -39t62 -54.5t52 -62t36 -61t13.5 -51.5zM250 4q19 0 55.5 22t85 63t105.5 101t115 135.5t114.5 166t105.5 193.5l-118 118q17 18 53 48t80 71t90.5 91.5t85 109t63.5 123t25 134.5q0 39 -15.5 59.5t-27.5 20.5q-59 0 -128.5 -42.5t-142.5 -115
t-146.5 -169.5t-141 -207t-126 -226t-101.5 -227t-68 -211t-25 -176q0 -82 62 -82zM1350 1897q-10 -25 -26.5 -63t-46 -74t-74 -62t-111.5 -26q-31 0 -57.5 6t-46.5 18.5t-31.5 32.5t-11.5 49q0 15 2 34t6.5 40t11.5 41.5t16 38.5q15 0 36.5 -0.5t42 -2t37.5 -3t24 -3.5
q-4 -8 -11.5 -24.5t-14.5 -35.5t-12 -38.5t-5 -34.5q0 -8 5 -13t17 -5q32 0 57 14.5t43.5 37.5t31 51t20.5 55q40 -11 61.5 -19t36.5 -14z" />
    <glyph glyph-name="abreve" unicode="&#x103;" horiz-adv-x="846" 
d="M516 88q0 -6 6 -6q9 0 30 13t48 33t57.5 45t58.5 49t50.5 44t34.5 31q9 -9 22.5 -24t24.5 -27q-24 -22 -57.5 -53.5t-72 -65.5t-79.5 -67.5t-80 -59.5t-74 -42.5t-61 -16.5q-18 0 -39.5 7t-39.5 19.5t-30 29.5t-12 38q0 8 -0.5 19.5t1.5 30t8 45t18 65.5
q-33 -35 -77.5 -73t-93.5 -72t-98.5 -61.5t-91.5 -41.5q-5 -2 -8 -2h-6q-10 0 -26.5 10t-32.5 26.5t-27.5 37.5t-11.5 42q0 6 6 40t28.5 86.5t66.5 118t120 134.5q39 35 84 66q38 26 87 53t103 43q2 0 3.5 1t4.5 -1q12 -4 28.5 -12.5t33 -18t29 -19t16.5 -15.5q1 -2 0 -3
l-2 -2q-45 -24 -85 -53.5t-71 -55.5q-36 -31 -67 -61q-73 -72 -101 -124.5t-28 -75.5q0 -17 14 -17t35.5 11.5t48.5 31t59.5 46t67.5 55.5q31 25 60 54q25 24 52 55t46 63q0 1 1 2t3 0q11 -8 25 -26.5t26 -40.5t20.5 -42.5t8.5 -31.5q-23 -47 -35.5 -85.5t-19 -67.5
t-8 -49.5t-1.5 -31.5zM713 930q-10 -25 -26.5 -63t-46 -74t-74 -62t-111.5 -26q-31 0 -57.5 6t-46.5 18.5t-31.5 32.5t-11.5 49q0 15 2 34t6.5 40t11.5 41.5t16 38.5q15 0 36.5 -0.5t42 -2t37.5 -3t24 -3.5q-4 -8 -11.5 -24.5t-14.5 -35.5t-12 -38.5t-5 -34.5q0 -8 5 -13
t17 -5q32 0 57 14.5t43.5 37.5t31 51t20.5 55q40 -11 61.5 -19t36.5 -14z" />
    <glyph glyph-name="Aogonek" unicode="&#x104;" horiz-adv-x="1231" 
d="M1098 -506q-28 -15 -75.5 -30t-109.5 -15q-16 0 -38 12.5t-42.5 30.5t-34.5 37.5t-14 34.5q0 37 12 72.5t33.5 68t50.5 60.5t64 51q-72 32 -125.5 102.5t-73.5 185.5q-48 -50 -103 -99t-114 -88t-119.5 -63t-117.5 -24q-33 0 -67.5 18t-68 47.5t-64 68.5t-54 80.5
t-39 82.5t-18.5 76q0 13 0.5 31.5t1.5 38.5t2.5 39t3.5 34q15 89 48 188t80.5 201t107.5 203t130 193t148 170.5t160.5 136t168 90.5t170.5 33q29 0 62 -15t65.5 -39t62 -54.5t52 -62t36 -61t13.5 -51.5q0 -47 -19.5 -104.5t-51.5 -118t-73 -121.5t-85 -115q26 -26 47 -47.5
t31 -28.5q-14 -24 -38.5 -70.5t-52 -105.5t-56 -125t-51.5 -129.5t-37.5 -120t-14.5 -94.5q0 -50 13.5 -93t40 -75.5t66 -54t91.5 -27.5q9 0 2 -5.5t-10 -8.5q-104 -78 -150.5 -134t-46.5 -93q0 -14 9 -21.5t22 -7.5q10 0 27.5 3.5t37 10t39.5 14.5t37 17q3 -12 7 -31l8 -38
t8 -35.5t6 -24.5zM250 4q19 0 56 22t85.5 63t104.5 100.5t114 135t114.5 166t104.5 193.5l-116 119q17 18 53 48t80 71t90.5 91.5t85 109t63.5 123t25 134.5q0 39 -15.5 59.5t-27.5 20.5q-59 0 -128.5 -42.5t-142.5 -115t-146.5 -169.5t-141 -207t-126 -226t-101.5 -227
t-68 -211t-25 -176q0 -82 62 -82z" />
    <glyph glyph-name="aogonek" unicode="&#x105;" horiz-adv-x="846" 
d="M580 -342q-28 -15 -75.5 -30t-109.5 -15q-16 0 -38 12.5t-42.5 30.5t-34.5 37.5t-14 34.5q0 31 11 61t28.5 57.5t39.5 53t44 47.5q-16 4 -31.5 12.5t-27.5 20t-19.5 25.5t-7.5 30q0 8 -0.5 19.5t1.5 30t8 45t18 65.5q-33 -35 -77.5 -73t-93.5 -72t-98.5 -61.5
t-91.5 -41.5q-5 -2 -8 -2h-6q-10 0 -26.5 10t-32.5 26.5t-27.5 37.5t-11.5 42q0 6 6 40t28.5 86.5t66.5 118t120 134.5q39 35 84 66q38 26 87 53t103 43q2 0 3.5 1t4.5 -1q12 -4 28.5 -12.5t33 -18t29 -19t16.5 -15.5q1 -2 0 -3l-2 -2q-45 -24 -85 -53.5t-71 -55.5
q-36 -31 -67 -61q-73 -72 -101 -124.5t-28 -75.5q0 -17 14 -17t35.5 11.5t48.5 31t59.5 46t67.5 55.5q31 25 60 54q25 24 52 55t46 63q2 2 2 3t2 -1q11 -8 25 -26.5t26 -40t20.5 -42t8.5 -30.5v-2q-23 -47 -35.5 -85.5t-19 -67.5t-8 -49.5t-1.5 -31.5q0 -6 6 -6q9 0 30 13
t48 33t57.5 45t58.5 49t50.5 44t34.5 31l47 -51q-29 -26 -70 -61.5t-86.5 -73.5t-91 -75t-82.5 -67q-20 -16 -44 -40.5t-45 -52t-35.5 -55t-14.5 -50.5q0 -14 9 -21.5t22 -7.5q10 0 27.5 3.5t37 9.5t39.5 14.5t37 17.5q3 -12 7 -31t8 -38.5t7.5 -36t6.5 -23.5z" />
    <glyph glyph-name="Cacute" unicode="&#x106;" horiz-adv-x="1120" 
d="M786 893q30 19 63.5 48.5t67 67t64.5 81t54.5 88t37.5 89t14 85.5q0 31 -5 50t-13.5 29.5t-19.5 14.5t-23 4q-48 0 -109 -40.5t-128.5 -110t-138 -162.5t-136.5 -199.5t-124.5 -219.5t-102 -223t-69 -210.5t-25.5 -180.5q0 -30 4.5 -49.5t13 -31t21.5 -15.5t30 -4
q29 0 68.5 24.5t84 63.5t90 87t85.5 94.5t72 86t49 62.5q0 -1 24.5 -21t57.5 -48t66 -56.5t50 -46.5q-24 -27 -61 -69t-83.5 -88.5t-99.5 -93.5t-109 -84.5t-113 -61t-111 -23.5q-39 0 -83 23.5t-87 61t-80 83t-62 90.5q-30 56 -35 103t-5 75q0 77 22 174t63 202.5t99 214.5
t128.5 211t153 192t173 157t187 105.5t195.5 38.5q28 0 59 -14.5t61 -38t58 -54.5t49 -63.5t33.5 -65t12.5 -59.5q0 -60 -24 -132.5t-65 -146t-97.5 -143.5t-120.5 -125zM1309 1897q-56 -69 -121 -131t-131 -115q-5 3 -15.5 11t-21.5 18t-21 18.5t-14 13.5q25 31 56 73
t60 83.5t52 76t33 52.5q21 -10 40.5 -25.5t36 -30.5t28.5 -27.5t18 -16.5z" />
    <glyph glyph-name="cacute" unicode="&#x107;" horiz-adv-x="653" 
d="M39 -74q-18 0 -41 11.5t-47 31t-46.5 46t-37.5 55.5q-6 11 -8 25t-2 36q0 57 17.5 114.5t48.5 109.5t74.5 97.5t94.5 78.5t109 52t118 19q9 0 24.5 -9.5t33.5 -25.5t36.5 -36t33.5 -40.5t24.5 -40t9.5 -34.5q-5 -19 -31 -41.5t-61.5 -42t-74.5 -32.5t-68 -13
q-17 0 -17 10q0 11 15 32.5t33.5 47t33.5 51t15 43.5q0 9 -4.5 15t-12.5 6q-22 0 -46 -20t-48 -53t-46 -75.5t-38.5 -87.5t-26.5 -90t-10 -82q0 -22 13 -30.5t40 -8.5q67 0 129.5 22.5t120 58t109.5 79.5t98 88q11 -13 27 -25.5t24 -21.5q-62 -65 -131.5 -123.5t-146.5 -102
t-161.5 -69t-176.5 -25.5zM621 930q-56 -69 -121 -131t-131 -115q-5 3 -15.5 11t-21.5 18t-21 18.5t-14 13.5q25 31 56 73t60 83.5t52 76t33 52.5q21 -10 40.5 -25.5t36 -30.5t28.5 -27.5t18 -16.5z" />
    <glyph glyph-name="Ccircumflex" unicode="&#x108;" horiz-adv-x="1120" 
d="M786 893q30 19 63.5 48.5t67 67t64.5 81t54.5 88t37.5 89t14 85.5q0 31 -5 50t-13.5 29.5t-19.5 14.5t-23 4q-48 0 -109 -40.5t-128.5 -110t-138 -162.5t-136.5 -199.5t-124.5 -219.5t-102 -223t-69 -210.5t-25.5 -180.5q0 -30 4.5 -49.5t13 -31t21.5 -15.5t30 -4
q29 0 68.5 24.5t84 63.5t90 87t85.5 94.5t72 86t49 62.5q0 -1 24.5 -21t57.5 -48t66 -56.5t50 -46.5q-24 -27 -61 -69t-83.5 -88.5t-99.5 -93.5t-109 -84.5t-113 -61t-111 -23.5q-39 0 -83 23.5t-87 61t-80 83t-62 90.5q-30 56 -35 103t-5 75q0 77 22 174t63 202.5t99 214.5
t128.5 211t153 192t173 157t187 105.5t195.5 38.5q28 0 59 -14.5t61 -38t58 -54.5t49 -63.5t33.5 -65t12.5 -59.5q0 -60 -24 -132.5t-65 -146t-97.5 -143.5t-120.5 -125zM1270 1669q-26 -5 -53 -9t-58 -9q-14 38 -29 86t-26 102q-51 -44 -101 -85.5t-116 -92.5
q-11 16 -23.5 27.5t-29.5 30.5q34 31 71 66.5t72 70.5l67 67l58 58q45 -6 75 -18t56 -27q3 -28 7.5 -65t9.5 -74.5t10 -71.5t10 -56z" />
    <glyph glyph-name="ccircumflex" unicode="&#x109;" horiz-adv-x="653" 
d="M39 -74q-18 0 -41 11.5t-47 31t-46.5 46t-37.5 55.5q-6 11 -8 25t-2 36q0 57 17.5 114.5t48.5 109.5t74.5 97.5t94.5 78.5t109 52t118 19q9 0 24.5 -9.5t33.5 -25.5t36.5 -36t33.5 -40.5t24.5 -40t9.5 -34.5q-5 -19 -31 -41.5t-61.5 -42t-74.5 -32.5t-68 -13
q-17 0 -17 10q0 11 15 32.5t33.5 47t33.5 51t15 43.5q0 9 -4.5 15t-12.5 6q-22 0 -46 -20t-48 -53t-46 -75.5t-38.5 -87.5t-26.5 -90t-10 -82q0 -22 13 -30.5t40 -8.5q67 0 129.5 22.5t120 58t109.5 79.5t98 88q11 -13 27 -25.5t24 -21.5q-62 -65 -131.5 -123.5t-146.5 -102
t-161.5 -69t-176.5 -25.5zM583 702q-26 -5 -53 -9t-58 -9q-14 38 -29 86t-26 102q-51 -44 -101 -85.5t-116 -92.5q-11 16 -23.5 27.5t-29.5 30.5q34 31 71 66.5t72 70.5l67 67l58 58q45 -6 75 -18t56 -27q3 -28 7.5 -65t9.5 -74.5t10 -71.5t10 -56z" />
    <glyph glyph-name="Cdotaccent" unicode="&#x10a;" horiz-adv-x="1120" 
d="M786 893q30 19 63.5 48.5t67 67t64.5 81t54.5 88t37.5 89t14 85.5q0 31 -5 50t-13.5 29.5t-19.5 14.5t-23 4q-48 0 -109 -40.5t-128.5 -110t-138 -162.5t-136.5 -199.5t-124.5 -219.5t-102 -223t-69 -210.5t-25.5 -180.5q0 -30 4.5 -49.5t13 -31t21.5 -15.5t30 -4
q29 0 68.5 24.5t84 63.5t90 87t85.5 94.5t72 86t49 62.5q0 -1 24.5 -21t57.5 -48t66 -56.5t50 -46.5q-24 -27 -61 -69t-83.5 -88.5t-99.5 -93.5t-109 -84.5t-113 -61t-111 -23.5q-39 0 -83 23.5t-87 61t-80 83t-62 90.5q-30 56 -35 103t-5 75q0 77 22 174t63 202.5t99 214.5
t128.5 211t153 192t173 157t187 105.5t195.5 38.5q28 0 59 -14.5t61 -38t58 -54.5t49 -63.5t33.5 -65t12.5 -59.5q0 -60 -24 -132.5t-65 -146t-97.5 -143.5t-120.5 -125zM1192 1829q0 -6 -12 -30t-27.5 -50.5t-30.5 -47.5t-22 -21t-30.5 9.5t-49 22.5t-45.5 25.5t-20 17.5
q0 15 11.5 43t26 55.5t28.5 47.5t20 20q13 0 38 -12.5t50 -28t44 -30.5t19 -21z" />
    <glyph glyph-name="cdotaccent" unicode="&#x10b;" horiz-adv-x="653" 
d="M39 -74q-18 0 -41 11.5t-47 31t-46.5 46t-37.5 55.5q-6 11 -8 25t-2 36q0 57 17.5 114.5t48.5 109.5t74.5 97.5t94.5 78.5t109 52t118 19q9 0 24.5 -9.5t33.5 -25.5t36.5 -36t33.5 -40.5t24.5 -40t9.5 -34.5q-5 -19 -31 -41.5t-61.5 -42t-74.5 -32.5t-68 -13
q-17 0 -17 10q0 11 15 32.5t33.5 47t33.5 51t15 43.5q0 9 -4.5 15t-12.5 6q-22 0 -46 -20t-48 -53t-46 -75.5t-38.5 -87.5t-26.5 -90t-10 -82q0 -22 13 -30.5t40 -8.5q67 0 129.5 22.5t120 58t109.5 79.5t98 88q11 -13 27 -25.5t24 -21.5q-62 -65 -131.5 -123.5t-146.5 -102
t-161.5 -69t-176.5 -25.5zM505 862q0 -6 -12 -30t-27.5 -50.5t-30.5 -47.5t-22 -21t-30.5 9.5t-49 22.5t-45.5 25.5t-20 17.5q0 15 11.5 43t26 55.5t28.5 47.5t20 20q13 0 38 -12.5t50 -28t44 -30.5t19 -21z" />
    <glyph glyph-name="Ccaron" unicode="&#x10c;" horiz-adv-x="1120" 
d="M786 893q30 19 63.5 48.5t67 67t64.5 81t54.5 88t37.5 89t14 85.5q0 31 -5 50t-13.5 29.5t-19.5 14.5t-23 4q-48 0 -109 -40.5t-128.5 -110t-138 -162.5t-136.5 -199.5t-124.5 -219.5t-102 -223t-69 -210.5t-25.5 -180.5q0 -30 4.5 -49.5t13 -31t21.5 -15.5t30 -4
q29 0 68.5 24.5t84 63.5t90 87t85.5 94.5t72 86t49 62.5q0 -1 24.5 -21t57.5 -48t66 -56.5t50 -46.5q-24 -27 -61 -69t-83.5 -88.5t-99.5 -93.5t-109 -84.5t-113 -61t-111 -23.5q-39 0 -83 23.5t-87 61t-80 83t-62 90.5q-30 56 -35 103t-5 75q0 77 22 174t63 202.5t99 214.5
t128.5 211t153 192t173 157t187 105.5t195.5 38.5q28 0 59 -14.5t61 -38t58 -54.5t49 -63.5t33.5 -65t12.5 -59.5q0 -60 -24 -132.5t-65 -146t-97.5 -143.5t-120.5 -125zM916 1942q10 3 26.5 6.5t34.5 6.5t36.5 6t33.5 5l26 -200q57 49 106.5 94t104.5 100
q20 -12 35.5 -30.5t32.5 -36.5q-68 -68 -133.5 -130t-134.5 -112q-38 0 -67 5t-60 16q-6 24 -13 59t-12.5 73.5t-10 75t-5.5 62.5z" />
    <glyph glyph-name="ccaron" unicode="&#x10d;" horiz-adv-x="653" 
d="M39 -74q-18 0 -41 11.5t-47 31t-46.5 46t-37.5 55.5q-6 11 -8 25t-2 36q0 57 17.5 114.5t48.5 109.5t74.5 97.5t94.5 78.5t109 52t118 19q9 0 24.5 -9.5t33.5 -25.5t36.5 -36t33.5 -40.5t24.5 -40t9.5 -34.5q-5 -19 -31 -41.5t-61.5 -42t-74.5 -32.5t-68 -13
q-17 0 -17 10q0 11 15 32.5t33.5 47t33.5 51t15 43.5q0 9 -4.5 15t-12.5 6q-22 0 -46 -20t-48 -53t-46 -75.5t-38.5 -87.5t-26.5 -90t-10 -82q0 -22 13 -30.5t40 -8.5q67 0 129.5 22.5t120 58t109.5 79.5t98 88q11 -13 27 -25.5t24 -21.5q-62 -65 -131.5 -123.5t-146.5 -102
t-161.5 -69t-176.5 -25.5zM229 975q10 3 26.5 6.5t34.5 6.5t36.5 6t33.5 5l26 -200q57 49 106.5 94t104.5 100q20 -12 35.5 -30.5t32.5 -36.5q-68 -68 -133.5 -130t-134.5 -112q-38 0 -67 5t-60 16q-6 24 -13 59t-12.5 73.5t-10 75t-5.5 62.5z" />
    <glyph glyph-name="Dcaron" unicode="&#x10e;" horiz-adv-x="1415" 
d="M1389 1284q13 -17 22 -35t14 -41t7.5 -52.5t1.5 -68.5q-4 -129 -33.5 -265t-84.5 -266t-134 -249.5t-181 -217t-226.5 -167t-270.5 -100.5q-47 30 -82 58t-60 51.5t-40.5 41t-22.5 26.5q-53 -78 -105 -123.5t-102 -45.5q-24 0 -48 13.5t-45.5 34.5t-40.5 47t-32.5 50
t-21.5 44t-8 30q0 62 19.5 139t54.5 163t84 178t109 184.5t128.5 183t142.5 173.5q28 138 45.5 273t22.5 259q57 -36 103.5 -71t79.5 -64q39 -33 69 -64l-3 -45q95 68 187 106.5t176 38.5q41 0 79.5 -22.5t74 -55.5t66 -71.5t55.5 -69.5zM707 1090q-19 -89 -44.5 -186.5
t-56.5 -196t-66 -196.5t-73 -188t-79 -170t-82 -143q125 19 232.5 67.5t197.5 119t163.5 158t130.5 183.5t99.5 196.5t69.5 196t40.5 182.5t13.5 157q0 21 -5.5 43t-16.5 40t-27.5 29t-38.5 11q-42 0 -94 -22.5t-111 -63t-123 -96t-130 -121.5zM49 18q19 -9 50 36t69 129
t79.5 201.5t81.5 254.5q-64 -89 -118 -174t-93 -160.5t-61 -138t-22 -105.5q0 -34 14 -43zM924 1925q10 3 26.5 6.5t34.5 6.5t36.5 6t33.5 5l26 -200q57 49 106.5 94t104.5 100q20 -12 35.5 -30.5t32.5 -36.5q-68 -68 -133.5 -130t-134.5 -112q-38 0 -67 5t-60 16
q-6 24 -13 59t-12.5 73.5t-10 75t-5.5 62.5z" />
    <glyph glyph-name="dcaron" unicode="&#x10f;" horiz-adv-x="1321" 
d="M551 111q0 -25 16 -25q19 0 45.5 12t55.5 31.5t59 43.5t56.5 47t47.5 43t33 32q10 -9 24 -23t25 -26q-26 -26 -59 -58t-70.5 -65.5t-78 -65t-80.5 -56t-78 -39.5t-72 -15q-18 0 -44 16.5t-50 40.5t-40.5 50.5t-16.5 47.5q0 46 6 96q-45 -40 -87 -76t-84.5 -67.5t-87 -58
t-94.5 -45.5q-15 -6 -26 -6q-10 0 -26 10t-31 25.5t-26 35t-11 37.5q0 41 15.5 91.5t45 104t72 107t96.5 101t119 86t139 61.5q14 -2 36 -12.5t41 -21.5q36 103 82.5 206.5t99 199t109.5 179t114 148t112.5 104.5t105.5 49q22 0 46.5 -14.5t46.5 -35t37.5 -42.5t19.5 -37
q0 -46 -23 -107t-63.5 -131.5t-96 -147.5t-119.5 -156.5t-134.5 -158.5t-141.5 -153q-30 -102 -47.5 -194.5t-17.5 -167.5zM1053 1335q-17 0 -41.5 -25t-55 -69.5t-64.5 -105.5t-69 -133t-70 -153t-66 -164q75 92 142.5 184.5t118.5 175.5t81 152t30 114q0 6 -0.5 15t-5.5 9
zM104 145q33 0 98 46.5t147 124.5q9 46 22 93.5t29 96.5q-58 -39 -113.5 -89t-98.5 -99t-69.5 -91.5t-26.5 -64.5q0 -17 12 -17zM1514 1317q0 -30 -18.5 -69t-45 -77t-56.5 -71.5t-54 -52.5q-4 1 -14.5 8.5t-21.5 17.5t-20 18.5t-10 10.5q9 8 23 22t27.5 29t23.5 30.5
t10 26.5q0 17 -9.5 30.5t-22 23.5t-24 17t-15.5 11q3 17 14.5 39.5t25.5 44t27.5 38t20.5 20.5q13 0 36 -11.5t46 -28.5t40 -38t17 -39z" />
    <glyph glyph-name="Dcroat" unicode="&#x110;" horiz-adv-x="1436" 
d="M1409 1284q13 -17 22 -35t14.5 -41t7.5 -52.5t1 -68.5q-3 -129 -33 -265t-84.5 -266t-133.5 -249.5t-181.5 -217t-227 -167t-270.5 -100.5q-46 29 -81 57t-60.5 51.5t-41 41.5t-22.5 27q-53 -78 -104.5 -123.5t-101.5 -45.5q-24 0 -48 13.5t-46 34.5t-41 47t-32.5 50
t-21.5 44t-8 30q0 50 12.5 110t35.5 126t56.5 137t74.5 145q-65 1 -106 1.5t-46 2.5q3 12 9.5 30.5t14 37.5t15 36t12.5 25q7 2 57.5 4t127.5 4q61 94 130.5 185.5t145.5 176.5q27 138 45 273t22 259q58 -36 104.5 -71t79.5 -64q39 -33 68 -64l-3 -45q96 68 187.5 106.5
t176.5 38.5q40 0 79 -22.5t74 -55.5t65.5 -71.5t55.5 -69.5zM899 713q-4 -18 -10.5 -38.5t-14.5 -40.5t-16 -37t-14 -26l-263 -2q-56 -163 -120.5 -308.5t-133.5 -250.5q125 19 232 67.5t197 119t163.5 158t131 183.5t99.5 196.5t69.5 196t41 182.5t13.5 157q0 21 -5.5 43
t-17 40t-28 29t-37.5 11q-42 0 -94 -22.5t-111 -63t-123 -96t-130 -121.5q-19 -89 -44 -184t-56 -194zM70 18q18 -8 46.5 30.5t63 112.5t72.5 178.5t76 227.5h-31q-54 -78 -98.5 -152.5t-76.5 -140.5t-49.5 -120.5t-17.5 -92.5q0 -35 15 -43z" />
    <glyph glyph-name="dcroat" unicode="&#x111;" horiz-adv-x="911" 
d="M551 111q0 -25 16 -25q19 0 45.5 12t55.5 31.5t59 43.5t56.5 47t47.5 43t33 32q10 -9 24 -23t25 -26q-26 -26 -59 -58t-70.5 -65.5t-78 -65t-80.5 -56t-78 -39.5t-72 -15q-18 0 -44 16.5t-50 40.5t-40.5 50.5t-16.5 47.5q0 46 6 96q-45 -40 -87 -76t-84.5 -67.5t-87 -58
t-94.5 -45.5q-15 -6 -26 -6q-10 0 -26 10t-31 25.5t-26 35t-11 37.5q0 41 15.5 91.5t45 104t72 107t96.5 101t119 86t139 61.5q14 -2 36 -12.5t41 -21.5q31 88 68.5 174.5t80.5 170.5l-185 -12q3 12 9.5 30.5t14 37.5t15 36t12.5 25q35 3 88.5 7t119.5 9q49 82 101 153.5
t103.5 125.5t101 87.5t94.5 41.5q22 0 46.5 -14.5t46.5 -35t37.5 -42.5t19.5 -37q0 -49 -25 -112.5t-69 -137.5q66 4 109.5 6t50.5 2q-4 -18 -11 -38.5t-15 -40t-16 -36.5t-14 -26q-15 0 -65.5 -1.5t-129.5 -5.5q-82 -115 -184.5 -234.5t-208.5 -229.5
q-30 -102 -47.5 -194.5t-17.5 -167.5zM104 145q33 0 98 46.5t147 124.5q9 46 22 93.5t29 96.5q-58 -39 -113.5 -89t-98.5 -99t-69.5 -91.5t-26.5 -64.5q0 -17 12 -17zM852 1061q29 2 55.5 3.5t54.5 3.5q45 76 71 138.5t26 104.5q0 6 -0.5 15t-5.5 9q-15 0 -36.5 -20t-48 -56
t-56 -86.5t-60.5 -111.5zM787 927q-26 -58 -51.5 -118.5t-48.5 -123.5q51 62 98 124t89 122z" />
    <glyph glyph-name="Emacron" unicode="&#x112;" horiz-adv-x="1126" 
d="M842 973q38 31 74 77t64 97t45 104t17 99q0 37 -17.5 62.5t-63.5 25.5q-39 0 -86 -18t-95 -49.5t-93.5 -75t-80.5 -94.5t-56.5 -107t-21.5 -113q0 -49 12 -84.5t35 -63t55.5 -50.5t74.5 -48q-126 -53 -231.5 -130.5t-181.5 -167.5t-118.5 -185.5t-42.5 -183.5
q0 -31 15 -54.5t47 -23.5q42 0 94 23t108 60t112.5 83t106 92.5t88.5 88.5t62 71q60 -48 104 -85.5t82 -68.5q-17 -23 -56.5 -64t-94 -88t-119 -95.5t-131 -87.5t-131.5 -64t-119 -25q-47 0 -93.5 16t-88.5 42.5t-77.5 61t-62 71.5t-42.5 74t-17 69v24q0 105 37 198
t101.5 171.5t151 142t185.5 110.5q-18 18 -35.5 39t-31 47.5t-21.5 59.5t-8 74q0 70 25 137t67 126t98.5 108t119.5 84.5t129 55.5t128 20q103 0 144 -21q34 -18 73.5 -52t73.5 -74.5t57 -82t23 -74.5q0 -57 -19 -119t-50 -120.5t-71 -110t-81 -86.5zM1222 1876
q-21 -48 -41 -77.5t-34 -51.5q-13 -1 -47 -1t-77.5 -0.5t-92.5 -0.5h-91.5h-74h-41.5q14 25 32 56.5t35 68.5h37t77 0.5t97 1t98.5 1.5t80 1.5t42.5 1.5z" />
    <glyph glyph-name="emacron" unicode="&#x113;" horiz-adv-x="645" 
d="M647 246q-92 -90 -173.5 -151t-155.5 -98t-141.5 -53t-131.5 -16q-27 0 -60 20t-61.5 48.5t-47.5 59.5t-19 53q0 82 22.5 150.5t59.5 123.5t84.5 97t99 70t102.5 42t94 14q31 0 61.5 -18t55.5 -44t40.5 -54.5t15.5 -49.5q0 -34 -28.5 -69.5t-80.5 -72.5t-125 -75.5
t-161 -77.5q-3 -24 -3 -47q0 -31 13.5 -42t50.5 -11q66 0 124.5 22t112.5 57t104 80t99 91zM295 496q-20 0 -44 -21.5t-48 -56.5t-46 -80.5t-38 -94.5q37 24 72.5 51t63.5 56.5t45 60.5t17 62q0 9 -5.5 16t-16.5 7zM621 909q-21 -48 -41 -77.5t-34 -51.5q-13 -1 -47 -1
t-77.5 -0.5t-92.5 -0.5h-91.5h-74h-41.5q14 25 32 56.5t35 68.5h37t77 0.5t97 1t98.5 1.5t80 1.5t42.5 1.5z" />
    <glyph glyph-name="Ebreve" unicode="&#x114;" horiz-adv-x="1126" 
d="M842 973q38 31 74 77t64 97t45 104t17 99q0 37 -17.5 62.5t-63.5 25.5q-39 0 -86 -18t-95 -49.5t-93.5 -75t-80.5 -94.5t-56.5 -107t-21.5 -113q0 -49 12 -84.5t35 -63t55.5 -50.5t74.5 -48q-126 -53 -231.5 -130.5t-181.5 -167.5t-118.5 -185.5t-42.5 -183.5
q0 -31 15 -54.5t47 -23.5q42 0 94 23t108 60t112.5 83t106 92.5t88.5 88.5t62 71q60 -48 104 -85.5t82 -68.5q-17 -23 -56.5 -64t-94 -88t-119 -95.5t-131 -87.5t-131.5 -64t-119 -25q-47 0 -93.5 16t-88.5 42.5t-77.5 61t-62 71.5t-42.5 74t-17 69v24q0 105 37 198
t101.5 171.5t151 142t185.5 110.5q-18 18 -35.5 39t-31 47.5t-21.5 59.5t-8 74q0 70 25 137t67 126t98.5 108t119.5 84.5t129 55.5t128 20q103 0 144 -21q34 -18 73.5 -52t73.5 -74.5t57 -82t23 -74.5q0 -57 -19 -119t-50 -120.5t-71 -110t-81 -86.5zM1202 1897
q-10 -25 -26.5 -63t-46 -74t-74 -62t-111.5 -26q-31 0 -57.5 6t-46.5 18.5t-31.5 32.5t-11.5 49q0 15 2 34t6.5 40t11.5 41.5t16 38.5q15 0 36.5 -0.5t42 -2t37.5 -3t24 -3.5q-4 -8 -11.5 -24.5t-14.5 -35.5t-12 -38.5t-5 -34.5q0 -8 5 -13t17 -5q32 0 57 14.5t43.5 37.5
t31 51t20.5 55q40 -11 61.5 -19t36.5 -14z" />
    <glyph glyph-name="ebreve" unicode="&#x115;" horiz-adv-x="645" 
d="M647 246q-92 -90 -173.5 -151t-155.5 -98t-141.5 -53t-131.5 -16q-27 0 -60 20t-61.5 48.5t-47.5 59.5t-19 53q0 82 22.5 150.5t59.5 123.5t84.5 97t99 70t102.5 42t94 14q31 0 61.5 -18t55.5 -44t40.5 -54.5t15.5 -49.5q0 -34 -28.5 -69.5t-80.5 -72.5t-125 -75.5
t-161 -77.5q-3 -24 -3 -47q0 -31 13.5 -42t50.5 -11q66 0 124.5 22t112.5 57t104 80t99 91zM295 496q-20 0 -44 -21.5t-48 -56.5t-46 -80.5t-38 -94.5q37 24 72.5 51t63.5 56.5t45 60.5t17 62q0 9 -5.5 16t-16.5 7zM601 930q-10 -25 -26.5 -63t-46 -74t-74 -62t-111.5 -26
q-31 0 -57.5 6t-46.5 18.5t-31.5 32.5t-11.5 49q0 15 2 34t6.5 40t11.5 41.5t16 38.5q15 0 36.5 -0.5t42 -2t37.5 -3t24 -3.5q-4 -8 -11.5 -24.5t-14.5 -35.5t-12 -38.5t-5 -34.5q0 -8 5 -13t17 -5q32 0 57 14.5t43.5 37.5t31 51t20.5 55q40 -11 61.5 -19t36.5 -14z" />
    <glyph glyph-name="Edotaccent" unicode="&#x116;" horiz-adv-x="1126" 
d="M842 973q38 31 74 77t64 97t45 104t17 99q0 37 -17.5 62.5t-63.5 25.5q-39 0 -86 -18t-95 -49.5t-93.5 -75t-80.5 -94.5t-56.5 -107t-21.5 -113q0 -49 12 -84.5t35 -63t55.5 -50.5t74.5 -48q-126 -53 -231.5 -130.5t-181.5 -167.5t-118.5 -185.5t-42.5 -183.5
q0 -31 15 -54.5t47 -23.5q42 0 94 23t108 60t112.5 83t106 92.5t88.5 88.5t62 71q60 -48 104 -85.5t82 -68.5q-17 -23 -56.5 -64t-94 -88t-119 -95.5t-131 -87.5t-131.5 -64t-119 -25q-47 0 -93.5 16t-88.5 42.5t-77.5 61t-62 71.5t-42.5 74t-17 69v24q0 105 37 198
t101.5 171.5t151 142t185.5 110.5q-18 18 -35.5 39t-31 47.5t-21.5 59.5t-8 74q0 70 25 137t67 126t98.5 108t119.5 84.5t129 55.5t128 20q103 0 144 -21q34 -18 73.5 -52t73.5 -74.5t57 -82t23 -74.5q0 -57 -19 -119t-50 -120.5t-71 -110t-81 -86.5zM1081 1829
q0 -6 -12 -30t-27.5 -50.5t-30.5 -47.5t-22 -21t-30.5 9.5t-49 22.5t-45.5 25.5t-20 17.5q0 15 11.5 43t26 55.5t28.5 47.5t20 20q13 0 38 -12.5t50 -28t44 -30.5t19 -21z" />
    <glyph glyph-name="edotaccent" unicode="&#x117;" horiz-adv-x="645" 
d="M647 246q-92 -90 -173.5 -151t-155.5 -98t-141.5 -53t-131.5 -16q-27 0 -60 20t-61.5 48.5t-47.5 59.5t-19 53q0 82 22.5 150.5t59.5 123.5t84.5 97t99 70t102.5 42t94 14q31 0 61.5 -18t55.5 -44t40.5 -54.5t15.5 -49.5q0 -34 -28.5 -69.5t-80.5 -72.5t-125 -75.5
t-161 -77.5q-3 -24 -3 -47q0 -31 13.5 -42t50.5 -11q66 0 124.5 22t112.5 57t104 80t99 91zM295 496q-20 0 -44 -21.5t-48 -56.5t-46 -80.5t-38 -94.5q37 24 72.5 51t63.5 56.5t45 60.5t17 62q0 9 -5.5 16t-16.5 7zM480 862q0 -6 -12 -30t-27.5 -50.5t-30.5 -47.5t-22 -21
t-30.5 9.5t-49 22.5t-45.5 25.5t-20 17.5q0 15 11.5 43t26 55.5t28.5 47.5t20 20q13 0 38 -12.5t50 -28t44 -30.5t19 -21z" />
    <glyph glyph-name="Eogonek" unicode="&#x118;" horiz-adv-x="1126" 
d="M483 -463q-28 -15 -75 -30t-109 -15q-16 0 -38 12.5t-42.5 30.5t-34.5 37.5t-14 34.5q0 31 11.5 62t30 59.5t41 54.5t44.5 47q-72 1 -139 35.5t-119.5 87.5t-85.5 115.5t-35 119.5q0 105 37 198t101.5 171.5t151 142t185.5 111.5q-18 18 -35.5 39t-31 47.5t-21.5 59
t-8 73.5q0 70 25 137t67 126t98.5 108t119.5 84.5t129 55.5t128 20q103 0 144 -21q34 -18 73.5 -52t73.5 -74.5t57 -82t23 -74.5q0 -57 -19 -119t-50 -120.5t-71 -110t-81 -86.5l-172 152q38 31 74 77t64 97t45 104t17 99q0 37 -17.5 62.5t-63.5 25.5q-39 0 -86 -18
t-95 -49.5t-93.5 -75t-80.5 -94.5t-56.5 -107t-21.5 -113q0 -49 12 -84.5t35 -63t55.5 -50.5t74.5 -48q-126 -53 -231.5 -130.5t-181.5 -167.5t-118.5 -185.5t-42.5 -183.5q0 -31 15 -54.5t47 -23.5q42 0 94 23t108 60t112.5 83t106 92.5t88.5 88.5t62 71q60 -48 104 -85.5
t82 -68.5q-21 -29 -67.5 -77.5t-111.5 -103.5t-145.5 -108.5t-168.5 -93.5q-23 -10 -53 -36.5t-57 -59.5t-45.5 -67t-18.5 -58q0 -14 9 -21.5t21 -7.5q11 0 28 3.5t37 10t40 14.5t37 17q3 -12 7 -31l8 -38t7.5 -35.5t5.5 -24.5z" />
    <glyph glyph-name="eogonek" unicode="&#x119;" horiz-adv-x="645" 
d="M360 -332q-27 -15 -74.5 -30t-109.5 -15q-16 0 -38 12.5t-42.5 30.5t-34.5 37.5t-14 34.5q0 28 9 55t23.5 52.5t33.5 49t39 44.5q-28 -5 -54.5 -8t-52.5 -3q-27 0 -60 20t-61.5 48.5t-47.5 59.5t-19 53q0 82 22.5 150.5t59.5 123.5t84.5 97t99 70t102.5 42t94 14
q31 0 61.5 -18t55.5 -44t40.5 -54.5t15.5 -49.5q0 -34 -28.5 -69.5t-81 -72.5t-125.5 -76t-161 -79q-2 -11 -2 -22.5v-22.5q0 -31 13.5 -42t50.5 -11q66 0 124.5 22t112.5 57t104 80t99 91l49 -49q-48 -48 -90 -84.5t-81.5 -66t-80 -54t-86.5 -47.5q-21 -11 -47 -36.5
t-48.5 -56.5t-38 -63.5t-15.5 -56.5q0 -14 9 -21.5t21 -7.5q11 0 28 3.5t37 10t40 14.5t37 17q3 -12 7 -31l8 -38t7.5 -35.5t5.5 -24.5zM295 496q-20 0 -44 -21t-48.5 -56.5t-46.5 -81t-37 -93.5q37 24 73 51t63.5 56.5t44.5 60t17 61.5q0 9 -5.5 16t-16.5 7z" />
    <glyph glyph-name="Ecaron" unicode="&#x11a;" horiz-adv-x="1126" 
d="M842 973q38 31 74 77t64 97t45 104t17 99q0 37 -17.5 62.5t-63.5 25.5q-39 0 -86 -18t-95 -49.5t-93.5 -75t-80.5 -94.5t-56.5 -107t-21.5 -113q0 -49 12 -84.5t35 -63t55.5 -50.5t74.5 -48q-126 -53 -231.5 -130.5t-181.5 -167.5t-118.5 -185.5t-42.5 -183.5
q0 -31 15 -54.5t47 -23.5q42 0 94 23t108 60t112.5 83t106 92.5t88.5 88.5t62 71q60 -48 104 -85.5t82 -68.5q-17 -23 -56.5 -64t-94 -88t-119 -95.5t-131 -87.5t-131.5 -64t-119 -25q-47 0 -93.5 16t-88.5 42.5t-77.5 61t-62 71.5t-42.5 74t-17 69v24q0 105 37 198
t101.5 171.5t151 142t185.5 110.5q-18 18 -35.5 39t-31 47.5t-21.5 59.5t-8 74q0 70 25 137t67 126t98.5 108t119.5 84.5t129 55.5t128 20q103 0 144 -21q34 -18 73.5 -52t73.5 -74.5t57 -82t23 -74.5q0 -57 -19 -119t-50 -120.5t-71 -110t-81 -86.5zM805 1942
q10 3 26.5 6.5t34.5 6.5t36.5 6t33.5 5l26 -200q57 49 106.5 94t104.5 100q20 -12 35.5 -30.5t32.5 -36.5q-68 -68 -133.5 -130t-134.5 -112q-38 0 -67 5t-60 16q-6 24 -13 59t-12.5 73.5t-10 75t-5.5 62.5z" />
    <glyph glyph-name="ecaron" unicode="&#x11b;" horiz-adv-x="645" 
d="M647 246q-92 -90 -173.5 -151t-155.5 -98t-141.5 -53t-131.5 -16q-27 0 -60 20t-61.5 48.5t-47.5 59.5t-19 53q0 82 22.5 150.5t59.5 123.5t84.5 97t99 70t102.5 42t94 14q31 0 61.5 -18t55.5 -44t40.5 -54.5t15.5 -49.5q0 -34 -28.5 -69.5t-80.5 -72.5t-125 -75.5
t-161 -77.5q-3 -24 -3 -47q0 -31 13.5 -42t50.5 -11q66 0 124.5 22t112.5 57t104 80t99 91zM295 496q-20 0 -44 -21.5t-48 -56.5t-46 -80.5t-38 -94.5q37 24 72.5 51t63.5 56.5t45 60.5t17 62q0 9 -5.5 16t-16.5 7zM204 975q10 3 26.5 6.5t34.5 6.5t36.5 6t33.5 5l26 -200
q57 49 106.5 94t104.5 100q20 -12 35.5 -30.5t32.5 -36.5q-68 -68 -133.5 -130t-134.5 -112q-38 0 -67 5t-60 16q-6 24 -13 59t-12.5 73.5t-10 75t-5.5 62.5z" />
    <glyph glyph-name="Gcircumflex" unicode="&#x11c;" horiz-adv-x="1206" 
d="M1047 537q-6 -7 -27 -52t-50.5 -116t-63.5 -164t-67 -196.5t-61 -212.5t-45 -212q-27 -8 -61.5 -16t-68.5 -15t-62 -11.5t-41 -4.5q18 77 35.5 147t38.5 136.5t46.5 131.5t59.5 134q-38 -49 -80.5 -95t-87 -82t-90 -57.5t-90.5 -21.5q-31 0 -69.5 17t-77.5 46.5t-76 70
t-65.5 87.5t-46 99t-17.5 104q0 86 24 188t67 210t104 217.5t134 210.5t156.5 188.5t173.5 152.5t183 102.5t186 37.5q35 0 68.5 -15.5t63 -39t54 -51.5t41.5 -52q20 -29 36.5 -67t16.5 -76q0 -64 -19.5 -135t-53.5 -141t-80 -135.5t-99 -117.5l-176 164q30 31 72 80
t80 110.5t65 131t27 141.5q0 12 -1 27t-6.5 28t-17 22t-32.5 9q-56 0 -122.5 -42t-137 -113.5t-142 -167t-137.5 -202.5t-123.5 -219.5t-100 -218.5t-67 -199t-24.5 -161q0 -63 15.5 -90t43.5 -27q34 0 77 22.5t89.5 59t93 82t87 92t73 89.5t51.5 73q18 29 31 60t30 63
q38 0 70.5 -1t64 -2.5t62.5 -2.5t66 -2zM1251 1669q-26 -5 -53 -9t-58 -9q-14 38 -29 86t-26 102q-51 -44 -101 -85.5t-116 -92.5q-11 16 -23.5 27.5t-29.5 30.5q34 31 71 66.5t72 70.5l67 67l58 58q45 -6 75 -18t56 -27q3 -28 7.5 -65t9.5 -74.5t10 -71.5t10 -56z" />
    <glyph glyph-name="gcircumflex" unicode="&#x11d;" horiz-adv-x="778" 
d="M782 246q-86 -88 -172.5 -161.5t-171.5 -137.5q-16 -46 -34.5 -93.5t-38.5 -95.5q-29 -66 -67.5 -126.5t-81.5 -112t-88 -93t-86.5 -70.5t-77 -45t-60.5 -16q-17 0 -40 15t-43.5 37.5t-35 49t-14.5 50.5q0 52 35.5 102t98 103t146.5 111.5t182 126.5q22 57 49.5 135.5
t65.5 193.5q-36 -50 -84 -98.5t-99 -86.5t-101.5 -61.5t-92.5 -23.5q-11 0 -28.5 10.5t-35 27.5t-30 40t-12.5 49q0 33 16 79.5t46.5 98.5t74 106t98 101.5t119 85t137.5 57.5q11 0 31 -8.5t39.5 -19t34 -20.5t14.5 -13q0 -2 -3 -5q-2 -1 -3 -1q-23 -14 -59 -39t-76 -56.5
t-80 -67.5t-72.5 -71.5t-52.5 -68t-20 -58.5q0 -9 4.5 -15.5t13.5 -6.5q25 0 56.5 17.5t64.5 45.5t66 62.5t62.5 68t52.5 62.5t36 47q2 2 3.5 4t4.5 4q8 -2 21.5 -20t26.5 -41.5t22.5 -46.5t9.5 -33v-2q0 -1 -2 -7q-11 -35 -28 -98t-43 -145q64 51 128.5 107t128.5 120z
M-111 -571q20 0 57.5 30.5t79.5 78t82.5 105t67.5 111.5q-65 -47 -119 -88.5t-92.5 -80.5t-60 -75.5t-21.5 -72.5q0 -8 6 -8zM633 702q-26 -5 -53 -9t-58 -9q-14 38 -29 86t-26 102q-51 -44 -101 -85.5t-116 -92.5q-11 16 -23.5 27.5t-29.5 30.5q34 31 71 66.5t72 70.5
l67 67l58 58q45 -6 75 -18t56 -27q3 -28 7.5 -65t9.5 -74.5t10 -71.5t10 -56z" />
    <glyph glyph-name="Gbreve" unicode="&#x11e;" horiz-adv-x="1206" 
d="M1047 537q-6 -7 -27 -52t-50.5 -116t-63.5 -164t-67 -196.5t-61 -212.5t-45 -212q-27 -8 -61.5 -16t-68.5 -15t-62 -11.5t-41 -4.5q18 77 35.5 147t38.5 136.5t46.5 131.5t59.5 134q-38 -49 -80.5 -95t-87 -82t-90 -57.5t-90.5 -21.5q-31 0 -69.5 17t-77.5 46.5t-76 70
t-65.5 87.5t-46 99t-17.5 104q0 86 24 188t67 210t104 217.5t134 210.5t156.5 188.5t173.5 152.5t183 102.5t186 37.5q35 0 68.5 -15.5t63 -39t54 -51.5t41.5 -52q20 -29 36.5 -67t16.5 -76q0 -64 -19.5 -135t-53.5 -141t-80 -135.5t-99 -117.5l-176 164q30 31 72 80
t80 110.5t65 131t27 141.5q0 12 -1 27t-6.5 28t-17 22t-32.5 9q-56 0 -122.5 -42t-137 -113.5t-142 -167t-137.5 -202.5t-123.5 -219.5t-100 -218.5t-67 -199t-24.5 -161q0 -63 15.5 -90t43.5 -27q34 0 77 22.5t89.5 59t93 82t87 92t73 89.5t51.5 73q18 29 31 60t30 63
q38 0 70.5 -1t64 -2.5t62.5 -2.5t66 -2zM1294 1897q-10 -25 -26.5 -63t-46 -74t-74 -62t-111.5 -26q-31 0 -57.5 6t-46.5 18.5t-31.5 32.5t-11.5 49q0 15 2 34t6.5 40t11.5 41.5t16 38.5q15 0 36.5 -0.5t42 -2t37.5 -3t24 -3.5q-4 -8 -11.5 -24.5t-14.5 -35.5t-12 -38.5
t-5 -34.5q0 -8 5 -13t17 -5q32 0 57 14.5t43.5 37.5t31 51t20.5 55q40 -11 61.5 -19t36.5 -14z" />
    <glyph glyph-name="gbreve" unicode="&#x11f;" horiz-adv-x="778" 
d="M782 246q-86 -88 -172.5 -161.5t-171.5 -137.5q-16 -46 -34.5 -93.5t-38.5 -95.5q-29 -66 -67.5 -126.5t-81.5 -112t-88 -93t-86.5 -70.5t-77 -45t-60.5 -16q-17 0 -40 15t-43.5 37.5t-35 49t-14.5 50.5q0 52 35.5 102t98 103t146.5 111.5t182 126.5q22 57 49.5 135.5
t65.5 193.5q-36 -50 -84 -98.5t-99 -86.5t-101.5 -61.5t-92.5 -23.5q-11 0 -28.5 10.5t-35 27.5t-30 40t-12.5 49q0 33 16 79.5t46.5 98.5t74 106t98 101.5t119 85t137.5 57.5q11 0 31 -8.5t39.5 -19t34 -20.5t14.5 -13q0 -2 -3 -5q-2 -1 -3 -1q-23 -14 -59 -39t-76 -56.5
t-80 -67.5t-72.5 -71.5t-52.5 -68t-20 -58.5q0 -9 4.5 -15.5t13.5 -6.5q25 0 56.5 17.5t64.5 45.5t66 62.5t62.5 68t52.5 62.5t36 47q2 2 3.5 4t4.5 4q8 -2 21.5 -20t26.5 -41.5t22.5 -46.5t9.5 -33v-2q0 -1 -2 -7q-11 -35 -28 -98t-43 -145q64 51 128.5 107t128.5 120z
M-111 -571q20 0 57.5 30.5t79.5 78t82.5 105t67.5 111.5q-65 -47 -119 -88.5t-92.5 -80.5t-60 -75.5t-21.5 -72.5q0 -8 6 -8zM676 930q-10 -25 -26.5 -63t-46 -74t-74 -62t-111.5 -26q-31 0 -57.5 6t-46.5 18.5t-31.5 32.5t-11.5 49q0 15 2 34t6.5 40t11.5 41.5t16 38.5
q15 0 36.5 -0.5t42 -2t37.5 -3t24 -3.5q-4 -8 -11.5 -24.5t-14.5 -35.5t-12 -38.5t-5 -34.5q0 -8 5 -13t17 -5q32 0 57 14.5t43.5 37.5t31 51t20.5 55q40 -11 61.5 -19t36.5 -14z" />
    <glyph glyph-name="Gdotaccent" unicode="&#x120;" horiz-adv-x="1206" 
d="M1047 537q-6 -7 -27 -52t-50.5 -116t-63.5 -164t-67 -196.5t-61 -212.5t-45 -212q-27 -8 -61.5 -16t-68.5 -15t-62 -11.5t-41 -4.5q18 77 35.5 147t38.5 136.5t46.5 131.5t59.5 134q-38 -49 -80.5 -95t-87 -82t-90 -57.5t-90.5 -21.5q-31 0 -69.5 17t-77.5 46.5t-76 70
t-65.5 87.5t-46 99t-17.5 104q0 86 24 188t67 210t104 217.5t134 210.5t156.5 188.5t173.5 152.5t183 102.5t186 37.5q35 0 68.5 -15.5t63 -39t54 -51.5t41.5 -52q20 -29 36.5 -67t16.5 -76q0 -64 -19.5 -135t-53.5 -141t-80 -135.5t-99 -117.5l-176 164q30 31 72 80
t80 110.5t65 131t27 141.5q0 12 -1 27t-6.5 28t-17 22t-32.5 9q-56 0 -122.5 -42t-137 -113.5t-142 -167t-137.5 -202.5t-123.5 -219.5t-100 -218.5t-67 -199t-24.5 -161q0 -63 15.5 -90t43.5 -27q34 0 77 22.5t89.5 59t93 82t87 92t73 89.5t51.5 73q18 29 31 60t30 63
q38 0 70.5 -1t64 -2.5t62.5 -2.5t66 -2zM1173 1829q0 -6 -12 -30t-27.5 -50.5t-30.5 -47.5t-22 -21t-30.5 9.5t-49 22.5t-45.5 25.5t-20 17.5q0 15 11.5 43t26 55.5t28.5 47.5t20 20q13 0 38 -12.5t50 -28t44 -30.5t19 -21z" />
    <glyph glyph-name="gdotaccent" unicode="&#x121;" horiz-adv-x="778" 
d="M782 246q-86 -88 -172.5 -161.5t-171.5 -137.5q-16 -46 -34.5 -93.5t-38.5 -95.5q-29 -66 -67.5 -126.5t-81.5 -112t-88 -93t-86.5 -70.5t-77 -45t-60.5 -16q-17 0 -40 15t-43.5 37.5t-35 49t-14.5 50.5q0 52 35.5 102t98 103t146.5 111.5t182 126.5q22 57 49.5 135.5
t65.5 193.5q-36 -50 -84 -98.5t-99 -86.5t-101.5 -61.5t-92.5 -23.5q-11 0 -28.5 10.5t-35 27.5t-30 40t-12.5 49q0 33 16 79.5t46.5 98.5t74 106t98 101.5t119 85t137.5 57.5q11 0 31 -8.5t39.5 -19t34 -20.5t14.5 -13q0 -2 -3 -5q-2 -1 -3 -1q-23 -14 -59 -39t-76 -56.5
t-80 -67.5t-72.5 -71.5t-52.5 -68t-20 -58.5q0 -9 4.5 -15.5t13.5 -6.5q25 0 56.5 17.5t64.5 45.5t66 62.5t62.5 68t52.5 62.5t36 47q2 2 3.5 4t4.5 4q8 -2 21.5 -20t26.5 -41.5t22.5 -46.5t9.5 -33v-2q0 -1 -2 -7q-11 -35 -28 -98t-43 -145q64 51 128.5 107t128.5 120z
M-111 -571q20 0 57.5 30.5t79.5 78t82.5 105t67.5 111.5q-65 -47 -119 -88.5t-92.5 -80.5t-60 -75.5t-21.5 -72.5q0 -8 6 -8zM555 862q0 -6 -12 -30t-27.5 -50.5t-30.5 -47.5t-22 -21t-30.5 9.5t-49 22.5t-45.5 25.5t-20 17.5q0 15 11.5 43t26 55.5t28.5 47.5t20 20
q13 0 38 -12.5t50 -28t44 -30.5t19 -21z" />
    <glyph glyph-name="Gcommaaccent" unicode="&#x122;" horiz-adv-x="1206" 
d="M1047 537q-6 -7 -27 -52t-50.5 -116t-63.5 -164t-67 -196.5t-61 -212.5t-45 -212q-27 -8 -61.5 -16t-68.5 -15t-62 -11.5t-41 -4.5q18 77 35.5 147t38.5 136.5t46.5 131.5t59.5 134q-38 -49 -80.5 -95t-87 -82t-90 -57.5t-90.5 -21.5q-31 0 -69.5 17t-77.5 46.5t-76 70
t-65.5 87.5t-46 99t-17.5 104q0 86 24 188t67 210t104 217.5t134 210.5t156.5 188.5t173.5 152.5t183 102.5t186 37.5q35 0 68.5 -15.5t63 -39t54 -51.5t41.5 -52q20 -29 36.5 -67t16.5 -76q0 -64 -19.5 -135t-53.5 -141t-80 -135.5t-99 -117.5l-176 164q30 31 72 80
t80 110.5t65 131t27 141.5q0 12 -1 27t-6.5 28t-17 22t-32.5 9q-56 0 -122.5 -42t-137 -113.5t-142 -167t-137.5 -202.5t-123.5 -219.5t-100 -218.5t-67 -199t-24.5 -161q0 -63 15.5 -90t43.5 -27q34 0 77 22.5t89.5 59t93 82t87 92t73 89.5t51.5 73q18 29 31 60t30 63
q38 0 70.5 -1t64 -2.5t62.5 -2.5t66 -2zM395 -363q0 -30 -18.5 -69t-45 -77t-56.5 -71.5t-54 -52.5q-4 1 -14.5 8.5t-21.5 17.5t-20 18.5t-10 10.5q9 8 23 22t27.5 29t23.5 30.5t10 26.5q0 17 -9.5 30.5t-22 23.5t-24 17t-15.5 11q3 17 14.5 39.5t25.5 44t27.5 38t20.5 20.5
q13 0 36 -11.5t46 -28.5t40 -38t17 -39z" />
    <glyph glyph-name="gcommaaccent" unicode="&#x123;" horiz-adv-x="778" 
d="M782 246q-86 -88 -172.5 -161.5t-171.5 -137.5q-16 -46 -34.5 -93.5t-38.5 -95.5q-29 -66 -67.5 -126.5t-81.5 -112t-88 -93t-86.5 -70.5t-77 -45t-60.5 -16q-17 0 -40 15t-43.5 37.5t-35 49t-14.5 50.5q0 52 35.5 102t98 103t146.5 111.5t182 126.5q22 57 49.5 135.5
t65.5 193.5q-36 -50 -84 -98.5t-99 -86.5t-101.5 -61.5t-92.5 -23.5q-11 0 -28.5 10.5t-35 27.5t-30 40t-12.5 49q0 33 16 79.5t46.5 98.5t74 106t98 101.5t119 85t137.5 57.5q11 0 31 -8.5t39.5 -19t34 -20.5t14.5 -13q0 -2 -3 -5q-2 -1 -3 -1q-23 -14 -59 -39t-76 -56.5
t-80 -67.5t-72.5 -71.5t-52.5 -68t-20 -58.5q0 -9 4.5 -15.5t13.5 -6.5q25 0 56.5 17.5t64.5 45.5t66 62.5t62.5 68t52.5 62.5t36 47q2 2 3.5 4t4.5 4q8 -2 21.5 -20t26.5 -41.5t22.5 -46.5t9.5 -33q0 -7 -4 -24.5t-11 -41t-15 -50.5t-16.5 -52.5t-15.5 -48t-11 -35.5
q64 51 128.5 107t128.5 120zM266 811q0 30 18.5 69t45 77t56.5 71.5t54 52.5q4 -1 14.5 -8.5t22 -17.5t20 -18.5t9.5 -10.5q-9 -8 -23 -22t-27.5 -29t-23.5 -30.5t-10 -26.5q0 -17 9.5 -30.5t22 -24t24.5 -17t16 -10.5q-3 -17 -15 -39.5t-26 -44t-27 -38t-20 -20.5
q-13 0 -36.5 11.5t-46.5 28.5t-40 38t-17 39zM-111 -571q20 0 57.5 30.5t79.5 78t82.5 105t67.5 111.5q-65 -47 -119 -88.5t-92.5 -80.5t-60 -75.5t-21.5 -72.5q0 -8 6 -8z" />
    <glyph glyph-name="Hcircumflex" unicode="&#x124;" horiz-adv-x="1360" 
d="M668 1372q-45 -118 -89.5 -228t-88 -214t-87.5 -204t-89 -197q75 11 152.5 23t144 22t114.5 17t63 10q85 204 163.5 413.5t156.5 427.5l63 -63l65 -65t54 -54.5t31 -32.5q-70 -149 -137 -291t-133 -278q89 22 142 40.5t80.5 29t34.5 12.5t5 -7q-3 -8 -13 -28.5
t-24.5 -46.5t-32.5 -54.5t-35.5 -52.5t-33.5 -40t-27 -17q-21 -4 -49 -8q-24 -4 -59.5 -9.5t-81.5 -12.5q-104 -212 -195.5 -384.5t-165.5 -290.5q-37 30 -70 59.5t-65 40.5q-19 118 -71 256.5t-127 275.5q-71 -150 -145 -297.5t-157 -303.5q-43 35 -82.5 61.5t-66.5 46.5
q44 87 96 198.5t107.5 242t112.5 276t113 300.5t109 315.5t99 320.5q29 -28 59.5 -55.5t60 -54t55 -52t44.5 -47.5zM544 52q89 186 173 379q-147 -19 -341 -39q27 -42 51.5 -88t46 -91t39 -86.5t31.5 -74.5zM1141 1599q-26 -5 -53 -9t-58 -9q-14 38 -29 86t-26 102
q-51 -44 -101 -85.5t-116 -92.5q-11 16 -23.5 27.5t-29.5 30.5q34 31 71 66.5t72 70.5l67 67l58 58q45 -6 75 -18t56 -27q3 -28 7.5 -65t9.5 -74.5t10 -71.5t10 -56z" />
    <glyph glyph-name="hcircumflex" unicode="&#x125;" horiz-adv-x="862" 
d="M512 84q15 0 40 13t55.5 33t62.5 44.5t61.5 48t52.5 43t35 29.5q9 -9 21.5 -23t23.5 -26q-22 -22 -55 -52.5t-71 -62.5t-79 -63t-80 -56t-73 -40t-57 -15q-19 0 -44.5 9.5t-49 24t-40 32t-16.5 34.5q1 43 16 100t35.5 117t44 118.5t43.5 104.5q-8 -2 -31 -22t-55.5 -54.5
t-71 -83t-76 -108.5t-71.5 -129.5t-57 -146.5q-3 -11 -8.5 -16t-18.5 -5q-9 0 -28 9t-40 21.5t-41 26.5t-32 25q-6 7 -10 13t-4 18q0 66 22 162t60.5 208.5t90 235t110 240.5t122 224.5t125 188t118 131t103.5 52.5q23 -7 46.5 -22t44.5 -33t37.5 -35t25.5 -29q6 -8 8 -19
t2 -16q0 -36 -20 -89t-56 -119t-87.5 -141.5t-114 -155t-135 -160.5t-151.5 -157q-20 -54 -36 -105q54 56 99 94t80 60.5t59.5 32t37.5 9.5q9 0 32 -11.5t48 -27.5t46 -33t26 -28q2 -5 0 -13.5t-4 -13.5q-9 -27 -21.5 -62.5t-27 -75t-28.5 -79.5t-25 -73.5t-18 -59t-7 -35.5
q0 -6 6 -6zM424 944q-24 -51 -46.5 -101.5t-43.5 -101.5q67 86 130 174.5t112.5 170t79.5 150.5t30 116q0 22 -8 22q-12 0 -36.5 -32.5t-58.5 -89.5t-74.5 -136t-84.5 -172zM926 1603q-26 -5 -53 -9t-58 -9q-14 38 -29 86t-26 102q-51 -44 -101 -85.5t-116 -92.5
q-11 16 -23.5 27.5t-29.5 30.5q34 31 71 66.5t72 70.5l67 67l58 58q45 -6 75 -18t56 -27q3 -28 7.5 -65t9.5 -74.5t10 -71.5t10 -56z" />
    <glyph glyph-name="Hbar" unicode="&#x126;" horiz-adv-x="1421" 
d="M1275 999h191q-4 -18 -10.5 -38.5t-14.5 -40t-16 -36.5t-14 -26q-8 0 -63.5 -0.5t-139.5 -0.5l-95 -199q88 22 141 40.5t80.5 29t34.5 12.5t5 -7q-3 -8 -13 -28.5t-24.5 -46.5t-32.5 -54.5t-35.5 -52.5t-33.5 -40t-27 -17q-21 -4 -49 -8q-24 -4 -59.5 -9.5t-81.5 -12.5
q-104 -212 -195 -384.5t-166 -290.5q-32 28 -64.5 55t-58.5 41q-5 0 -9 2q-2 1 -3 2q-9 58 -27 123t-43.5 133t-57.5 137.5t-69 137.5q-71 -150 -145 -297.5t-157 -302.5q-44 35 -83 61.5t-67 46.5q41 80 88.5 181.5t98.5 220t104 251t105 273.5q-88 1 -143.5 1.5t-59.5 2.5
q3 12 9 30.5t13.5 37.5t15 36t13.5 25q5 2 60 3.5t143 3.5q51 144 99 291t91 296q29 -28 60 -55.5t60.5 -54t55 -52t43.5 -47.5q-38 -100 -75 -192.5t-75 -183.5q105 1 214.5 1.5t213.5 0.5q82 219 162 444l63 -63l65 -65t54 -54.5t31 -32.5zM952 855q-108 0 -216.5 -0.5
t-215.5 -0.5q-36 -84 -71.5 -164.5t-72.5 -160.5q75 11 152.5 23t144 22t114.5 17t63 10zM605 52q45 93 88 187.5t85 191.5q-147 -19 -341 -39q27 -42 51.5 -88t46 -91t39 -86.5t31.5 -74.5z" />
    <glyph glyph-name="hbar" unicode="&#x127;" horiz-adv-x="862" 
d="M512 84q15 0 40 13t55.5 33t62.5 44.5t61.5 48t52.5 43t35 29.5q9 -9 21.5 -23t23.5 -26q-22 -22 -55 -52.5t-71 -62.5t-79 -63t-80 -56t-73 -40t-57 -15q-19 0 -44.5 9.5t-49 24t-40 32t-16.5 34.5q1 43 16 100t35.5 117t44 118.5t43.5 104.5q-8 -2 -31 -22t-55.5 -54.5
t-71 -83t-76 -108.5t-71.5 -129.5t-57 -146.5q-3 -11 -8.5 -16t-18.5 -5q-9 0 -28 9t-40 21.5t-41 26.5t-32 25q-6 7 -10 13t-4 18q0 67 23 166t62.5 215t93 241.5t114.5 245.5l-154 -10q3 12 9.5 30.5t14 37.5t15 36t12.5 25q29 3 74.5 6t99.5 7q51 92 103.5 171.5
t102.5 138.5t96 94t85 38q23 -7 46.5 -22t44.5 -33t37.5 -35t25.5 -29q6 -8 8 -19t2 -16q0 -42 -27.5 -109t-77.5 -150q40 2 75.5 4t62.5 3.5t44 2.5t21 1q-4 -18 -10.5 -38.5t-14.5 -40t-16 -36.5t-14 -26q-17 0 -79.5 -2t-160.5 -7q-74 -103 -167 -212t-200 -212
q-20 -54 -36 -105q54 56 98.5 94t79 60.5t57.5 32t33 9.5q12 0 37 -11.5t50.5 -27.5t46.5 -33t26 -28q2 -5 0 -13.5t-4 -13.5q-9 -27 -21.5 -62.5t-27 -75t-28.5 -79.5t-25 -73.5t-18 -59t-7 -35.5q0 -6 6 -6zM678 1374q-10 0 -29 -23t-45 -64t-57.5 -99t-66.5 -128l85 6
q54 88 87.5 161.5t33.5 124.5q0 22 -8 22zM415 926q-21 -47 -41 -93l-40 -92q36 47 71 93.5t68 94.5z" />
    <glyph glyph-name="Itilde" unicode="&#x128;" horiz-adv-x="1018" 
d="M1128 1384q5 -11 9 -28.5t4 -42.5q0 -62 -18 -138.5t-50 -163t-78 -179.5t-101 -188t-119 -188.5t-133 -180.5q43 -52 91.5 -97t102.5 -80q-33 -25 -62 -39q-39 17 -89.5 53t-104.5 88q-117 -137 -234.5 -237t-232.5 -149q-14 -6 -35 -10.5t-56 -4.5q-28 0 -58 21
t-57.5 50t-49 58.5t-33.5 46.5q-13 19 -21 47t-8 70q0 51 11 104t40 121q12 5 42.5 14.5t67 19.5t72.5 19t60 13q-30 -45 -56 -86.5t-44.5 -83t-29.5 -85t-11 -91.5q0 -20 7.5 -38.5t27.5 -18.5q31 0 78 31t104.5 86t122.5 130t133 162q-38 54 -70 114.5t-55.5 126
t-37 134.5t-13.5 141q0 106 33.5 196t89 163.5t127 129.5t147.5 94t150.5 57.5t136.5 19.5q34 0 51 -13q17 -11 40 -33.5t45.5 -47.5t40 -48.5t23.5 -38.5zM420 797q0 -67 21 -144t59 -156q60 83 117.5 170.5t109 174.5t95 171t75 159.5t49 140t17.5 112.5q0 13 -5 16t-14 3
q-14 0 -58.5 -16.5t-102.5 -51t-122 -87t-117.5 -124.5t-88.5 -164t-35 -204zM1133 1823q16 0 32 7t30.5 18.5t27.5 25.5t24 29q19 -9 34.5 -21t35.5 -24q-16 -25 -39 -55t-53.5 -56t-67.5 -43.5t-82 -17.5q-17 0 -39.5 17t-46 38t-44.5 38.5t-36 18.5q-11 0 -26.5 -7.5
t-32.5 -19.5t-33.5 -28t-30.5 -33q-26 17 -39 29t-30 25q19 23 46 52.5t59 55.5t68.5 44t74.5 18q16 0 38.5 -17.5t45.5 -38t45.5 -38t38.5 -17.5z" />
    <glyph glyph-name="itilde" unicode="&#x129;" horiz-adv-x="428" 
d="M18 -55q-15 0 -38 10.5t-44 26t-36 34.5t-15 37q10 44 27 101t36.5 116t41 115.5t39 100.5t30.5 71t17 27q6 0 30 -13t50.5 -31.5t47.5 -39t21 -35.5q0 -3 -1 -7.5t-3 -11.5q-8 -25 -20.5 -59t-26.5 -70.5l-28 -73t-25 -68.5t-18 -56t-7 -35q0 -6 6 -6q11 0 33 13
t50.5 34t59.5 46t59.5 49.5t51.5 44.5t35 30q9 -9 21.5 -23t23.5 -26q-22 -22 -55 -53.5t-71.5 -64.5t-80 -66t-80.5 -59t-73 -42t-58 -16zM380 856q16 0 32 7t30.5 18.5t27.5 25.5t24 29q19 -9 34.5 -21t35.5 -24q-16 -25 -39 -55t-53.5 -56t-67.5 -43.5t-82 -17.5
q-17 0 -39.5 17t-46 38t-44.5 38.5t-36 18.5q-11 0 -26.5 -7.5t-32.5 -19.5t-33.5 -28t-30.5 -33q-26 17 -39 29t-30 25q19 23 46 52.5t59 55.5t68.5 44t74.5 18q16 0 38.5 -17.5t45.5 -38t45.5 -38t38.5 -17.5z" />
    <glyph glyph-name="Imacron" unicode="&#x12a;" horiz-adv-x="1018" 
d="M1128 1384q5 -11 9 -28.5t4 -42.5q0 -62 -18 -138.5t-50 -163t-78 -179.5t-101 -188t-119 -188.5t-133 -180.5q43 -52 91.5 -97t102.5 -80q-33 -25 -62 -39q-39 17 -89.5 53t-104.5 88q-117 -137 -234.5 -237t-232.5 -149q-14 -6 -35 -10.5t-56 -4.5q-28 0 -58 21
t-57.5 50t-49 58.5t-33.5 46.5q-13 19 -21 47t-8 70q0 51 11 104t40 121q12 5 42.5 14.5t67 19.5t72.5 19t60 13q-30 -45 -56 -86.5t-44.5 -83t-29.5 -85t-11 -91.5q0 -20 7.5 -38.5t27.5 -18.5q31 0 78 31t104.5 86t122.5 130t133 162q-38 54 -70 114.5t-55.5 126
t-37 134.5t-13.5 141q0 106 33.5 196t89 163.5t127 129.5t147.5 94t150.5 57.5t136.5 19.5q34 0 51 -13q17 -11 40 -33.5t45.5 -47.5t40 -48.5t23.5 -38.5zM420 797q0 -67 21 -144t59 -156q60 83 117.5 170.5t109 174.5t95 171t75 159.5t49 140t17.5 112.5q0 13 -5 16t-14 3
q-14 0 -58.5 -16.5t-102.5 -51t-122 -87t-117.5 -124.5t-88.5 -164t-35 -204zM1257 1876q-21 -48 -41 -77.5t-34 -51.5q-13 -1 -47 -1t-77.5 -0.5t-92.5 -0.5h-91.5h-74h-41.5q14 25 32 56.5t35 68.5h37t77 0.5t97 1t98.5 1.5t80 1.5t42.5 1.5z" />
    <glyph glyph-name="imacron" unicode="&#x12b;" horiz-adv-x="428" 
d="M18 -55q-15 0 -38 10.5t-44 26t-36 34.5t-15 37q10 44 27 101t36.5 116t41 115.5t39 100.5t30.5 71t17 27q6 0 30 -13t50.5 -31.5t47.5 -39t21 -35.5q0 -3 -1 -7.5t-3 -11.5q-8 -25 -20.5 -59t-26.5 -70.5l-28 -73t-25 -68.5t-18 -56t-7 -35q0 -6 6 -6q11 0 33 13
t50.5 34t59.5 46t59.5 49.5t51.5 44.5t35 30q9 -9 21.5 -23t23.5 -26q-22 -22 -55 -53.5t-71.5 -64.5t-80 -66t-80.5 -59t-73 -42t-58 -16zM504 909q-21 -48 -41 -77.5t-34 -51.5q-13 -1 -47 -1t-77.5 -0.5t-92.5 -0.5h-91.5h-74h-41.5q14 25 32 56.5t35 68.5h37t77 0.5
t97 1t98.5 1.5t80 1.5t42.5 1.5z" />
    <glyph glyph-name="Ibreve" unicode="&#x12c;" horiz-adv-x="1018" 
d="M1128 1384q5 -11 9 -28.5t4 -42.5q0 -62 -18 -138.5t-50 -163t-78 -179.5t-101 -188t-119 -188.5t-133 -180.5q43 -52 91.5 -97t102.5 -80q-33 -25 -62 -39q-39 17 -89.5 53t-104.5 88q-117 -137 -234.5 -237t-232.5 -149q-14 -6 -35 -10.5t-56 -4.5q-28 0 -58 21
t-57.5 50t-49 58.5t-33.5 46.5q-13 19 -21 47t-8 70q0 51 11 104t40 121q12 5 42.5 14.5t67 19.5t72.5 19t60 13q-30 -45 -56 -86.5t-44.5 -83t-29.5 -85t-11 -91.5q0 -20 7.5 -38.5t27.5 -18.5q31 0 78 31t104.5 86t122.5 130t133 162q-38 54 -70 114.5t-55.5 126
t-37 134.5t-13.5 141q0 106 33.5 196t89 163.5t127 129.5t147.5 94t150.5 57.5t136.5 19.5q34 0 51 -13q17 -11 40 -33.5t45.5 -47.5t40 -48.5t23.5 -38.5zM420 797q0 -67 21 -144t59 -156q60 83 117.5 170.5t109 174.5t95 171t75 159.5t49 140t17.5 112.5q0 13 -5 16t-14 3
q-14 0 -58.5 -16.5t-102.5 -51t-122 -87t-117.5 -124.5t-88.5 -164t-35 -204zM1237 1897q-10 -25 -26.5 -63t-46 -74t-74 -62t-111.5 -26q-31 0 -57.5 6t-46.5 18.5t-31.5 32.5t-11.5 49q0 15 2 34t6.5 40t11.5 41.5t16 38.5q15 0 36.5 -0.5t42 -2t37.5 -3t24 -3.5
q-4 -8 -11.5 -24.5t-14.5 -35.5t-12 -38.5t-5 -34.5q0 -8 5 -13t17 -5q32 0 57 14.5t43.5 37.5t31 51t20.5 55q40 -11 61.5 -19t36.5 -14z" />
    <glyph glyph-name="ibreve" unicode="&#x12d;" horiz-adv-x="428" 
d="M18 -55q-15 0 -38 10.5t-44 26t-36 34.5t-15 37q10 44 27 101t36.5 116t41 115.5t39 100.5t30.5 71t17 27q6 0 30 -13t50.5 -31.5t47.5 -39t21 -35.5q0 -3 -1 -7.5t-3 -11.5q-8 -25 -20.5 -59t-26.5 -70.5l-28 -73t-25 -68.5t-18 -56t-7 -35q0 -6 6 -6q11 0 33 13
t50.5 34t59.5 46t59.5 49.5t51.5 44.5t35 30q9 -9 21.5 -23t23.5 -26q-22 -22 -55 -53.5t-71.5 -64.5t-80 -66t-80.5 -59t-73 -42t-58 -16zM484 930q-10 -25 -26.5 -63t-46 -74t-74 -62t-111.5 -26q-31 0 -57.5 6t-46.5 18.5t-31.5 32.5t-11.5 49q0 15 2 34t6.5 40
t11.5 41.5t16 38.5q15 0 36.5 -0.5t42 -2t37.5 -3t24 -3.5q-4 -8 -11.5 -24.5t-14.5 -35.5t-12 -38.5t-5 -34.5q0 -8 5 -13t17 -5q32 0 57 14.5t43.5 37.5t31 51t20.5 55q40 -11 61.5 -19t36.5 -14z" />
    <glyph glyph-name="Iogonek" unicode="&#x12e;" horiz-adv-x="1018" 
d="M180 -506q-28 -15 -75 -30t-109 -15q-16 0 -38 12.5t-42.5 30.5t-34.5 37.5t-14 34.5q0 34 13 67t33.5 63t45 57t47.5 48q-23 1 -50 23t-52.5 50.5t-46.5 57.5t-33 45q-13 19 -21 47t-8 70q0 51 11 104t40 121q12 5 42.5 14.5t67 19.5t72.5 19t60 13q-30 -45 -56 -86.5
t-44.5 -83t-29.5 -85t-11 -91.5q0 -20 7.5 -38.5t27.5 -18.5q31 0 78.5 31t104.5 86t122 130t133 162q-38 54 -70 114t-55.5 125.5t-37 135t-13.5 141.5q0 106 33.5 196t89 163.5t127 129.5t147.5 94t150.5 57.5t136.5 19.5q34 0 51 -13q17 -11 40 -33.5t45.5 -47.5
t40 -48.5t23.5 -38.5q5 -11 9 -28.5t4 -42.5q0 -62 -18 -139t-50.5 -163t-78 -179.5t-101 -188t-119.5 -188.5t-133 -181q43 -51 92 -96.5t103 -79.5q-33 -25 -62 -39q-38 17 -89 53t-105 89q-113 -133 -230.5 -234.5t-228.5 -152.5q-19 -15 -43.5 -40t-46 -54t-36.5 -59
t-15 -54q0 -14 9 -21.5t21 -7.5q11 0 28 3.5t36.5 10t40 14.5t37.5 17q3 -12 7 -31l8 -38t7.5 -35.5t5.5 -24.5zM420 797q0 -68 21 -144.5t59 -156.5q60 83 117.5 170.5t109 175t95 171.5t75 159.5t49 140t17.5 112.5q0 13 -5 16t-14 3q-14 0 -58.5 -16.5t-102.5 -51
t-122 -87t-117.5 -124.5t-88.5 -164t-35 -204z" />
    </font>
</defs>
</svg>
